Muli-Regular.ufo
<glyph name="exclam" format="1">
  <advance width="284"/>
  <unicode hex="0021"/>
  <outline>
    <contour>
      <point x="122" y="184" type="line"/>
      <point x="95" y="711" type="line"/>
      <point x="201" y="711" type="line"/>
      <point x="174" y="184" type="line"/>
    </contour>
    <contour>
      <point x="103" y="0" type="line"/>
      <point x="103" y="107" type="line"/>
      <point x="194" y="107" type="line"/>
      <point x="194" y="0" type="line"/>
    </contour>
  </outline>
</glyph>
<glyph name="quotedbl" format="1">
  <advance width="455"/>
  <unicode hex="0022"/>
  <outline>
    <contour>
      <point x="285" y="466" type="line"/>
      <point x="264" y="711" type="line"/>
      <point x="356" y="711" type="line"/>
      <point x="340" y="466" type="line"/>
    </contour>
    <contour>
      <point x="121" y="466" type="line"/>
      <point x="100" y="711" type="line"/>
      <point x="192" y="711" type="line"/>
      <point x="176" y="466" type="line"/>
    </contour>
  </outline>
</glyph>
<glyph name="numbersign" format="1">
  <advance width="634"/>
  <unicode hex="0023"/>
  <outline>
    <contour>
      <point x="243" y="297" type="line"/>
      <point x="367" y="297" type="line"/>
      <point x="394" y="435" type="line"/>
      <point x="271" y="435" type="line"/>
    </contour>
    <contour>
      <point x="118" y="21" type="line"/>
      <point x="160" y="236" type="line"/>
      <point x="38" y="236" type="line"/>
      <point x="43" y="297" type="line"/>
      <point x="171" y="297" type="line"/>
      <point x="197" y="435" type="line"/>
      <point x="69" y="435" type="line"/>
      <point x="75" y="496" type="line"/>
      <point x="209" y="496" type="line"/>
      <point x="248" y="699" type="line"/>
      <point x="321" y="699" type="line"/>
      <point x="282" y="496" type="line"/>
      <point x="406" y="496" type="line"/>
      <point x="444" y="699" type="line"/>
      <point x="517" y="699" type="line"/>
      <point x="477" y="496" type="line"/>
      <point x="593" y="496" type="line"/>
      <point x="588" y="435" type="line"/>
      <point x="466" y="435" type="line"/>
      <point x="439" y="297" type="line"/>
      <point x="562" y="297" type="line"/>
      <point x="557" y="236" type="line"/>
      <point x="428" y="236" type="line"/>
      <point x="386" y="21" type="line"/>
      <point x="314" y="21" type="line"/>
      <point x="355" y="236" type="line"/>
      <point x="232" y="236" type="line"/>
      <point x="189" y="21" type="line"/>
    </contour>
  </outline>
</glyph>
<glyph name="dollar" format="1">
  <advance width="584"/>
  <unicode hex="0024"/>
  <outline>
    <contour>
      <point x="288" y="-99" type="line"/>
      <point x="330" y="-99" type="line"/>
      <point x="330" y="-9" type="line"/>
      <point x="447" y="1"/>
      <point x="538" y="64"/>
      <point x="538" y="187" type="curve" smooth="yes"/>
      <point x="538" y="300"/>
      <point x="492" y="355"/>
      <point x="330" y="404" type="curve"/>
      <point x="330" y="644" type="line"/>
      <point x="396" y="640"/>
      <point x="447" y="612"/>
      <point x="474" y="586" type="curve"/>
      <point x="521" y="649" type="line"/>
      <point x="493" y="677"/>
      <point x="441" y="717"/>
      <point x="330" y="723" type="curve"/>
      <point x="330" y="795" type="line"/>
      <point x="288" y="795" type="line"/>
      <point x="288" y="723" type="line"/>
      <point x="160" y="719"/>
      <point x="65" y="655"/>
      <point x="65" y="536" type="curve" smooth="yes"/>
      <point x="65" y="418"/>
      <point x="133" y="370"/>
      <point x="261" y="333" type="curve" smooth="yes"/>
      <point x="267" y="331"/>
      <point x="278" y="328"/>
      <point x="288" y="325" type="curve"/>
      <point x="288" y="68" type="line"/>
      <point x="207" y="70"/>
      <point x="134" y="113"/>
      <point x="104" y="137" type="curve"/>
      <point x="63" y="69" type="line"/>
      <point x="91" y="42"/>
      <point x="173" y="-9"/>
      <point x="288" y="-11" type="curve"/>
    </contour>
    <contour>
      <point x="330" y="70" type="curve"/>
      <point x="330" y="311" type="line"/>
      <point x="421" y="279"/>
      <point x="440" y="250"/>
      <point x="440" y="190" type="curve" smooth="yes"/>
      <point x="440" y="123"/>
      <point x="404" y="80"/>
    </contour>
    <contour>
      <point x="288" y="416" type="line"/>
      <point x="187" y="445"/>
      <point x="165" y="472"/>
      <point x="165" y="539" type="curve" smooth="yes"/>
      <point x="165" y="604"/>
      <point x="215" y="638"/>
      <point x="288" y="644" type="curve"/>
    </contour>
  </outline>
</glyph>
<glyph name="percent" format="1">
  <advance width="912"/>
  <unicode hex="0025"/>
  <outline>
    <contour>
      <point x="690" y="-9" type="curve" smooth="yes"/>
      <point x="582" y="-9"/>
      <point x="521" y="69"/>
      <point x="521" y="181" type="curve" smooth="yes"/>
      <point x="521" y="292"/>
      <point x="584" y="374"/>
      <point x="692" y="374" type="curve" smooth="yes"/>
      <point x="800" y="374"/>
      <point x="859" y="293"/>
      <point x="859" y="182" type="curve" smooth="yes"/>
      <point x="859" y="70"/>
      <point x="797" y="-9"/>
    </contour>
    <contour>
      <point x="691" y="51" type="curve" smooth="yes"/>
      <point x="754" y="51"/>
      <point x="782" y="100"/>
      <point x="782" y="182" type="curve" smooth="yes"/>
      <point x="782" y="265"/>
      <point x="756" y="314"/>
      <point x="692" y="314" type="curve" smooth="yes"/>
      <point x="626" y="314"/>
      <point x="600" y="262"/>
      <point x="600" y="181" type="curve" smooth="yes"/>
      <point x="600" y="98"/>
      <point x="627" y="51"/>
    </contour>
    <contour>
      <point x="215" y="0" type="line"/>
      <point x="627" y="711" type="line"/>
      <point x="704" y="711" type="line"/>
      <point x="290" y="0" type="line"/>
    </contour>
    <contour>
      <point x="222" y="338" type="curve" smooth="yes"/>
      <point x="114" y="338"/>
      <point x="53" y="411"/>
      <point x="53" y="528" type="curve" smooth="yes"/>
      <point x="53" y="643"/>
      <point x="115" y="720"/>
      <point x="223" y="720" type="curve" smooth="yes"/>
      <point x="331" y="720"/>
      <point x="391" y="644"/>
      <point x="391" y="528" type="curve" smooth="yes"/>
      <point x="391" y="412"/>
      <point x="329" y="338"/>
    </contour>
    <contour>
      <point x="223" y="397" type="curve" smooth="yes"/>
      <point x="286" y="397"/>
      <point x="313" y="446"/>
      <point x="313" y="529" type="curve" smooth="yes"/>
      <point x="313" y="611"/>
      <point x="287" y="661"/>
      <point x="223" y="661" type="curve" smooth="yes"/>
      <point x="157" y="661"/>
      <point x="131" y="609"/>
      <point x="131" y="528" type="curve" smooth="yes"/>
      <point x="131" y="445"/>
      <point x="159" y="397"/>
    </contour>
  </outline>
</glyph>
<glyph name="ampersand" format="1">
  <advance width="750"/>
  <unicode hex="0026"/>
  <outline>
    <contour>
      <point x="291" y="449" type="curve"/>
      <point x="341" y="480"/>
      <point x="391" y="523"/>
      <point x="391" y="574" type="curve" smooth="yes"/>
      <point x="391" y="627"/>
      <point x="348" y="647"/>
      <point x="311" y="647" type="curve" smooth="yes"/>
      <point x="266" y="647"/>
      <point x="231" y="623"/>
      <point x="231" y="574" type="curve" smooth="yes"/>
      <point x="231" y="528"/>
      <point x="253" y="487"/>
    </contour>
    <contour>
      <point x="306" y="67" type="curve" smooth="yes"/>
      <point x="382" y="67"/>
      <point x="430" y="98"/>
      <point x="473" y="143" type="curve"/>
      <point x="274" y="356" type="line"/>
      <point x="210" y="320"/>
      <point x="156" y="281"/>
      <point x="156" y="202" type="curve" smooth="yes"/>
      <point x="156" y="124"/>
      <point x="217" y="67"/>
    </contour>
    <contour>
      <point x="307" y="-12" type="curve" smooth="yes"/>
      <point x="169" y="-12"/>
      <point x="63" y="67"/>
      <point x="63" y="201" type="curve" smooth="yes"/>
      <point x="63" y="309"/>
      <point x="141" y="363"/>
      <point x="224" y="413" type="curve"/>
      <point x="178" y="464"/>
      <point x="144" y="511"/>
      <point x="144" y="576" type="curve" smooth="yes"/>
      <point x="144" y="672"/>
      <point x="218" y="721"/>
      <point x="308" y="721" type="curve" smooth="yes"/>
      <point x="392" y="721"/>
      <point x="477" y="676"/>
      <point x="477" y="579" type="curve" smooth="yes"/>
      <point x="477" y="503"/>
      <point x="413" y="440"/>
      <point x="343" y="398" type="curve"/>
      <point x="518" y="207" type="line"/>
      <point x="557" y="271"/>
      <point x="581" y="359"/>
      <point x="581" y="441" type="curve"/>
      <point x="664" y="427" type="line"/>
      <point x="661" y="327"/>
      <point x="629" y="220"/>
      <point x="576" y="143" type="curve"/>
      <point x="604" y="114"/>
      <point x="661" y="66"/>
      <point x="729" y="49" type="curve"/>
      <point x="669" y="-4" type="line"/>
      <point x="610" y="5"/>
      <point x="552" y="58"/>
      <point x="525" y="85" type="curve"/>
      <point x="473" y="30"/>
      <point x="403" y="-12"/>
    </contour>
  </outline>
</glyph>
<glyph name="quotesingle" format="1">
  <advance width="248"/>
  <unicode hex="0027"/>
  <outline>
    <contour>
      <point x="97" y="457" type="line"/>
      <point x="79" y="711" type="line"/>
      <point x="175" y="711" type="line"/>
      <point x="162" y="457" type="line"/>
    </contour>
  </outline>
</glyph>
<glyph name="parenleft" format="1">
  <advance width="310"/>
  <unicode hex="0028"/>
  <outline>
    <contour>
      <point x="201" y="-84" type="line"/>
      <point x="125" y="33"/>
      <point x="67" y="177"/>
      <point x="67" y="324" type="curve" smooth="yes"/>
      <point x="67" y="478"/>
      <point x="117" y="611"/>
      <point x="199" y="740" type="curve"/>
      <point x="286" y="740" type="line"/>
      <point x="204" y="610"/>
      <point x="157" y="469"/>
      <point x="157" y="325" type="curve" smooth="yes"/>
      <point x="157" y="191"/>
      <point x="209" y="39"/>
      <point x="287" y="-84" type="curve"/>
    </contour>
  </outline>
</glyph>
<glyph name="parenright" format="1">
  <advance width="310"/>
  <unicode hex="0029"/>
  <outline>
    <contour>
      <point x="24" y="-94" type="line"/>
      <point x="107" y="36"/>
      <point x="153" y="177"/>
      <point x="153" y="322" type="curve" smooth="yes"/>
      <point x="153" y="456"/>
      <point x="102" y="606"/>
      <point x="24" y="730" type="curve"/>
      <point x="109" y="730" type="line"/>
      <point x="185" y="614"/>
      <point x="243" y="469"/>
      <point x="243" y="322" type="curve" smooth="yes"/>
      <point x="243" y="168"/>
      <point x="193" y="34"/>
      <point x="111" y="-94" type="curve"/>
    </contour>
  </outline>
</glyph>
<glyph name="asterisk" format="1">
  <advance width="542"/>
  <unicode hex="002A"/>
  <outline>
    <contour>
      <point x="351" y="347" type="line"/>
      <point x="271" y="476" type="line"/>
      <point x="194" y="350" type="line"/>
      <point x="126" y="394" type="line"/>
      <point x="221" y="510" type="line"/>
      <point x="89" y="553" type="line"/>
      <point x="116" y="623" type="line"/>
      <point x="240" y="564" type="line"/>
      <point x="225" y="711" type="line"/>
      <point x="308" y="711" type="line"/>
      <point x="301" y="564" type="line"/>
      <point x="416" y="623" type="line"/>
      <point x="449" y="553" type="line"/>
      <point x="320" y="510" type="line"/>
      <point x="419" y="390" type="line"/>
    </contour>
  </outline>
</glyph>
<glyph name="plus" format="1">
  <advance width="586"/>
  <unicode hex="002B"/>
  <outline>
    <contour>
      <point x="251" y="50" type="line"/>
      <point x="251" y="253" type="line"/>
      <point x="64" y="253" type="line"/>
      <point x="64" y="329" type="line"/>
      <point x="251" y="329" type="line"/>
      <point x="251" y="525" type="line"/>
      <point x="335" y="525" type="line"/>
      <point x="335" y="329" type="line"/>
      <point x="523" y="329" type="line"/>
      <point x="523" y="253" type="line"/>
      <point x="335" y="253" type="line"/>
      <point x="335" y="50" type="line"/>
    </contour>
  </outline>
</glyph>
<glyph name="comma" format="1">
  <advance width="237"/>
  <unicode hex="002C"/>
  <outline>
    <contour>
      <point x="35" y="-129" type="line"/>
      <point x="88" y="108" type="line"/>
      <point x="190" y="108" type="line"/>
      <point x="108" y="-129" type="line"/>
    </contour>
  </outline>
</glyph>
<glyph name="hyphen" format="1">
  <advance width="331"/>
  <unicode hex="002D"/>
  <outline>
    <contour>
      <point x="30" y="238" type="line"/>
      <point x="30" y="307" type="line"/>
      <point x="301" y="307" type="line"/>
      <point x="301" y="238" type="line"/>
    </contour>
  </outline>
</glyph>
<glyph name="period" format="1">
  <advance width="265"/>
  <unicode hex="002E"/>
  <outline>
    <contour>
      <point x="74" y="0" type="line"/>
      <point x="74" y="110" type="line"/>
      <point x="188" y="110" type="line"/>
      <point x="188" y="0" type="line"/>
    </contour>
  </outline>
</glyph>
<glyph name="slash" format="1">
  <advance width="444"/>
  <unicode hex="002F"/>
  <outline>
    <contour>
      <point x="61" y="0" type="line"/>
      <point x="320" y="711" type="line"/>
      <point x="403" y="711" type="line"/>
      <point x="143" y="0" type="line"/>
    </contour>
  </outline>
</glyph>
<glyph name="zero" format="1">
  <advance width="601"/>
  <unicode hex="0030"/>
  <outline>
    <contour>
      <point x="303" y="-11" type="curve" smooth="yes"/>
      <point x="144" y="-11"/>
      <point x="61" y="135"/>
      <point x="61" y="357" type="curve" smooth="yes"/>
      <point x="61" y="588"/>
      <point x="143" y="724"/>
      <point x="303" y="724" type="curve" smooth="yes"/>
      <point x="462" y="724"/>
      <point x="541" y="585"/>
      <point x="541" y="357" type="curve" smooth="yes"/>
      <point x="541" y="135"/>
      <point x="463" y="-11"/>
    </contour>
    <contour>
      <point x="304" y="68" type="curve" smooth="yes"/>
      <point x="407" y="68"/>
      <point x="444" y="186"/>
      <point x="444" y="357" type="curve" smooth="yes"/>
      <point x="444" y="522"/>
      <point x="407" y="645"/>
      <point x="304" y="645" type="curve" smooth="yes"/>
      <point x="198" y="645"/>
      <point x="156" y="522"/>
      <point x="156" y="357" type="curve" smooth="yes"/>
      <point x="156" y="186"/>
      <point x="198" y="68"/>
    </contour>
  </outline>
</glyph>
<glyph name="one" format="1">
  <advance width="601"/>
  <unicode hex="0031"/>
  <outline>
    <contour>
      <point x="138" y="0" type="line"/>
      <point x="138" y="73" type="line"/>
      <point x="275" y="73" type="line"/>
      <point x="275" y="610" type="line"/>
      <point x="234" y="588"/>
      <point x="181" y="567"/>
      <point x="130" y="548" type="curve"/>
      <point x="130" y="632" type="line"/>
      <point x="180" y="650"/>
      <point x="252" y="685"/>
      <point x="295" y="711" type="curve"/>
      <point x="369" y="711" type="line"/>
      <point x="369" y="73" type="line"/>
      <point x="498" y="73" type="line"/>
      <point x="498" y="0" type="line"/>
    </contour>
  </outline>
</glyph>
<glyph name="two" format="1">
  <advance width="604"/>
  <unicode hex="0032"/>
  <outline>
    <contour>
      <point x="292" y="724" type="curve" smooth="yes"/>
      <point x="426" y="724"/>
      <point x="512" y="636"/>
      <point x="512" y="511" type="curve" smooth="yes"/>
      <point x="512" y="413"/>
      <point x="459" y="337"/>
      <point x="372" y="245" type="curve" smooth="yes"/>
      <point x="214" y="77" type="line"/>
      <point x="509" y="77" type="line"/>
      <point x="509" y="0" type="line"/>
      <point x="102" y="0" type="line"/>
      <point x="102" y="73" type="line"/>
      <point x="318" y="303" type="line" smooth="yes"/>
      <point x="392" y="382"/>
      <point x="421" y="438"/>
      <point x="421" y="503" type="curve" smooth="yes"/>
      <point x="421" y="588"/>
      <point x="375" y="645"/>
      <point x="287" y="645" type="curve" smooth="yes"/>
      <point x="198" y="645"/>
      <point x="122" y="591"/>
      <point x="110" y="585" type="curve"/>
      <point x="80" y="658" type="line"/>
      <point x="92" y="665"/>
      <point x="174" y="724"/>
    </contour>
  </outline>
</glyph>
<glyph name="three" format="1">
  <advance width="601"/>
  <unicode hex="0033"/>
  <outline>
    <contour>
      <point x="284" y="-11" type="curve" smooth="yes"/>
      <point x="174" y="-11"/>
      <point x="98" y="33"/>
      <point x="87" y="40" type="curve"/>
      <point x="113" y="111" type="line"/>
      <point x="134" y="101"/>
      <point x="204" y="68"/>
      <point x="276" y="68" type="curve" smooth="yes"/>
      <point x="371" y="68"/>
      <point x="432" y="118"/>
      <point x="432" y="200" type="curve" smooth="yes"/>
      <point x="432" y="290"/>
      <point x="361" y="334"/>
      <point x="246" y="334" type="curve" smooth="yes"/>
      <point x="245" y="334"/>
      <point x="243" y="333"/>
      <point x="242" y="333" type="curve" smooth="yes"/>
      <point x="205" y="333" type="line"/>
      <point x="204" y="413" type="line"/>
      <point x="240" y="413" type="line" smooth="yes"/>
      <point x="356" y="413"/>
      <point x="415" y="447"/>
      <point x="415" y="541" type="curve" smooth="yes"/>
      <point x="415" y="610"/>
      <point x="349" y="645"/>
      <point x="274" y="645" type="curve" smooth="yes"/>
      <point x="196" y="645"/>
      <point x="140" y="612"/>
      <point x="108" y="581" type="curve"/>
      <point x="65" y="643" type="line"/>
      <point x="119" y="696"/>
      <point x="186" y="724"/>
      <point x="285" y="724" type="curve" smooth="yes"/>
      <point x="402" y="724"/>
      <point x="507" y="661"/>
      <point x="507" y="542" type="curve" smooth="yes"/>
      <point x="507" y="464"/>
      <point x="463" y="394"/>
      <point x="375" y="375" type="curve"/>
      <point x="469" y="357"/>
      <point x="524" y="287"/>
      <point x="524" y="197" type="curve" smooth="yes"/>
      <point x="524" y="68"/>
      <point x="419" y="-11"/>
    </contour>
  </outline>
</glyph>
<glyph name="four" format="1">
  <advance width="601"/>
  <unicode hex="0034"/>
  <outline>
    <contour>
      <point x="149" y="257" type="curve"/>
      <point x="367" y="257" type="line"/>
      <point x="367" y="621" type="line"/>
      <point x="296" y="498"/>
      <point x="222" y="378"/>
    </contour>
    <contour>
      <point x="367" y="0" type="line"/>
      <point x="367" y="188" type="line"/>
      <point x="51" y="188" type="line"/>
      <point x="51" y="250" type="line"/>
      <point x="343" y="711" type="line"/>
      <point x="457" y="711" type="line"/>
      <point x="457" y="257" type="line"/>
      <point x="563" y="257" type="line"/>
      <point x="563" y="188" type="line"/>
      <point x="457" y="188" type="line"/>
      <point x="457" y="0" type="line"/>
    </contour>
  </outline>
</glyph>
<glyph name="five" format="1">
  <advance width="601"/>
  <unicode hex="0035"/>
  <outline>
    <contour>
      <point x="294" y="-11" type="curve" smooth="yes"/>
      <point x="217" y="-11"/>
      <point x="138" y="14"/>
      <point x="79" y="72" type="curve"/>
      <point x="124" y="141" type="line"/>
      <point x="174" y="89"/>
      <point x="236" y="68"/>
      <point x="293" y="68" type="curve" smooth="yes"/>
      <point x="384" y="68"/>
      <point x="445" y="130"/>
      <point x="445" y="229" type="curve" smooth="yes"/>
      <point x="445" y="311"/>
      <point x="398" y="377"/>
      <point x="315" y="377" type="curve" smooth="yes"/>
      <point x="271" y="377"/>
      <point x="225" y="361"/>
      <point x="204" y="329" type="curve"/>
      <point x="116" y="337" type="line"/>
      <point x="118" y="711" type="line"/>
      <point x="499" y="711" type="line"/>
      <point x="499" y="631" type="line"/>
      <point x="203" y="631" type="line"/>
      <point x="195" y="410" type="line"/>
      <point x="225" y="444"/>
      <point x="276" y="459"/>
      <point x="326" y="459" type="curve" smooth="yes"/>
      <point x="453" y="459"/>
      <point x="541" y="360"/>
      <point x="541" y="227" type="curve" smooth="yes"/>
      <point x="541" y="79"/>
      <point x="433" y="-11"/>
    </contour>
  </outline>
</glyph>
<glyph name="six" format="1">
  <advance width="601"/>
  <unicode hex="0036"/>
  <outline>
    <contour>
      <point x="320" y="68" type="curve" smooth="yes"/>
      <point x="407" y="68"/>
      <point x="458" y="136"/>
      <point x="458" y="226" type="curve" smooth="yes"/>
      <point x="458" y="314"/>
      <point x="415" y="383"/>
      <point x="323" y="383" type="curve" smooth="yes"/>
      <point x="232" y="383"/>
      <point x="173" y="320"/>
      <point x="173" y="246" type="curve" smooth="yes"/>
      <point x="173" y="142"/>
      <point x="227" y="68"/>
    </contour>
    <contour>
      <point x="320" y="-11" type="curve" smooth="yes"/>
      <point x="148" y="-11"/>
      <point x="68" y="131"/>
      <point x="68" y="339" type="curve" smooth="yes"/>
      <point x="68" y="550"/>
      <point x="159" y="724"/>
      <point x="345" y="724" type="curve" smooth="yes"/>
      <point x="416" y="724"/>
      <point x="474" y="700"/>
      <point x="512" y="667" type="curve"/>
      <point x="480" y="599" type="line"/>
      <point x="445" y="627"/>
      <point x="398" y="645"/>
      <point x="346" y="645" type="curve" smooth="yes"/>
      <point x="219" y="645"/>
      <point x="166" y="507"/>
      <point x="166" y="372" type="curve"/>
      <point x="198" y="421"/>
      <point x="253" y="459"/>
      <point x="334" y="459" type="curve" smooth="yes"/>
      <point x="462" y="459"/>
      <point x="554" y="370"/>
      <point x="554" y="228" type="curve" smooth="yes"/>
      <point x="554" y="93"/>
      <point x="465" y="-11"/>
    </contour>
  </outline>
</glyph>
<glyph name="seven" format="1">
  <advance width="601"/>
  <unicode hex="0037"/>
  <outline>
    <contour>
      <point x="173" y="0" type="line"/>
      <point x="428" y="632" type="line"/>
      <point x="83" y="632" type="line"/>
      <point x="83" y="711" type="line"/>
      <point x="533" y="711" type="line"/>
      <point x="533" y="641" type="line"/>
      <point x="273" y="0" type="line"/>
    </contour>
  </outline>
</glyph>
<glyph name="eight" format="1">
  <advance width="601"/>
  <unicode hex="0038"/>
  <outline>
    <contour>
      <point x="302" y="412" type="curve"/>
      <point x="383" y="430"/>
      <point x="431" y="476"/>
      <point x="431" y="544" type="curve" smooth="yes"/>
      <point x="431" y="613"/>
      <point x="371" y="651"/>
      <point x="303" y="651" type="curve" smooth="yes"/>
      <point x="234" y="651"/>
      <point x="174" y="614"/>
      <point x="174" y="543" type="curve" smooth="yes"/>
      <point x="174" y="476"/>
      <point x="222" y="429"/>
    </contour>
    <contour>
      <point x="302" y="64" type="curve" smooth="yes"/>
      <point x="385" y="64"/>
      <point x="445" y="106"/>
      <point x="445" y="188" type="curve" smooth="yes"/>
      <point x="445" y="262"/>
      <point x="385" y="315"/>
      <point x="303" y="333" type="curve"/>
      <point x="221" y="315"/>
      <point x="160" y="264"/>
      <point x="160" y="187" type="curve" smooth="yes"/>
      <point x="160" y="107"/>
      <point x="219" y="64"/>
    </contour>
    <contour>
      <point x="303" y="-11" type="curve" smooth="yes"/>
      <point x="178" y="-11"/>
      <point x="68" y="60"/>
      <point x="68" y="186" type="curve" smooth="yes"/>
      <point x="68" y="274"/>
      <point x="122" y="341"/>
      <point x="213" y="373" type="curve"/>
      <point x="136" y="403"/>
      <point x="84" y="460"/>
      <point x="84" y="542" type="curve" smooth="yes"/>
      <point x="84" y="656"/>
      <point x="179" y="724"/>
      <point x="302" y="724" type="curve" smooth="yes"/>
      <point x="427" y="724"/>
      <point x="521" y="656"/>
      <point x="521" y="541" type="curve" smooth="yes"/>
      <point x="521" y="459"/>
      <point x="471" y="401"/>
      <point x="393" y="373" type="curve"/>
      <point x="482" y="341"/>
      <point x="537" y="271"/>
      <point x="537" y="184" type="curve" smooth="yes"/>
      <point x="537" y="59"/>
      <point x="427" y="-11"/>
    </contour>
  </outline>
</glyph>
<glyph name="nine" format="1">
  <advance width="601"/>
  <unicode hex="0039"/>
  <outline>
    <contour>
      <point x="292" y="338" type="curve" smooth="yes"/>
      <point x="381" y="338"/>
      <point x="439" y="397"/>
      <point x="439" y="480" type="curve" smooth="yes"/>
      <point x="439" y="564"/>
      <point x="395" y="645"/>
      <point x="297" y="645" type="curve" smooth="yes"/>
      <point x="209" y="645"/>
      <point x="159" y="579"/>
      <point x="159" y="490" type="curve" smooth="yes"/>
      <point x="159" y="405"/>
      <point x="198" y="338"/>
    </contour>
    <contour>
      <point x="273" y="-11" type="curve" smooth="yes"/>
      <point x="215" y="-11"/>
      <point x="159" y="5"/>
      <point x="101" y="35" type="curve"/>
      <point x="133" y="109" type="line"/>
      <point x="175" y="83"/>
      <point x="221" y="68"/>
      <point x="267" y="68" type="curve" smooth="yes"/>
      <point x="382" y="68"/>
      <point x="444" y="169"/>
      <point x="444" y="318" type="curve" smooth="yes"/>
      <point x="444" y="342" type="line"/>
      <point x="414" y="290"/>
      <point x="356" y="261"/>
      <point x="282" y="261" type="curve" smooth="yes"/>
      <point x="150" y="261"/>
      <point x="64" y="353"/>
      <point x="64" y="488" type="curve" smooth="yes"/>
      <point x="64" y="621"/>
      <point x="152" y="724"/>
      <point x="297" y="724" type="curve" smooth="yes"/>
      <point x="457" y="724"/>
      <point x="537" y="599"/>
      <point x="537" y="377" type="curve" smooth="yes"/>
      <point x="537" y="132"/>
      <point x="438" y="-11"/>
    </contour>
  </outline>
</glyph>
<glyph name="colon" format="1">
  <advance width="264"/>
  <unicode hex="003A"/>
  <outline>
    <contour>
      <point x="84" y="406" type="line"/>
      <point x="84" y="517" type="line"/>
      <point x="191" y="517" type="line"/>
      <point x="191" y="406" type="line"/>
    </contour>
    <contour>
      <point x="84" y="0" type="line"/>
      <point x="84" y="111" type="line"/>
      <point x="191" y="111" type="line"/>
      <point x="191" y="0" type="line"/>
    </contour>
  </outline>
</glyph>
<glyph name="semicolon" format="1">
  <advance width="265"/>
  <unicode hex="003B"/>
  <outline>
    <contour>
      <point x="83" y="404" type="line"/>
      <point x="83" y="514" type="line"/>
      <point x="193" y="514" type="line"/>
      <point x="193" y="404" type="line"/>
    </contour>
    <contour>
      <point x="47" y="-129" type="line"/>
      <point x="99" y="108" type="line"/>
      <point x="202" y="108" type="line"/>
      <point x="120" y="-129" type="line"/>
    </contour>
  </outline>
</glyph>
<glyph name="less" format="1">
  <advance width="612"/>
  <unicode hex="003C"/>
  <outline>
    <contour>
      <point x="507" y="33" type="line"/>
      <point x="51" y="261" type="line"/>
      <point x="51" y="308" type="line"/>
      <point x="509" y="523" type="line"/>
      <point x="509" y="439" type="line"/>
      <point x="165" y="283" type="line"/>
      <point x="507" y="116" type="line"/>
    </contour>
  </outline>
</glyph>
<glyph name="equal" format="1">
  <advance width="629"/>
  <unicode hex="003D"/>
  <outline>
    <contour>
      <point x="83" y="333" type="line"/>
      <point x="83" y="409" type="line"/>
      <point x="546" y="409" type="line"/>
      <point x="546" y="333" type="line"/>
    </contour>
    <contour>
      <point x="84" y="143" type="line"/>
      <point x="84" y="217" type="line"/>
      <point x="547" y="217" type="line"/>
      <point x="547" y="143" type="line"/>
    </contour>
  </outline>
</glyph>
<glyph name="greater" format="1">
  <advance width="613"/>
  <unicode hex="003E"/>
  <outline>
    <contour>
      <point x="105" y="33" type="line"/>
      <point x="105" y="118" type="line"/>
      <point x="446" y="273" type="line"/>
      <point x="107" y="441" type="line"/>
      <point x="107" y="525" type="line"/>
      <point x="563" y="294" type="line"/>
      <point x="563" y="246" type="line"/>
    </contour>
  </outline>
</glyph>
<glyph name="question" format="1">
  <advance width="516"/>
  <unicode hex="003F"/>
  <outline>
    <contour>
      <point x="167" y="-2" type="line"/>
      <point x="167" y="106" type="line"/>
      <point x="259" y="106" type="line"/>
      <point x="259" y="-2" type="line"/>
    </contour>
    <contour>
      <point x="176" y="185" type="line"/>
      <point x="176" y="254" type="line" smooth="yes"/>
      <point x="176" y="376"/>
      <point x="360" y="436"/>
      <point x="360" y="548" type="curve" smooth="yes"/>
      <point x="360" y="617"/>
      <point x="305" y="644"/>
      <point x="238" y="644" type="curve" smooth="yes"/>
      <point x="178" y="644"/>
      <point x="120" y="621"/>
      <point x="97" y="608" type="curve"/>
      <point x="97" y="689" type="line"/>
      <point x="134" y="707"/>
      <point x="194" y="722"/>
      <point x="248" y="722" type="curve" smooth="yes"/>
      <point x="366" y="722"/>
      <point x="453" y="667"/>
      <point x="453" y="552" type="curve" smooth="yes"/>
      <point x="453" y="406"/>
      <point x="249" y="350"/>
      <point x="249" y="233" type="curve" smooth="yes"/>
      <point x="249" y="185" type="line"/>
    </contour>
  </outline>
</glyph>
<glyph name="at" format="1">
  <advance width="863"/>
  <unicode hex="0040"/>
  <outline>
    <contour>
      <point x="536" y="401" type="curve" smooth="yes"/>
      <point x="536" y="456"/>
      <point x="507" y="493"/>
      <point x="459" y="493" type="curve" smooth="yes"/>
      <point x="375" y="493"/>
      <point x="319" y="388"/>
      <point x="319" y="291" type="curve" smooth="yes"/>
      <point x="319" y="235"/>
      <point x="350" y="198"/>
      <point x="398" y="198" type="curve" smooth="yes"/>
      <point x="474" y="198"/>
      <point x="536" y="295"/>
    </contour>
    <contour>
      <point x="451" y="558" type="curve" smooth="yes"/>
      <point x="505" y="558"/>
      <point x="548" y="533"/>
      <point x="560" y="484" type="curve"/>
      <point x="573" y="544" type="line"/>
      <point x="649" y="544" type="line"/>
      <point x="596" y="295" type="line" smooth="yes"/>
      <point x="588" y="257"/>
      <point x="584" y="237"/>
      <point x="584" y="216" type="curve" smooth="yes"/>
      <point x="584" y="195"/>
      <point x="596" y="175"/>
      <point x="620" y="175" type="curve" smooth="yes"/>
      <point x="681" y="175"/>
      <point x="747" y="269"/>
      <point x="747" y="392" type="curve" smooth="yes"/>
      <point x="747" y="562"/>
      <point x="617" y="662"/>
      <point x="458" y="662" type="curve" smooth="yes"/>
      <point x="275" y="662"/>
      <point x="128" y="541"/>
      <point x="128" y="330" type="curve" smooth="yes"/>
      <point x="128" y="124"/>
      <point x="279" y="17"/>
      <point x="457" y="17" type="curve" smooth="yes"/>
      <point x="545" y="17"/>
      <point x="637" y="44"/>
      <point x="699" y="95" type="curve"/>
      <point x="733" y="55" type="line"/>
      <point x="670" y="-9"/>
      <point x="562" y="-43"/>
      <point x="452" y="-43" type="curve" smooth="yes"/>
      <point x="223" y="-43"/>
      <point x="53" y="100"/>
      <point x="53" y="331" type="curve" smooth="yes"/>
      <point x="53" y="572"/>
      <point x="234" y="722"/>
      <point x="456" y="722" type="curve" smooth="yes"/>
      <point x="659" y="722"/>
      <point x="810" y="586"/>
      <point x="810" y="390" type="curve" smooth="yes"/>
      <point x="810" y="246"/>
      <point x="723" y="126"/>
      <point x="625" y="126" type="curve" smooth="yes"/>
      <point x="565" y="126"/>
      <point x="531" y="159"/>
      <point x="531" y="218" type="curve" smooth="yes"/>
      <point x="531" y="226" type="line"/>
      <point x="510" y="173"/>
      <point x="458" y="130"/>
      <point x="389" y="130" type="curve" smooth="yes"/>
      <point x="312" y="130"/>
      <point x="235" y="189"/>
      <point x="235" y="300" type="curve" smooth="yes"/>
      <point x="235" y="448"/>
      <point x="344" y="558"/>
    </contour>
  </outline>
</glyph>
<glyph name="A" format="1">
  <advance width="683"/>
  <unicode hex="0041"/>
  <outline>
    <contour>
      <point x="214" y="266" type="curve"/>
      <point x="465" y="266" type="line"/>
      <point x="424" y="382"/>
      <point x="382" y="498"/>
      <point x="340" y="613" type="curve"/>
      <point x="298" y="497"/>
      <point x="256" y="382"/>
    </contour>
    <contour>
      <point x="15" y="0" type="line"/>
      <point x="291" y="711" type="line"/>
      <point x="391" y="711" type="line"/>
      <point x="668" y="0" type="line"/>
      <point x="566" y="0" type="line"/>
      <point x="493" y="190" type="line"/>
      <point x="188" y="190" type="line"/>
      <point x="117" y="0" type="line"/>
    </contour>
    <contour>
      <point x="341" y="711" type="move" name="top"/>
    </contour>
  </outline>
</glyph>
<glyph name="B" format="1">
  <advance width="662"/>
  <unicode hex="0042"/>
  <outline>
    <contour>
      <point x="192" y="410" type="line"/>
      <point x="315" y="410" type="line" smooth="yes"/>
      <point x="404" y="410"/>
      <point x="473" y="438"/>
      <point x="473" y="526" type="curve" smooth="yes"/>
      <point x="473" y="611"/>
      <point x="407" y="632"/>
      <point x="300" y="632" type="curve" smooth="yes"/>
      <point x="192" y="632" type="line"/>
    </contour>
    <contour>
      <point x="192" y="80" type="line"/>
      <point x="336" y="80" type="line" smooth="yes"/>
      <point x="446" y="80"/>
      <point x="506" y="124"/>
      <point x="506" y="205" type="curve" smooth="yes"/>
      <point x="506" y="301"/>
      <point x="454" y="333"/>
      <point x="323" y="333" type="curve" smooth="yes"/>
      <point x="192" y="333" type="line"/>
    </contour>
    <contour>
      <point x="99" y="0" type="line"/>
      <point x="99" y="711" type="line"/>
      <point x="287" y="711" type="line" smooth="yes"/>
      <point x="423" y="711"/>
      <point x="571" y="689"/>
      <point x="571" y="538" type="curve" smooth="yes"/>
      <point x="571" y="461"/>
      <point x="534" y="401"/>
      <point x="454" y="379" type="curve"/>
      <point x="550" y="362"/>
      <point x="605" y="297"/>
      <point x="605" y="202" type="curve" smooth="yes"/>
      <point x="605" y="91"/>
      <point x="521" y="0"/>
      <point x="351" y="0" type="curve" smooth="yes"/>
    </contour>
    <contour>
      <point x="316" y="711" type="move" name="top"/>
    </contour>
  </outline>
</glyph>
<glyph name="C" format="1">
  <advance width="683"/>
  <unicode hex="0043"/>
  <outline>
    <contour>
      <point x="402" y="-11" type="curve" smooth="yes"/>
      <point x="215" y="-11"/>
      <point x="52" y="115"/>
      <point x="52" y="350" type="curve" smooth="yes"/>
      <point x="52" y="576"/>
      <point x="202" y="724"/>
      <point x="399" y="724" type="curve" smooth="yes"/>
      <point x="483" y="724"/>
      <point x="559" y="703"/>
      <point x="623" y="650" type="curve"/>
      <point x="585" y="587" type="line"/>
      <point x="529" y="629"/>
      <point x="469" y="645"/>
      <point x="406" y="645" type="curve" smooth="yes"/>
      <point x="250" y="645"/>
      <point x="150" y="518"/>
      <point x="150" y="351" type="curve" smooth="yes"/>
      <point x="150" y="176"/>
      <point x="258" y="68"/>
      <point x="407" y="68" type="curve" smooth="yes"/>
      <point x="475" y="68"/>
      <point x="543" y="89"/>
      <point x="608" y="138" type="curve"/>
      <point x="639" y="64" type="line"/>
      <point x="568" y="12"/>
      <point x="486" y="-11"/>
    </contour>
    <contour>
      <point x="398" y="711" type="move" name="top"/>
    </contour>
  </outline>
</glyph>
<glyph name="D" format="1">
  <advance width="751"/>
  <unicode hex="0044"/>
  <outline>
    <contour>
      <point x="99" y="0" type="line"/>
      <point x="99" y="711" type="line"/>
      <point x="273" y="711" type="line" smooth="yes"/>
      <point x="541" y="711"/>
      <point x="697" y="602"/>
      <point x="697" y="354" type="curve" smooth="yes"/>
      <point x="697" y="128"/>
      <point x="559" y="0"/>
      <point x="305" y="0" type="curve" smooth="yes"/>
    </contour>
    <contour>
      <point x="192" y="79" type="line"/>
      <point x="310" y="79" type="line" smooth="yes"/>
      <point x="503" y="79"/>
      <point x="599" y="181"/>
      <point x="599" y="354" type="curve" smooth="yes"/>
      <point x="599" y="544"/>
      <point x="495" y="632"/>
      <point x="282" y="632" type="curve" smooth="yes"/>
      <point x="192" y="632" type="line"/>
    </contour>
    <contour>
      <point x="340" y="711" type="move" name="top"/>
    </contour>
  </outline>
</glyph>
<glyph name="E" format="1">
  <advance width="587"/>
  <unicode hex="0045"/>
  <outline>
    <contour>
      <point x="99" y="0" type="line"/>
      <point x="99" y="711" type="line"/>
      <point x="524" y="711" type="line"/>
      <point x="524" y="632" type="line"/>
      <point x="192" y="632" type="line"/>
      <point x="192" y="409" type="line"/>
      <point x="506" y="409" type="line"/>
      <point x="506" y="330" type="line"/>
      <point x="192" y="330" type="line"/>
      <point x="192" y="79" type="line"/>
      <point x="539" y="79" type="line"/>
      <point x="539" y="0" type="line"/>
    </contour>
    <contour>
      <point x="315" y="711" type="move" name="top"/>
    </contour>
  </outline>
</glyph>
<glyph name="F" format="1">
  <advance width="545"/>
  <unicode hex="0046"/>
  <outline>
    <contour>
      <point x="99" y="0" type="line"/>
      <point x="99" y="711" type="line"/>
      <point x="509" y="711" type="line"/>
      <point x="509" y="632" type="line"/>
      <point x="192" y="632" type="line"/>
      <point x="192" y="409" type="line"/>
      <point x="487" y="409" type="line"/>
      <point x="487" y="330" type="line"/>
      <point x="192" y="330" type="line"/>
      <point x="192" y="0" type="line"/>
    </contour>
    <contour>
      <point x="312" y="711" type="move" name="top"/>
    </contour>
  </outline>
</glyph>
<glyph name="G" format="1">
  <advance width="745"/>
  <unicode hex="0047"/>
  <outline>
    <contour>
      <point x="412" y="-11" type="curve" smooth="yes"/>
      <point x="179" y="-11"/>
      <point x="53" y="130"/>
      <point x="53" y="344" type="curve" smooth="yes"/>
      <point x="53" y="565"/>
      <point x="202" y="724"/>
      <point x="420" y="724" type="curve" smooth="yes"/>
      <point x="514" y="724"/>
      <point x="591" y="699"/>
      <point x="654" y="652" type="curve"/>
      <point x="617" y="587" type="line"/>
      <point x="560" y="626"/>
      <point x="496" y="645"/>
      <point x="422" y="645" type="curve" smooth="yes"/>
      <point x="256" y="645"/>
      <point x="149" y="519"/>
      <point x="149" y="348" type="curve" smooth="yes"/>
      <point x="149" y="182"/>
      <point x="238" y="68"/>
      <point x="416" y="68" type="curve" smooth="yes"/>
      <point x="467" y="68"/>
      <point x="526" y="76"/>
      <point x="571" y="93" type="curve"/>
      <point x="571" y="294" type="line"/>
      <point x="392" y="294" type="line"/>
      <point x="392" y="374" type="line"/>
      <point x="664" y="374" type="line"/>
      <point x="664" y="41" type="line"/>
      <point x="583" y="4"/>
      <point x="495" y="-11"/>
    </contour>
    <contour>
      <point x="407" y="711" type="move" name="top"/>
    </contour>
  </outline>
</glyph>
<glyph name="H" format="1">
  <advance width="761"/>
  <unicode hex="0048"/>
  <outline>
    <contour>
      <point x="99" y="0" type="line"/>
      <point x="99" y="711" type="line"/>
      <point x="192" y="711" type="line"/>
      <point x="192" y="404" type="line"/>
      <point x="570" y="404" type="line"/>
      <point x="570" y="711" type="line"/>
      <point x="663" y="711" type="line"/>
      <point x="663" y="0" type="line"/>
      <point x="570" y="0" type="line"/>
      <point x="570" y="325" type="line"/>
      <point x="192" y="325" type="line"/>
      <point x="192" y="0" type="line"/>
    </contour>
    <contour>
      <point x="381" y="711" type="move" name="top"/>
    </contour>
  </outline>
</glyph>
<glyph name="I" format="1">
  <advance width="293"/>
  <unicode hex="0049"/>
  <outline>
    <contour>
      <point x="106" y="0" type="line"/>
      <point x="106" y="711" type="line"/>
      <point x="200" y="711" type="line"/>
      <point x="200" y="0" type="line"/>
    </contour>
    <contour>
      <point x="157" y="711" type="move" name="top"/>
    </contour>
  </outline>
</glyph>
<glyph name="J" format="1">
  <advance width="383"/>
  <unicode hex="004A"/>
  <outline>
    <contour>
      <point x="238" y="711" type="move" name="top"/>
    </contour>
    <contour>
      <point x="112" y="-159" type="curve" smooth="yes"/>
      <point x="70" y="-159"/>
      <point x="28" y="-149"/>
      <point x="-3" y="-139" type="curve"/>
      <point x="10" y="-65" type="line"/>
      <point x="35" y="-72"/>
      <point x="68" y="-81"/>
      <point x="100" y="-81" type="curve" smooth="yes"/>
      <point x="175" y="-81"/>
      <point x="194" y="-38"/>
      <point x="194" y="59" type="curve" smooth="yes"/>
      <point x="194" y="711" type="line"/>
      <point x="287" y="711" type="line"/>
      <point x="287" y="59" type="line" smooth="yes"/>
      <point x="287" y="-94"/>
      <point x="226" y="-159"/>
    </contour>
  </outline>
</glyph>
<glyph name="K" format="1">
  <advance width="632"/>
  <unicode hex="004B"/>
  <outline>
    <contour>
      <point x="99" y="0" type="line"/>
      <point x="99" y="711" type="line"/>
      <point x="192" y="711" type="line"/>
      <point x="192" y="391" type="line"/>
      <point x="498" y="711" type="line"/>
      <point x="614" y="711" type="line"/>
      <point x="285" y="369" type="line"/>
      <point x="637" y="0" type="line"/>
      <point x="519" y="0" type="line"/>
      <point x="192" y="338" type="line"/>
      <point x="192" y="0" type="line"/>
    </contour>
    <contour>
      <point x="328" y="711" type="move" name="top"/>
    </contour>
  </outline>
</glyph>
<glyph name="L" format="1">
  <advance width="541"/>
  <unicode hex="004C"/>
  <outline>
    <contour>
      <point x="99" y="0" type="line"/>
      <point x="99" y="711" type="line"/>
      <point x="192" y="711" type="line"/>
      <point x="192" y="79" type="line"/>
      <point x="522" y="79" type="line"/>
      <point x="522" y="0" type="line"/>
    </contour>
    <contour>
      <point x="152" y="711" type="move" name="top"/>
    </contour>
    <contour>
      <point x="153" y="501" type="move" name="caron.alt"/>
    </contour>
  </outline>
</glyph>
<glyph name="M" format="1">
  <advance width="938"/>
  <unicode hex="004D"/>
  <outline>
    <contour>
      <point x="99" y="0" type="line"/>
      <point x="99" y="711" type="line"/>
      <point x="212" y="711" type="line"/>
      <point x="298" y="514"/>
      <point x="385" y="319"/>
      <point x="470" y="121" type="curve"/>
      <point x="555" y="319"/>
      <point x="643" y="514"/>
      <point x="729" y="711" type="curve"/>
      <point x="840" y="711" type="line"/>
      <point x="840" y="0" type="line"/>
      <point x="751" y="0" type="line"/>
      <point x="751" y="559" type="line"/>
      <point x="670" y="371"/>
      <point x="586" y="187"/>
      <point x="503" y="0" type="curve"/>
      <point x="436" y="0" type="line"/>
      <point x="225" y="475" type="line"/>
      <point x="188" y="563" type="line"/>
      <point x="188" y="0" type="line"/>
    </contour>
    <contour>
      <point x="473" y="711" type="move" name="top"/>
    </contour>
  </outline>
</glyph>
<glyph name="N" format="1">
  <advance width="780"/>
  <unicode hex="004E"/>
  <outline>
    <contour>
      <point x="395" y="711" type="move" name="top"/>
    </contour>
    <contour>
      <point x="99" y="0" type="line"/>
      <point x="99" y="711" type="line"/>
      <point x="198" y="711" type="line"/>
      <point x="541" y="211" type="line"/>
      <point x="593" y="128" type="line"/>
      <point x="593" y="711" type="line"/>
      <point x="682" y="711" type="line"/>
      <point x="682" y="0" type="line"/>
      <point x="583" y="0" type="line"/>
      <point x="249" y="481" type="line"/>
      <point x="186" y="579" type="line"/>
      <point x="186" y="0" type="line"/>
    </contour>
  </outline>
</glyph>
<glyph name="O" format="1">
  <advance width="793"/>
  <unicode hex="004F"/>
  <outline>
    <contour>
      <point x="399" y="711" type="move" name="top"/>
    </contour>
    <contour>
      <point x="398" y="-11" type="curve" smooth="yes"/>
      <point x="182" y="-11"/>
      <point x="52" y="133"/>
      <point x="52" y="356" type="curve" smooth="yes"/>
      <point x="52" y="574"/>
      <point x="181" y="724"/>
      <point x="399" y="724" type="curve" smooth="yes"/>
      <point x="610" y="724"/>
      <point x="742" y="574"/>
      <point x="742" y="356" type="curve" smooth="yes"/>
      <point x="742" y="133"/>
      <point x="613" y="-11"/>
    </contour>
    <contour>
      <point x="397" y="68" type="curve" smooth="yes"/>
      <point x="559" y="68"/>
      <point x="641" y="182"/>
      <point x="641" y="356" type="curve" smooth="yes"/>
      <point x="641" y="525"/>
      <point x="560" y="645"/>
      <point x="398" y="645" type="curve" smooth="yes"/>
      <point x="238" y="645"/>
      <point x="152" y="525"/>
      <point x="152" y="356" type="curve" smooth="yes"/>
      <point x="152" y="181"/>
      <point x="236" y="68"/>
    </contour>
  </outline>
</glyph>
<glyph name="P" format="1">
  <advance width="615"/>
  <unicode hex="0050"/>
  <outline>
    <contour>
      <point x="192" y="401" type="line"/>
      <point x="321" y="401" type="line" smooth="yes"/>
      <point x="428" y="401"/>
      <point x="487" y="427"/>
      <point x="487" y="516" type="curve" smooth="yes"/>
      <point x="487" y="613"/>
      <point x="426" y="632"/>
      <point x="314" y="632" type="curve" smooth="yes"/>
      <point x="305" y="632" type="line" smooth="yes"/>
      <point x="192" y="632" type="line"/>
    </contour>
    <contour>
      <point x="99" y="0" type="line"/>
      <point x="99" y="711" type="line"/>
      <point x="303" y="711" type="line" smooth="yes"/>
      <point x="470" y="711"/>
      <point x="582" y="680"/>
      <point x="582" y="516" type="curve" smooth="yes"/>
      <point x="582" y="370"/>
      <point x="484" y="322"/>
      <point x="323" y="322" type="curve" smooth="yes"/>
      <point x="192" y="322" type="line"/>
      <point x="192" y="0" type="line"/>
    </contour>
    <contour>
      <point x="316" y="711" type="move" name="top"/>
    </contour>
  </outline>
</glyph>
<glyph name="Q" format="1">
  <advance width="793"/>
  <unicode hex="0051"/>
  <outline>
    <contour>
      <point x="397" y="68" type="curve" smooth="yes"/>
      <point x="559" y="68"/>
      <point x="641" y="182"/>
      <point x="641" y="356" type="curve" smooth="yes"/>
      <point x="641" y="525"/>
      <point x="560" y="645"/>
      <point x="398" y="645" type="curve" smooth="yes"/>
      <point x="238" y="645"/>
      <point x="152" y="525"/>
      <point x="152" y="356" type="curve" smooth="yes"/>
      <point x="152" y="181"/>
      <point x="236" y="68"/>
    </contour>
    <contour>
      <point x="398" y="-11" type="curve" smooth="yes"/>
      <point x="182" y="-11"/>
      <point x="52" y="133"/>
      <point x="52" y="356" type="curve" smooth="yes"/>
      <point x="52" y="574"/>
      <point x="181" y="724"/>
      <point x="399" y="724" type="curve" smooth="yes"/>
      <point x="610" y="724"/>
      <point x="742" y="574"/>
      <point x="742" y="356" type="curve" smooth="yes"/>
      <point x="742" y="182"/>
      <point x="664" y="57"/>
      <point x="528" y="10" type="curve"/>
      <point x="575" y="-70"/>
      <point x="652" y="-151"/>
      <point x="652" y="-151" type="curve"/>
      <point x="597" y="-209" type="line"/>
      <point x="597" y="-209"/>
      <point x="503" y="-111"/>
      <point x="445" y="-8" type="curve"/>
      <point x="430" y="-10"/>
      <point x="414" y="-11"/>
    </contour>
  </outline>
</glyph>
<glyph name="R" format="1">
  <advance width="665"/>
  <unicode hex="0052"/>
  <outline>
    <contour>
      <point x="318" y="711" type="move" name="top"/>
    </contour>
    <contour>
      <point x="191" y="395" type="line"/>
      <point x="324" y="395" type="line" smooth="yes"/>
      <point x="411" y="395"/>
      <point x="473" y="424"/>
      <point x="473" y="517" type="curve" smooth="yes"/>
      <point x="473" y="607"/>
      <point x="428" y="632"/>
      <point x="334" y="632" type="curve" smooth="yes"/>
      <point x="328" y="632" type="line" smooth="yes"/>
      <point x="191" y="632" type="line"/>
    </contour>
    <contour>
      <point x="99" y="0" type="line"/>
      <point x="99" y="711" type="line"/>
      <point x="326" y="711" type="line" smooth="yes"/>
      <point x="464" y="711"/>
      <point x="570" y="677"/>
      <point x="570" y="522" type="curve" smooth="yes"/>
      <point x="570" y="437"/>
      <point x="529" y="371"/>
      <point x="432" y="351" type="curve"/>
      <point x="490" y="332"/>
      <point x="514" y="285"/>
      <point x="542" y="215" type="curve" smooth="yes"/>
      <point x="626" y="0" type="line"/>
      <point x="526" y="0" type="line"/>
      <point x="448" y="209" type="line" smooth="yes"/>
      <point x="417" y="292"/>
      <point x="398" y="316"/>
      <point x="319" y="316" type="curve" smooth="yes"/>
      <point x="192" y="316" type="line"/>
      <point x="192" y="0" type="line"/>
    </contour>
  </outline>
</glyph>
<glyph name="S" format="1">
  <advance width="592"/>
  <unicode hex="0053"/>
  <outline>
    <contour>
      <point x="293" y="68" type="curve" smooth="yes"/>
      <point x="391" y="68"/>
      <point x="440" y="113"/>
      <point x="440" y="190" type="curve" smooth="yes"/>
      <point x="440" y="255"/>
      <point x="417" y="285"/>
      <point x="304" y="320" type="curve" smooth="yes"/>
      <point x="295" y="323"/>
      <point x="271" y="330"/>
      <point x="261" y="333" type="curve" smooth="yes"/>
      <point x="133" y="370"/>
      <point x="65" y="418"/>
      <point x="65" y="536" type="curve" smooth="yes"/>
      <point x="65" y="660"/>
      <point x="167" y="724"/>
      <point x="301" y="724" type="curve" smooth="yes"/>
      <point x="432" y="724"/>
      <point x="490" y="679"/>
      <point x="521" y="649" type="curve"/>
      <point x="474" y="586" type="line"/>
      <point x="445" y="614"/>
      <point x="387" y="645"/>
      <point x="312" y="645" type="curve" smooth="yes"/>
      <point x="226" y="645"/>
      <point x="165" y="611"/>
      <point x="165" y="539" type="curve" smooth="yes"/>
      <point x="165" y="471"/>
      <point x="185" y="448"/>
      <point x="285" y="417" type="curve" smooth="yes"/>
      <point x="294" y="415"/>
      <point x="316" y="407"/>
      <point x="326" y="405" type="curve" smooth="yes"/>
      <point x="491" y="356"/>
      <point x="538" y="301"/>
      <point x="538" y="187" type="curve" smooth="yes"/>
      <point x="538" y="53"/>
      <point x="430" y="-11"/>
      <point x="297" y="-11" type="curve" smooth="yes"/>
      <point x="177" y="-11"/>
      <point x="91" y="42"/>
      <point x="63" y="69" type="curve"/>
      <point x="104" y="137" type="line"/>
      <point x="135" y="112"/>
      <point x="210" y="68"/>
    </contour>
    <contour>
      <point x="304" y="711" type="move" name="top"/>
    </contour>
  </outline>
</glyph>
<glyph name="T" format="1">
  <advance width="559"/>
  <unicode hex="0054"/>
  <outline>
    <contour>
      <point x="279" y="711" type="move" name="top"/>
    </contour>
    <contour>
      <point x="232" y="0" type="line"/>
      <point x="232" y="632" type="line"/>
      <point x="5" y="632" type="line"/>
      <point x="5" y="711" type="line"/>
      <point x="554" y="711" type="line"/>
      <point x="554" y="632" type="line"/>
      <point x="325" y="632" type="line"/>
      <point x="325" y="0" type="line"/>
    </contour>
  </outline>
</glyph>
<glyph name="U" format="1">
  <advance width="729"/>
  <unicode hex="0055"/>
  <outline>
    <contour>
      <point x="363" y="-11" type="curve" smooth="yes"/>
      <point x="152" y="-11"/>
      <point x="83" y="109"/>
      <point x="83" y="273" type="curve" smooth="yes"/>
      <point x="83" y="711" type="line"/>
      <point x="176" y="711" type="line"/>
      <point x="176" y="271" type="line" smooth="yes"/>
      <point x="176" y="130"/>
      <point x="241" y="68"/>
      <point x="364" y="68" type="curve" smooth="yes"/>
      <point x="483" y="68"/>
      <point x="553" y="130"/>
      <point x="553" y="270" type="curve" smooth="yes"/>
      <point x="553" y="711" type="line"/>
      <point x="646" y="711" type="line"/>
      <point x="646" y="274" type="line" smooth="yes"/>
      <point x="646" y="106"/>
      <point x="568" y="-11"/>
    </contour>
    <contour>
      <point x="365" y="711" type="move" name="top"/>
    </contour>
  </outline>
</glyph>
<glyph name="V" format="1">
  <advance width="658"/>
  <unicode hex="0056"/>
  <outline>
    <contour>
      <point x="281" y="0" type="line"/>
      <point x="15" y="711" type="line"/>
      <point x="119" y="711" type="line"/>
      <point x="190" y="511"/>
      <point x="260" y="310"/>
      <point x="332" y="111" type="curve"/>
      <point x="403" y="312"/>
      <point x="474" y="511"/>
      <point x="545" y="711" type="curve"/>
      <point x="644" y="711" type="line"/>
      <point x="379" y="0" type="line"/>
    </contour>
  </outline>
</glyph>
<glyph name="W" format="1">
  <advance width="987"/>
  <unicode hex="0057"/>
  <outline>
    <contour>
      <point x="215" y="0" type="line"/>
      <point x="21" y="711" type="line"/>
      <point x="121" y="711" type="line"/>
      <point x="246" y="221" type="line"/>
      <point x="272" y="106" type="line"/>
      <point x="327" y="312"/>
      <point x="392" y="509"/>
      <point x="451" y="711" type="curve"/>
      <point x="544" y="711" type="line"/>
      <point x="604" y="510"/>
      <point x="666" y="311"/>
      <point x="724" y="107" type="curve"/>
      <point x="770" y="311"/>
      <point x="822" y="510"/>
      <point x="871" y="711" type="curve"/>
      <point x="967" y="711" type="line"/>
      <point x="778" y="0" type="line"/>
      <point x="669" y="0" type="line"/>
      <point x="496" y="585" type="line"/>
      <point x="322" y="0" type="line"/>
    </contour>
    <contour>
      <point x="499" y="711" type="move" name="top"/>
    </contour>
  </outline>
</glyph>
<glyph name="X" format="1">
  <advance width="635"/>
  <unicode hex="0058"/>
  <outline>
    <contour>
      <point x="17" y="0" type="line"/>
      <point x="266" y="361" type="line"/>
      <point x="28" y="711" type="line"/>
      <point x="141" y="711" type="line"/>
      <point x="323" y="438" type="line"/>
      <point x="506" y="711" type="line"/>
      <point x="612" y="711" type="line"/>
      <point x="376" y="365" type="line"/>
      <point x="621" y="0" type="line"/>
      <point x="510" y="0" type="line"/>
      <point x="320" y="288" type="line"/>
      <point x="125" y="0" type="line"/>
    </contour>
  </outline>
</glyph>
<glyph name="Y" format="1">
  <advance width="604"/>
  <unicode hex="0059"/>
  <outline>
    <contour>
      <point x="312" y="711" type="move" name="top"/>
    </contour>
    <contour>
      <point x="255" y="0" type="line"/>
      <point x="255" y="281" type="line"/>
      <point x="10" y="711" type="line"/>
      <point x="114" y="711" type="line"/>
      <point x="304" y="363" type="line"/>
      <point x="495" y="711" type="line"/>
      <point x="599" y="711" type="line"/>
      <point x="349" y="282" type="line"/>
      <point x="349" y="0" type="line"/>
    </contour>
  </outline>
</glyph>
<glyph name="Z" format="1">
  <advance width="578"/>
  <unicode hex="005A"/>
  <outline>
    <contour>
      <point x="298" y="711" type="move" name="top"/>
    </contour>
    <contour>
      <point x="47" y="0" type="line"/>
      <point x="47" y="50" type="line"/>
      <point x="408" y="632" type="line"/>
      <point x="62" y="632" type="line"/>
      <point x="62" y="711" type="line"/>
      <point x="533" y="711" type="line"/>
      <point x="533" y="663" type="line"/>
      <point x="169" y="79" type="line"/>
      <point x="531" y="79" type="line"/>
      <point x="531" y="0" type="line"/>
    </contour>
  </outline>
</glyph>
<glyph name="bracketleft" format="1">
  <advance width="322"/>
  <unicode hex="005B"/>
  <outline>
    <contour>
      <point x="84" y="-111" type="line"/>
      <point x="84" y="718" type="line"/>
      <point x="284" y="718" type="line"/>
      <point x="284" y="650" type="line"/>
      <point x="172" y="650" type="line"/>
      <point x="172" y="-43" type="line"/>
      <point x="285" y="-43" type="line"/>
      <point x="285" y="-111" type="line"/>
    </contour>
  </outline>
</glyph>
<glyph name="backslash" format="1">
  <advance width="407"/>
  <unicode hex="005C"/>
  <outline>
    <contour>
      <point x="299" y="6" type="line"/>
      <point x="26" y="711" type="line"/>
      <point x="107" y="711" type="line"/>
      <point x="383" y="6" type="line"/>
    </contour>
  </outline>
</glyph>
<glyph name="bracketright" format="1">
  <advance width="322"/>
  <unicode hex="005D"/>
  <outline>
    <contour>
      <point x="61" y="-111" type="line"/>
      <point x="61" y="-43" type="line"/>
      <point x="171" y="-43" type="line"/>
      <point x="171" y="650" type="line"/>
      <point x="60" y="650" type="line"/>
      <point x="60" y="718" type="line"/>
      <point x="260" y="718" type="line"/>
      <point x="260" y="-111" type="line"/>
    </contour>
  </outline>
</glyph>
<glyph name="asciicircum" format="1">
  <advance width="794"/>
  <unicode hex="005E"/>
  <outline>
    <contour>
      <point x="132" y="275" type="line"/>
      <point x="368" y="711" type="line"/>
      <point x="424" y="711" type="line"/>
      <point x="663" y="275" type="line"/>
      <point x="576" y="275" type="line"/>
      <point x="395" y="613" type="line"/>
      <point x="221" y="275" type="line"/>
    </contour>
  </outline>
</glyph>
<glyph name="underscore" format="1">
  <advance width="459"/>
  <unicode hex="005F"/>
  <outline>
    <contour>
      <point x="-2" y="-131" type="line"/>
      <point x="-2" y="-60" type="line"/>
      <point x="462" y="-60" type="line"/>
      <point x="462" y="-131" type="line"/>
    </contour>
  </outline>
</glyph>
<glyph name="grave" format="1">
  <advance width="291"/>
  <unicode hex="0060"/>
  <outline>
    <contour>
      <point x="187" y="573" type="line"/>
      <point x="22" y="749" type="line"/>
      <point x="140" y="749" type="line"/>
      <point x="262" y="573" type="line"/>
    </contour>
    <contour>
      <point x="226" y="501" type="move" name="_top"/>
    </contour>
  </outline>
</glyph>
<glyph name="a" format="1">
  <advance width="621"/>
  <unicode hex="0061"/>
  <outline>
    <contour>
      <point x="290" y="501" type="move" name="top"/>
    </contour>
    <contour>
      <point x="300" y="62" type="curve" smooth="yes"/>
      <point x="403" y="62"/>
      <point x="454" y="140"/>
      <point x="454" y="254" type="curve" smooth="yes"/>
      <point x="454" y="360"/>
      <point x="402" y="440"/>
      <point x="299" y="440" type="curve" smooth="yes"/>
      <point x="191" y="440"/>
      <point x="140" y="359"/>
      <point x="140" y="253" type="curve" smooth="yes"/>
      <point x="140" y="147"/>
      <point x="191" y="62"/>
    </contour>
    <contour>
      <point x="288" y="-11" type="curve" smooth="yes"/>
      <point x="134" y="-11"/>
      <point x="49" y="109"/>
      <point x="49" y="250" type="curve" smooth="yes"/>
      <point x="49" y="396"/>
      <point x="141" y="514"/>
      <point x="288" y="514" type="curve" smooth="yes"/>
      <point x="361" y="514"/>
      <point x="422" y="473"/>
      <point x="451" y="421" type="curve"/>
      <point x="451" y="501" type="line"/>
      <point x="540" y="501" type="line"/>
      <point x="540" y="0" type="line"/>
      <point x="450" y="0" type="line"/>
      <point x="450" y="85" type="line"/>
      <point x="422" y="26"/>
      <point x="363" y="-11"/>
    </contour>
  </outline>
</glyph>
<glyph name="b" format="1">
  <advance width="622"/>
  <unicode hex="0062"/>
  <outline>
    <contour>
      <point x="332" y="62" type="curve" smooth="yes"/>
      <point x="430" y="62"/>
      <point x="479" y="141"/>
      <point x="479" y="256" type="curve" smooth="yes"/>
      <point x="479" y="363"/>
      <point x="426" y="440"/>
      <point x="331" y="440" type="curve" smooth="yes"/>
      <point x="231" y="440"/>
      <point x="170" y="363"/>
      <point x="170" y="252" type="curve" smooth="yes"/>
      <point x="170" y="140"/>
      <point x="231" y="62"/>
    </contour>
    <contour>
      <point x="343" y="-11" type="curve" smooth="yes"/>
      <point x="260" y="-11"/>
      <point x="196" y="33"/>
      <point x="172" y="85" type="curve"/>
      <point x="172" y="0" type="line"/>
      <point x="80" y="0" type="line"/>
      <point x="81" y="49"/>
      <point x="83" y="110"/>
      <point x="83" y="132" type="curve" smooth="yes"/>
      <point x="83" y="726" type="line"/>
      <point x="174" y="726" type="line"/>
      <point x="174" y="416" type="line"/>
      <point x="195" y="462"/>
      <point x="254" y="514"/>
      <point x="345" y="514" type="curve" smooth="yes"/>
      <point x="484" y="514"/>
      <point x="572" y="412"/>
      <point x="572" y="257" type="curve" smooth="yes"/>
      <point x="572" y="94"/>
      <point x="475" y="-11"/>
    </contour>
    <contour>
      <point x="345" y="501" type="move" name="top"/>
    </contour>
  </outline>
</glyph>
<glyph name="c" format="1">
  <advance width="519"/>
  <unicode hex="0063"/>
  <outline>
    <contour>
      <point x="305" y="-11" type="curve" smooth="yes"/>
      <point x="148" y="-11"/>
      <point x="49" y="99"/>
      <point x="49" y="248" type="curve" smooth="yes"/>
      <point x="49" y="406"/>
      <point x="152" y="514"/>
      <point x="307" y="514" type="curve" smooth="yes"/>
      <point x="375" y="514"/>
      <point x="433" y="493"/>
      <point x="472" y="454" type="curve"/>
      <point x="440" y="395" type="line"/>
      <point x="410" y="421"/>
      <point x="366" y="440"/>
      <point x="313" y="440" type="curve" smooth="yes"/>
      <point x="214" y="440"/>
      <point x="142" y="373"/>
      <point x="142" y="248" type="curve" smooth="yes"/>
      <point x="142" y="135"/>
      <point x="208" y="62"/>
      <point x="312" y="62" type="curve" smooth="yes"/>
      <point x="372" y="62"/>
      <point x="418" y="86"/>
      <point x="448" y="109" type="curve"/>
      <point x="477" y="44" type="line"/>
      <point x="431" y="8"/>
      <point x="374" y="-11"/>
    </contour>
    <contour>
      <point x="294" y="501" type="move" name="top"/>
    </contour>
  </outline>
</glyph>
<glyph name="d" format="1">
  <advance width="617"/>
  <unicode hex="0064"/>
  <outline>
    <contour>
      <point x="438" y="501" type="move" name="caron.alt"/>
    </contour>
    <contour>
      <point x="270" y="501" type="move" name="top"/>
    </contour>
    <contour>
      <point x="292" y="62" type="curve" smooth="yes"/>
      <point x="393" y="62"/>
      <point x="445" y="140"/>
      <point x="445" y="255" type="curve" smooth="yes"/>
      <point x="445" y="362"/>
      <point x="391" y="440"/>
      <point x="293" y="440" type="curve" smooth="yes"/>
      <point x="196" y="440"/>
      <point x="143" y="362"/>
      <point x="143" y="251" type="curve" smooth="yes"/>
      <point x="143" y="141"/>
      <point x="194" y="62"/>
    </contour>
    <contour>
      <point x="278" y="-11" type="curve" smooth="yes"/>
      <point x="146" y="-11"/>
      <point x="49" y="90"/>
      <point x="49" y="249" type="curve" smooth="yes"/>
      <point x="49" y="402"/>
      <point x="135" y="514"/>
      <point x="283" y="514" type="curve" smooth="yes"/>
      <point x="365" y="514"/>
      <point x="423" y="470"/>
      <point x="443" y="426" type="curve"/>
      <point x="443" y="726" type="line"/>
      <point x="534" y="726" type="line"/>
      <point x="534" y="130" type="line"/>
      <point x="534" y="100"/>
      <point x="535" y="62"/>
      <point x="537" y="0" type="curve"/>
      <point x="446" y="0" type="line"/>
      <point x="444" y="85" type="line"/>
      <point x="426" y="38"/>
      <point x="369" y="-11"/>
    </contour>
  </outline>
</glyph>
<glyph name="e" format="1">
  <advance width="569"/>
  <unicode hex="0065"/>
  <outline>
    <contour>
      <point x="145" y="299" type="curve"/>
      <point x="432" y="299" type="line"/>
      <point x="425" y="392"/>
      <point x="375" y="442"/>
      <point x="298" y="442" type="curve" smooth="yes"/>
      <point x="216" y="442"/>
      <point x="158" y="388"/>
    </contour>
    <contour>
      <point x="310" y="-11" type="curve" smooth="yes"/>
      <point x="150" y="-11"/>
      <point x="49" y="93"/>
      <point x="49" y="249" type="curve" smooth="yes"/>
      <point x="49" y="401"/>
      <point x="146" y="514"/>
      <point x="296" y="514" type="curve" smooth="yes"/>
      <point x="441" y="514"/>
      <point x="515" y="408"/>
      <point x="515" y="262" type="curve" smooth="yes"/>
      <point x="515" y="260"/>
      <point x="514" y="248"/>
      <point x="513" y="238" type="curve"/>
      <point x="142" y="238" type="line"/>
      <point x="144" y="123"/>
      <point x="214" y="62"/>
      <point x="314" y="62" type="curve" smooth="yes"/>
      <point x="373" y="62"/>
      <point x="428" y="81"/>
      <point x="474" y="118" type="curve"/>
      <point x="500" y="52" type="line"/>
      <point x="447" y="11"/>
      <point x="383" y="-11"/>
    </contour>
    <contour>
      <point x="289" y="501" type="move" name="top"/>
    </contour>
  </outline>
</glyph>
<glyph name="f" format="1">
  <advance width="354"/>
  <unicode hex="0066"/>
  <outline>
    <contour>
      <point x="123" y="0" type="line"/>
      <point x="123" y="441" type="line"/>
      <point x="34" y="441" type="line"/>
      <point x="34" y="501" type="line"/>
      <point x="123" y="501" type="line"/>
      <point x="123" y="542" type="line" smooth="yes"/>
      <point x="123" y="669"/>
      <point x="144" y="725"/>
      <point x="315" y="725" type="curve" smooth="yes"/>
      <point x="338" y="725" type="line"/>
      <point x="336" y="655" type="line"/>
      <point x="221" y="655"/>
      <point x="213" y="634"/>
      <point x="213" y="549" type="curve" smooth="yes"/>
      <point x="213" y="501" type="line"/>
      <point x="333" y="501" type="line"/>
      <point x="333" y="441" type="line"/>
      <point x="213" y="441" type="line"/>
      <point x="213" y="0" type="line"/>
    </contour>
    <contour>
      <point x="175" y="711" type="move" name="top"/>
    </contour>
  </outline>
</glyph>
<glyph name="g" format="1">
  <advance width="618"/>
  <unicode hex="0067"/>
  <outline>
    <contour>
      <point x="270" y="501" type="move" name="top"/>
    </contour>
    <contour>
      <point x="290" y="77" type="curve" smooth="yes"/>
      <point x="395" y="77"/>
      <point x="445" y="153"/>
      <point x="445" y="260" type="curve" smooth="yes"/>
      <point x="445" y="368"/>
      <point x="391" y="440"/>
      <point x="296" y="440" type="curve" smooth="yes"/>
      <point x="199" y="440"/>
      <point x="143" y="363"/>
      <point x="143" y="253" type="curve" smooth="yes"/>
      <point x="143" y="142"/>
      <point x="196" y="77"/>
    </contour>
    <contour>
      <point x="279" y="-204" type="curve" smooth="yes"/>
      <point x="214" y="-204"/>
      <point x="154" y="-191"/>
      <point x="94" y="-162" type="curve"/>
      <point x="108" y="-84" type="line"/>
      <point x="166" y="-117"/>
      <point x="218" y="-131"/>
      <point x="275" y="-131" type="curve" smooth="yes"/>
      <point x="379" y="-131"/>
      <point x="443" y="-77"/>
      <point x="443" y="42" type="curve" smooth="yes"/>
      <point x="443" y="94" type="line"/>
      <point x="418" y="49"/>
      <point x="368" y="7"/>
      <point x="285" y="7" type="curve" smooth="yes"/>
      <point x="149" y="7"/>
      <point x="49" y="99"/>
      <point x="49" y="252" type="curve" smooth="yes"/>
      <point x="49" y="404"/>
      <point x="132" y="514"/>
      <point x="284" y="514" type="curve" smooth="yes"/>
      <point x="366" y="514"/>
      <point x="417" y="473"/>
      <point x="443" y="427" type="curve"/>
      <point x="445" y="501" type="line"/>
      <point x="538" y="501" type="line"/>
      <point x="538" y="501"/>
      <point x="532" y="420"/>
      <point x="532" y="366" type="curve" smooth="yes"/>
      <point x="532" y="68" type="line" smooth="yes"/>
      <point x="532" y="-88"/>
      <point x="458" y="-204"/>
    </contour>
  </outline>
</glyph>
<glyph name="h" format="1">
  <advance width="604"/>
  <unicode hex="0068"/>
  <outline>
    <contour>
      <point x="341" y="501" type="move" name="top"/>
    </contour>
    <contour>
      <point x="81" y="0" type="line"/>
      <point x="81" y="726" type="line"/>
      <point x="171" y="726" type="line"/>
      <point x="171" y="422" type="line"/>
      <point x="201" y="477"/>
      <point x="270" y="514"/>
      <point x="341" y="514" type="curve" smooth="yes"/>
      <point x="469" y="514"/>
      <point x="527" y="418"/>
      <point x="527" y="302" type="curve" smooth="yes"/>
      <point x="527" y="0" type="line"/>
      <point x="437" y="0" type="line"/>
      <point x="437" y="300" type="line" smooth="yes"/>
      <point x="437" y="398"/>
      <point x="405" y="440"/>
      <point x="329" y="440" type="curve" smooth="yes"/>
      <point x="247" y="440"/>
      <point x="171" y="376"/>
      <point x="171" y="304" type="curve" smooth="yes"/>
      <point x="171" y="0" type="line"/>
    </contour>
  </outline>
</glyph>
<glyph name="i" format="1">
  <advance width="253"/>
  <unicode hex="0069"/>
  <outline>
    <contour>
      <point x="84" y="627" type="line"/>
      <point x="84" y="711" type="line"/>
      <point x="173" y="711" type="line"/>
      <point x="173" y="627" type="line"/>
    </contour>
    <contour>
      <point x="84" y="0" type="line"/>
      <point x="84" y="501" type="line"/>
      <point x="173" y="501" type="line"/>
      <point x="173" y="0" type="line"/>
    </contour>
  </outline>
</glyph>
<glyph name="k" format="1">
  <advance width="542"/>
  <unicode hex="006B"/>
  <outline>
    <contour>
      <point x="340" y="501" type="move" name="top"/>
    </contour>
    <contour>
      <point x="85" y="0" type="line"/>
      <point x="85" y="726" type="line"/>
      <point x="175" y="726" type="line"/>
      <point x="175" y="287" type="line"/>
      <point x="392" y="501" type="line"/>
      <point x="515" y="501" type="line"/>
      <point x="261" y="262" type="line"/>
      <point x="533" y="0" type="line"/>
      <point x="414" y="0" type="line"/>
      <point x="175" y="237" type="line"/>
      <point x="175" y="0" type="line"/>
    </contour>
  </outline>
</glyph>
<glyph name="l" format="1">
  <advance width="256"/>
  <unicode hex="006C"/>
  <outline>
    <contour>
      <point x="86" y="0" type="line"/>
      <point x="86" y="726" type="line"/>
      <point x="176" y="726" type="line"/>
      <point x="176" y="0" type="line"/>
    </contour>
    <contour>
      <point x="131" y="711" type="move" name="top"/>
    </contour>
    <contour>
      <point x="124" y="501" type="move" name="caron.alt"/>
    </contour>
  </outline>
</glyph>
<glyph name="m" format="1">
  <advance width="918"/>
  <unicode hex="006D"/>
  <outline>
    <contour>
      <point x="487" y="501" type="move" name="top"/>
    </contour>
    <contour>
      <point x="86" y="0" type="line"/>
      <point x="86" y="370" type="line" smooth="yes"/>
      <point x="86" y="425"/>
      <point x="82" y="472"/>
      <point x="81" y="501" type="curve"/>
      <point x="174" y="501" type="line"/>
      <point x="175" y="420" type="line"/>
      <point x="202" y="480"/>
      <point x="267" y="514"/>
      <point x="335" y="514" type="curve" smooth="yes"/>
      <point x="406" y="514"/>
      <point x="464" y="475"/>
      <point x="488" y="405" type="curve"/>
      <point x="524" y="472"/>
      <point x="588" y="514"/>
      <point x="667" y="514" type="curve" smooth="yes"/>
      <point x="783" y="514"/>
      <point x="841" y="436"/>
      <point x="841" y="307" type="curve" smooth="yes"/>
      <point x="841" y="0" type="line"/>
      <point x="751" y="0" type="line"/>
      <point x="751" y="299" type="line" smooth="yes"/>
      <point x="751" y="384"/>
      <point x="724" y="440"/>
      <point x="659" y="440" type="curve" smooth="yes"/>
      <point x="579" y="440"/>
      <point x="514" y="374"/>
      <point x="510" y="289" type="curve"/>
      <point x="510" y="0" type="line"/>
      <point x="420" y="0" type="line"/>
      <point x="420" y="307" type="line" smooth="yes"/>
      <point x="420" y="381"/>
      <point x="394" y="440"/>
      <point x="322" y="440" type="curve" smooth="yes"/>
      <point x="241" y="440"/>
      <point x="182" y="378"/>
      <point x="177" y="305" type="curve"/>
      <point x="177" y="0" type="line"/>
    </contour>
  </outline>
</glyph>
<glyph name="n" format="1">
  <advance width="607"/>
  <unicode hex="006E"/>
  <outline>
    <contour>
      <point x="86" y="0" type="line"/>
      <point x="86" y="362" type="line" smooth="yes"/>
      <point x="86" y="437"/>
      <point x="81" y="501"/>
      <point x="81" y="501" type="curve"/>
      <point x="174" y="501" type="line"/>
      <point x="175" y="422" type="line"/>
      <point x="210" y="481"/>
      <point x="279" y="514"/>
      <point x="346" y="514" type="curve" smooth="yes"/>
      <point x="473" y="514"/>
      <point x="530" y="436"/>
      <point x="530" y="282" type="curve" smooth="yes"/>
      <point x="530" y="0" type="line"/>
      <point x="440" y="0" type="line"/>
      <point x="440" y="282" type="line" smooth="yes"/>
      <point x="440" y="386"/>
      <point x="415" y="440"/>
      <point x="330" y="440" type="curve" smooth="yes"/>
      <point x="254" y="440"/>
      <point x="182" y="380"/>
      <point x="177" y="314" type="curve"/>
      <point x="177" y="0" type="line"/>
    </contour>
    <contour>
      <point x="334" y="501" type="move" name="top"/>
    </contour>
  </outline>
</glyph>
<glyph name="o" format="1">
  <advance width="614"/>
  <unicode hex="006F"/>
  <outline>
    <contour>
      <point x="308" y="-11" type="curve" smooth="yes"/>
      <point x="142" y="-11"/>
      <point x="49" y="99"/>
      <point x="49" y="250" type="curve" smooth="yes"/>
      <point x="49" y="404"/>
      <point x="144" y="514"/>
      <point x="309" y="514" type="curve" smooth="yes"/>
      <point x="474" y="514"/>
      <point x="565" y="404"/>
      <point x="565" y="250" type="curve" smooth="yes"/>
      <point x="565" y="99"/>
      <point x="472" y="-11"/>
    </contour>
    <contour>
      <point x="308" y="62" type="curve" smooth="yes"/>
      <point x="417" y="62"/>
      <point x="471" y="141"/>
      <point x="471" y="250" type="curve" smooth="yes"/>
      <point x="471" y="362"/>
      <point x="415" y="440"/>
      <point x="308" y="440" type="curve" smooth="yes"/>
      <point x="200" y="440"/>
      <point x="144" y="362"/>
      <point x="144" y="250" type="curve" smooth="yes"/>
      <point x="144" y="141"/>
      <point x="198" y="62"/>
    </contour>
    <contour>
      <point x="309" y="501" type="move" name="top"/>
    </contour>
  </outline>
</glyph>
<glyph name="p" format="1">
  <advance width="616"/>
  <unicode hex="0070"/>
  <outline>
    <contour>
      <point x="330" y="501" type="move" name="top"/>
    </contour>
    <contour>
      <point x="327" y="62" type="curve" smooth="yes"/>
      <point x="424" y="62"/>
      <point x="474" y="141"/>
      <point x="474" y="252" type="curve" smooth="yes"/>
      <point x="474" y="362"/>
      <point x="423" y="440"/>
      <point x="327" y="440" type="curve" smooth="yes"/>
      <point x="228" y="440"/>
      <point x="173" y="360"/>
      <point x="173" y="246" type="curve" smooth="yes"/>
      <point x="173" y="138"/>
      <point x="227" y="62"/>
    </contour>
    <contour>
      <point x="86" y="-209" type="line"/>
      <point x="86" y="355" type="line" smooth="yes"/>
      <point x="86" y="397"/>
      <point x="83" y="460"/>
      <point x="81" y="501" type="curve"/>
      <point x="175" y="501" type="line"/>
      <point x="176" y="411" type="line"/>
      <point x="194" y="464"/>
      <point x="262" y="513"/>
      <point x="344" y="513" type="curve" smooth="yes"/>
      <point x="482" y="513"/>
      <point x="567" y="404"/>
      <point x="567" y="255" type="curve" smooth="yes"/>
      <point x="567" y="104"/>
      <point x="481" y="-11"/>
      <point x="342" y="-11" type="curve" smooth="yes"/>
      <point x="259" y="-11"/>
      <point x="193" y="35"/>
      <point x="176" y="81" type="curve"/>
      <point x="176" y="-209" type="line"/>
    </contour>
  </outline>
</glyph>
<glyph name="q" format="1">
  <advance width="614"/>
  <unicode hex="0071"/>
  <outline>
    <contour>
      <point x="291" y="63" type="curve" smooth="yes"/>
      <point x="388" y="63"/>
      <point x="440" y="140"/>
      <point x="440" y="259" type="curve" smooth="yes"/>
      <point x="440" y="366"/>
      <point x="386" y="440"/>
      <point x="294" y="440" type="curve" smooth="yes"/>
      <point x="199" y="440"/>
      <point x="144" y="363"/>
      <point x="144" y="249" type="curve" smooth="yes"/>
      <point x="144" y="138"/>
      <point x="197" y="63"/>
    </contour>
    <contour>
      <point x="439" y="-205" type="line"/>
      <point x="439" y="73" type="line"/>
      <point x="413" y="33"/>
      <point x="359" y="-11"/>
      <point x="280" y="-11" type="curve" smooth="yes"/>
      <point x="138" y="-11"/>
      <point x="49" y="97"/>
      <point x="49" y="250" type="curve" smooth="yes"/>
      <point x="49" y="406"/>
      <point x="139" y="514"/>
      <point x="284" y="514" type="curve" smooth="yes"/>
      <point x="351" y="514"/>
      <point x="408" y="482"/>
      <point x="439" y="432" type="curve"/>
      <point x="439" y="501" type="line"/>
      <point x="532" y="501" type="line"/>
      <point x="532" y="488"/>
      <point x="529" y="400"/>
      <point x="529" y="387" type="curve" smooth="yes"/>
      <point x="529" y="-205" type="line"/>
    </contour>
  </outline>
</glyph>
<glyph name="r" format="1">
  <advance width="392"/>
  <unicode hex="0072"/>
  <outline>
    <contour>
      <point x="87" y="0" type="line"/>
      <point x="87" y="378" type="line" smooth="yes"/>
      <point x="87" y="416"/>
      <point x="81" y="501"/>
      <point x="81" y="501" type="curve"/>
      <point x="176" y="501" type="line"/>
      <point x="177" y="423" type="line"/>
      <point x="207" y="482"/>
      <point x="254" y="513"/>
      <point x="311" y="513" type="curve" smooth="yes"/>
      <point x="328" y="513"/>
      <point x="345" y="511"/>
      <point x="362" y="507" type="curve"/>
      <point x="361" y="427" type="line"/>
      <point x="345" y="431"/>
      <point x="326" y="435"/>
      <point x="306" y="435" type="curve" smooth="yes"/>
      <point x="232" y="435"/>
      <point x="178" y="383"/>
      <point x="178" y="279" type="curve" smooth="yes"/>
      <point x="178" y="0" type="line"/>
    </contour>
    <contour>
      <point x="253" y="501" type="move" name="top"/>
    </contour>
  </outline>
</glyph>
<glyph name="s" format="1">
  <advance width="477"/>
  <unicode hex="0073"/>
  <outline>
    <contour>
      <point x="253" y="-11" type="curve" smooth="yes"/>
      <point x="154" y="-11"/>
      <point x="86" y="30"/>
      <point x="62" y="50" type="curve"/>
      <point x="86" y="117" type="line"/>
      <point x="116" y="95"/>
      <point x="180" y="63"/>
      <point x="246" y="63" type="curve" smooth="yes"/>
      <point x="297" y="63"/>
      <point x="345" y="78"/>
      <point x="345" y="136" type="curve" smooth="yes"/>
      <point x="345" y="180"/>
      <point x="313" y="193"/>
      <point x="235" y="219" type="curve" smooth="yes"/>
      <point x="192" y="234" type="line"/>
      <point x="118" y="260"/>
      <point x="63" y="291"/>
      <point x="63" y="375" type="curve" smooth="yes"/>
      <point x="63" y="474"/>
      <point x="151" y="513"/>
      <point x="243" y="513" type="curve" smooth="yes"/>
      <point x="323" y="513"/>
      <point x="379" y="490"/>
      <point x="410" y="470" type="curve"/>
      <point x="385" y="405" type="line"/>
      <point x="364" y="416"/>
      <point x="310" y="440"/>
      <point x="253" y="440" type="curve" smooth="yes"/>
      <point x="189" y="440"/>
      <point x="152" y="418"/>
      <point x="152" y="377" type="curve" smooth="yes"/>
      <point x="152" y="339"/>
      <point x="171" y="328"/>
      <point x="231" y="307" type="curve" smooth="yes"/>
      <point x="282" y="290" type="line" smooth="yes"/>
      <point x="369" y="259"/>
      <point x="430" y="232"/>
      <point x="430" y="140" type="curve" smooth="yes"/>
      <point x="430" y="29"/>
      <point x="340" y="-11"/>
    </contour>
    <contour>
      <point x="238" y="501" type="move" name="top"/>
    </contour>
  </outline>
</glyph>
<glyph name="t" format="1">
  <advance width="392"/>
  <unicode hex="0074"/>
  <outline>
    <contour>
      <point x="127" y="625" type="move" name="caron.alt"/>
    </contour>
    <contour>
      <point x="160" y="658" type="move" name="top"/>
    </contour>
    <contour>
      <point x="344" y="0" type="line"/>
      <point x="302" y="0" type="line"/>
      <point x="160" y="1"/>
      <point x="117" y="42"/>
      <point x="117" y="173" type="curve" smooth="yes"/>
      <point x="117" y="441" type="line"/>
      <point x="21" y="441" type="line"/>
      <point x="21" y="501" type="line"/>
      <point x="119" y="501" type="line"/>
      <point x="119" y="630" type="line"/>
      <point x="207" y="656" type="line"/>
      <point x="207" y="501" type="line"/>
      <point x="343" y="501" type="line"/>
      <point x="343" y="441" type="line"/>
      <point x="207" y="441" type="line"/>
      <point x="207" y="168" type="line" smooth="yes"/>
      <point x="207" y="82"/>
      <point x="231" y="70"/>
      <point x="344" y="70" type="curve"/>
    </contour>
  </outline>
</glyph>
<glyph name="u" format="1">
  <advance width="602"/>
  <unicode hex="0075"/>
  <outline>
    <contour>
      <point x="271" y="-11" type="curve" smooth="yes"/>
      <point x="138" y="-11"/>
      <point x="78" y="73"/>
      <point x="78" y="191" type="curve" smooth="yes"/>
      <point x="78" y="501" type="line"/>
      <point x="167" y="501" type="line"/>
      <point x="167" y="191" type="line" smooth="yes"/>
      <point x="167" y="104"/>
      <point x="210" y="62"/>
      <point x="286" y="62" type="curve" smooth="yes"/>
      <point x="376" y="62"/>
      <point x="426" y="120"/>
      <point x="426" y="197" type="curve" smooth="yes"/>
      <point x="426" y="501" type="line"/>
      <point x="516" y="501" type="line"/>
      <point x="516" y="124" type="line" smooth="yes"/>
      <point x="516" y="85"/>
      <point x="520" y="19"/>
      <point x="521" y="0" type="curve"/>
      <point x="429" y="0" type="line"/>
      <point x="427" y="81" type="line"/>
      <point x="404" y="38"/>
      <point x="355" y="-11"/>
    </contour>
    <contour>
      <point x="297" y="501" type="move" name="top"/>
    </contour>
  </outline>
</glyph>
<glyph name="v" format="1">
  <advance width="515"/>
  <unicode hex="0076"/>
  <outline>
    <contour>
      <point x="215" y="0" type="line"/>
      <point x="5" y="501" type="line"/>
      <point x="104" y="501" type="line"/>
      <point x="157" y="365"/>
      <point x="211" y="231"/>
      <point x="262" y="93" type="curve"/>
      <point x="309" y="233"/>
      <point x="364" y="365"/>
      <point x="415" y="501" type="curve"/>
      <point x="511" y="501" type="line"/>
      <point x="301" y="0" type="line"/>
    </contour>
  </outline>
</glyph>
<glyph name="w" format="1">
  <advance width="798"/>
  <unicode hex="0077"/>
  <outline>
    <contour>
      <point x="410" y="501" type="move" name="top"/>
    </contour>
    <contour>
      <point x="182" y="0" type="line"/>
      <point x="15" y="501" type="line"/>
      <point x="111" y="501" type="line"/>
      <point x="151" y="369"/>
      <point x="190" y="236"/>
      <point x="231" y="105" type="curve"/>
      <point x="275" y="237"/>
      <point x="320" y="369"/>
      <point x="364" y="501" type="curve"/>
      <point x="452" y="501" type="line"/>
      <point x="581" y="105" type="line"/>
      <point x="620" y="236"/>
      <point x="657" y="369"/>
      <point x="696" y="501" type="curve"/>
      <point x="784" y="501" type="line"/>
      <point x="617" y="0" type="line"/>
      <point x="533" y="0" type="line"/>
      <point x="490" y="131"/>
      <point x="445" y="261"/>
      <point x="403" y="392" type="curve"/>
      <point x="358" y="260"/>
      <point x="312" y="131"/>
      <point x="266" y="0" type="curve"/>
    </contour>
  </outline>
</glyph>
<glyph name="x" format="1">
  <advance width="520"/>
  <unicode hex="0078"/>
  <outline>
    <contour>
      <point x="22" y="0" type="line"/>
      <point x="212" y="250" type="line"/>
      <point x="33" y="501" type="line"/>
      <point x="131" y="501" type="line"/>
      <point x="260" y="315" type="line"/>
      <point x="399" y="501" type="line"/>
      <point x="494" y="501" type="line"/>
      <point x="311" y="256" type="line"/>
      <point x="498" y="0" type="line"/>
      <point x="400" y="0" type="line"/>
      <point x="261" y="191" type="line"/>
      <point x="117" y="0" type="line"/>
    </contour>
  </outline>
</glyph>
<glyph name="y" format="1">
  <advance width="520"/>
  <unicode hex="0079"/>
  <outline>
    <contour>
      <point x="102" y="-211" type="curve"/>
      <point x="65" y="-150" type="line"/>
      <point x="160" y="-118"/>
      <point x="200" y="-69"/>
      <point x="216" y="-21" type="curve" smooth="yes"/>
      <point x="225" y="4" type="line"/>
      <point x="20" y="501" type="line"/>
      <point x="114" y="501" type="line"/>
      <point x="269" y="101" type="line"/>
      <point x="414" y="501" type="line"/>
      <point x="504" y="501" type="line"/>
      <point x="302" y="-26" type="line"/>
      <point x="267" y="-119"/>
      <point x="197" y="-188"/>
    </contour>
    <contour>
      <point x="269" y="501" type="move" name="top"/>
    </contour>
  </outline>
</glyph>
<glyph name="z" format="1">
  <advance width="473"/>
  <unicode hex="007A"/>
  <outline>
    <contour>
      <point x="51" y="0" type="line"/>
      <point x="51" y="49" type="line"/>
      <point x="312" y="428" type="line"/>
      <point x="59" y="428" type="line"/>
      <point x="59" y="501" type="line"/>
      <point x="428" y="501" type="line"/>
      <point x="428" y="453" type="line"/>
      <point x="167" y="72" type="line"/>
      <point x="436" y="72" type="line"/>
      <point x="436" y="0" type="line"/>
    </contour>
    <contour>
      <point x="247" y="501" type="move" name="top"/>
    </contour>
  </outline>
</glyph>
<glyph name="braceleft" format="1">
  <advance width="385"/>
  <unicode hex="007B"/>
  <outline>
    <contour>
      <point x="246" y="552" type="curve" smooth="yes"/>
      <point x="246" y="424" type="line" smooth="yes"/>
      <point x="246" y="360"/>
      <point x="209" y="322"/>
      <point x="161" y="305" type="curve"/>
      <point x="212" y="284"/>
      <point x="246" y="239"/>
      <point x="246" y="173" type="curve" smooth="yes"/>
      <point x="246" y="48" type="line" smooth="yes"/>
      <point x="246" y="-21"/>
      <point x="276" y="-38"/>
      <point x="341" y="-38" type="curve"/>
      <point x="341" y="-108" type="line"/>
      <point x="201" y="-107"/>
      <point x="155" y="-50"/>
      <point x="155" y="41" type="curve" smooth="yes"/>
      <point x="155" y="161" type="line" smooth="yes"/>
      <point x="155" y="232"/>
      <point x="132" y="270"/>
      <point x="62" y="276" type="curve"/>
      <point x="62" y="337" type="line"/>
      <point x="127" y="342"/>
      <point x="155" y="378"/>
      <point x="155" y="444" type="curve"/>
      <point x="155" y="564" type="line" smooth="yes"/>
      <point x="155" y="652"/>
      <point x="194" y="720"/>
      <point x="342" y="720" type="curve"/>
      <point x="342" y="650" type="line"/>
      <point x="266" y="650"/>
      <point x="246" y="616"/>
    </contour>
  </outline>
</glyph>
<glyph name="bar" format="1">
  <advance width="463"/>
  <unicode hex="007C"/>
  <outline>
    <contour>
      <point x="189" y="-235" type="line"/>
      <point x="189" y="750" type="line"/>
      <point x="275" y="750" type="line"/>
      <point x="275" y="-235" type="line"/>
    </contour>
  </outline>
</glyph>
<glyph name="braceright" format="1">
  <advance width="384"/>
  <unicode hex="007D"/>
  <outline>
    <contour>
      <point x="52" y="-108" type="curve"/>
      <point x="52" y="-38" type="line"/>
      <point x="128" y="-38"/>
      <point x="148" y="-3"/>
      <point x="148" y="61" type="curve" smooth="yes"/>
      <point x="148" y="189" type="line" smooth="yes"/>
      <point x="148" y="253"/>
      <point x="186" y="291"/>
      <point x="234" y="308" type="curve"/>
      <point x="183" y="329"/>
      <point x="148" y="374"/>
      <point x="148" y="440" type="curve" smooth="yes"/>
      <point x="148" y="565" type="line" smooth="yes"/>
      <point x="148" y="634"/>
      <point x="118" y="651"/>
      <point x="53" y="651" type="curve"/>
      <point x="53" y="720" type="line"/>
      <point x="193" y="719"/>
      <point x="239" y="663"/>
      <point x="239" y="572" type="curve" smooth="yes"/>
      <point x="239" y="452" type="line" smooth="yes"/>
      <point x="239" y="381"/>
      <point x="263" y="343"/>
      <point x="333" y="337" type="curve"/>
      <point x="333" y="275" type="line"/>
      <point x="268" y="270"/>
      <point x="239" y="234"/>
      <point x="239" y="168" type="curve"/>
      <point x="239" y="49" type="line" smooth="yes"/>
      <point x="239" y="-39"/>
      <point x="201" y="-108"/>
    </contour>
  </outline>
</glyph>
<glyph name="asciitilde" format="1">
  <advance width="611"/>
  <unicode hex="007E"/>
  <outline>
    <contour>
      <point x="128" y="182" type="curve"/>
      <point x="62" y="213" type="line"/>
      <point x="77" y="283"/>
      <point x="123" y="337"/>
      <point x="206" y="337" type="curve" smooth="yes"/>
      <point x="245" y="337"/>
      <point x="291" y="318"/>
      <point x="333" y="301" type="curve" smooth="yes"/>
      <point x="362" y="290"/>
      <point x="405" y="271"/>
      <point x="426" y="271" type="curve" smooth="yes"/>
      <point x="465" y="271"/>
      <point x="491" y="313"/>
      <point x="501" y="357" type="curve"/>
      <point x="573" y="335" type="line"/>
      <point x="555" y="254"/>
      <point x="506" y="196"/>
      <point x="426" y="196" type="curve" smooth="yes"/>
      <point x="396" y="196"/>
      <point x="355" y="212"/>
      <point x="315" y="230" type="curve" smooth="yes"/>
      <point x="287" y="241"/>
      <point x="236" y="264"/>
      <point x="208" y="264" type="curve" smooth="yes"/>
      <point x="161" y="264"/>
      <point x="139" y="228"/>
    </contour>
  </outline>
</glyph>
<glyph name="exclamdown" format="1">
  <advance width="279"/>
  <unicode hex="00A1"/>
  <outline>
    <contour>
      <point x="95" y="557" type="line"/>
      <point x="186" y="557" type="line"/>
      <point x="186" y="449" type="line"/>
      <point x="95" y="449" type="line"/>
    </contour>
    <contour>
      <point x="113" y="373" type="line"/>
      <point x="166" y="373" type="line"/>
      <point x="193" y="-154" type="line"/>
      <point x="86" y="-154" type="line"/>
    </contour>
  </outline>
</glyph>
<glyph name="cent" format="1">
  <advance width="502"/>
  <unicode hex="00A2"/>
  <outline>
    <contour>
      <point x="327" y="-10" type="curve"/>
      <point x="327" y="-104" type="line"/>
      <point x="286" y="-104" type="line"/>
      <point x="286" y="-10" type="line"/>
      <point x="140" y="-2"/>
      <point x="49" y="105"/>
      <point x="49" y="248" type="curve" smooth="yes"/>
      <point x="49" y="399"/>
      <point x="142" y="504"/>
      <point x="286" y="513" type="curve"/>
      <point x="286" y="611" type="line"/>
      <point x="327" y="611" type="line"/>
      <point x="327" y="513" type="line"/>
      <point x="386" y="509"/>
      <point x="437" y="489"/>
      <point x="472" y="454" type="curve"/>
      <point x="440" y="395" type="line"/>
      <point x="412" y="419"/>
      <point x="374" y="437"/>
      <point x="327" y="440" type="curve"/>
      <point x="327" y="63" type="line"/>
      <point x="379" y="67"/>
      <point x="421" y="88"/>
      <point x="448" y="109" type="curve"/>
      <point x="477" y="44" type="line"/>
      <point x="436" y="12"/>
      <point x="386" y="-6"/>
    </contour>
    <contour>
      <point x="286" y="64" type="curve"/>
      <point x="286" y="438" type="line"/>
      <point x="201" y="427"/>
      <point x="142" y="362"/>
      <point x="142" y="248" type="curve" smooth="yes"/>
      <point x="142" y="144"/>
      <point x="197" y="75"/>
    </contour>
  </outline>
</glyph>
<glyph name="sterling" format="1">
  <advance width="587"/>
  <unicode hex="00A3"/>
  <outline>
    <contour>
      <point x="391" y="646" type="curve" smooth="yes"/>
      <point x="293" y="646"/>
      <point x="256" y="588"/>
      <point x="256" y="479" type="curve" smooth="yes"/>
      <point x="256" y="400" type="line"/>
      <point x="434" y="400" type="line"/>
      <point x="434" y="340" type="line"/>
      <point x="257" y="340" type="line"/>
      <point x="257" y="288" type="line" smooth="yes"/>
      <point x="257" y="178"/>
      <point x="214" y="105"/>
      <point x="188" y="77" type="curve"/>
      <point x="509" y="77" type="line"/>
      <point x="509" y="0" type="line"/>
      <point x="76" y="0" type="line"/>
      <point x="76" y="73" type="line"/>
      <point x="128" y="112"/>
      <point x="165" y="186"/>
      <point x="165" y="289" type="curve" smooth="yes"/>
      <point x="165" y="340" type="line"/>
      <point x="72" y="340" type="line"/>
      <point x="72" y="400" type="line"/>
      <point x="164" y="400" type="line"/>
      <point x="164" y="458" type="line" smooth="yes"/>
      <point x="164" y="606"/>
      <point x="209" y="723"/>
      <point x="382" y="723" type="curve" smooth="yes"/>
      <point x="449" y="723"/>
      <point x="489" y="707"/>
      <point x="517" y="686" type="curve"/>
      <point x="492" y="618" type="line"/>
      <point x="471" y="631"/>
      <point x="438" y="646"/>
    </contour>
  </outline>
</glyph>
<glyph name="currency" format="1">
  <advance width="594"/>
  <unicode hex="00A4"/>
  <outline>
    <contour>
      <point x="297" y="348" type="curve" smooth="yes"/>
      <point x="382" y="348"/>
      <point x="445" y="415"/>
      <point x="445" y="500" type="curve" smooth="yes"/>
      <point x="445" y="585"/>
      <point x="382" y="651"/>
      <point x="297" y="651" type="curve" smooth="yes"/>
      <point x="212" y="651"/>
      <point x="150" y="585"/>
      <point x="150" y="500" type="curve" smooth="yes"/>
      <point x="150" y="415"/>
      <point x="212" y="348"/>
    </contour>
    <contour>
      <point x="83" y="266" type="line"/>
      <point x="59" y="291" type="line"/>
      <point x="150" y="382" type="line"/>
      <point x="123" y="414"/>
      <point x="107" y="456"/>
      <point x="107" y="501" type="curve" smooth="yes"/>
      <point x="107" y="548"/>
      <point x="124" y="591"/>
      <point x="153" y="624" type="curve"/>
      <point x="58" y="719" type="line"/>
      <point x="83" y="744" type="line"/>
      <point x="179" y="648" type="line"/>
      <point x="211" y="673"/>
      <point x="253" y="689"/>
      <point x="298" y="689" type="curve" smooth="yes"/>
      <point x="343" y="689"/>
      <point x="384" y="674"/>
      <point x="417" y="649" type="curve"/>
      <point x="512" y="744" type="line"/>
      <point x="537" y="719" type="line"/>
      <point x="442" y="625" type="line"/>
      <point x="471" y="592"/>
      <point x="489" y="549"/>
      <point x="489" y="501" type="curve" smooth="yes"/>
      <point x="489" y="456"/>
      <point x="473" y="414"/>
      <point x="446" y="381" type="curve"/>
      <point x="537" y="291" type="line"/>
      <point x="512" y="266" type="line"/>
      <point x="421" y="357" type="line"/>
      <point x="388" y="330"/>
      <point x="345" y="313"/>
      <point x="298" y="313" type="curve" smooth="yes"/>
      <point x="251" y="313"/>
      <point x="208" y="329"/>
      <point x="175" y="357" type="curve"/>
    </contour>
  </outline>
</glyph>
<glyph name="yen" format="1">
  <advance width="596"/>
  <unicode hex="00A5"/>
  <outline>
    <contour>
      <point x="87" y="137" type="line"/>
      <point x="87" y="194" type="line"/>
      <point x="249" y="194" type="line"/>
      <point x="249" y="272" type="line"/>
      <point x="87" y="272" type="line"/>
      <point x="87" y="331" type="line"/>
      <point x="220" y="331" type="line"/>
      <point x="4" y="711" type="line"/>
      <point x="107" y="711" type="line"/>
      <point x="297" y="363" type="line"/>
      <point x="488" y="711" type="line"/>
      <point x="592" y="711" type="line"/>
      <point x="371" y="331" type="line"/>
      <point x="504" y="331" type="line"/>
      <point x="504" y="272" type="line"/>
      <point x="342" y="272" type="line"/>
      <point x="342" y="194" type="line"/>
      <point x="504" y="194" type="line"/>
      <point x="504" y="137" type="line"/>
      <point x="342" y="137" type="line"/>
      <point x="342" y="0" type="line"/>
      <point x="249" y="0" type="line"/>
      <point x="249" y="137" type="line"/>
    </contour>
  </outline>
</glyph>
<glyph name="brokenbar" format="1">
  <advance width="244"/>
  <unicode hex="00A6"/>
  <outline>
    <contour>
      <point x="96" y="316" type="line"/>
      <point x="96" y="750" type="line"/>
      <point x="174" y="750" type="line"/>
      <point x="174" y="316" type="line"/>
    </contour>
    <contour>
      <point x="97" y="-235" type="line"/>
      <point x="97" y="195" type="line"/>
      <point x="175" y="195" type="line"/>
      <point x="175" y="-235" type="line"/>
    </contour>
  </outline>
</glyph>
<glyph name="section" format="1">
  <advance width="521"/>
  <unicode hex="00A7"/>
  <outline>
    <contour>
      <point x="298" y="259" type="curve"/>
      <point x="326" y="277"/>
      <point x="353" y="307"/>
      <point x="353" y="342" type="curve" smooth="yes"/>
      <point x="353" y="389"/>
      <point x="307" y="406"/>
      <point x="248" y="434" type="curve"/>
      <point x="217" y="420"/>
      <point x="177" y="391"/>
      <point x="177" y="355" type="curve" smooth="yes"/>
      <point x="177" y="312"/>
      <point x="225" y="291"/>
    </contour>
    <contour>
      <point x="248" y="-37" type="curve" smooth="yes"/>
      <point x="200" y="-37"/>
      <point x="146" y="-27"/>
      <point x="100" y="-9" type="curve"/>
      <point x="100" y="64" type="line"/>
      <point x="153" y="42"/>
      <point x="202" y="32"/>
      <point x="242" y="32" type="curve" smooth="yes"/>
      <point x="308" y="32"/>
      <point x="351" y="60"/>
      <point x="351" y="110" type="curve" smooth="yes"/>
      <point x="351" y="150"/>
      <point x="302" y="169"/>
      <point x="201" y="217" type="curve" smooth="yes"/>
      <point x="133" y="249"/>
      <point x="92" y="287"/>
      <point x="92" y="349" type="curve" smooth="yes"/>
      <point x="92" y="401"/>
      <point x="137" y="447"/>
      <point x="188" y="468" type="curve"/>
      <point x="138" y="500"/>
      <point x="104" y="530"/>
      <point x="104" y="586" type="curve" smooth="yes"/>
      <point x="104" y="681"/>
      <point x="190" y="726"/>
      <point x="289" y="726" type="curve" smooth="yes"/>
      <point x="331" y="726"/>
      <point x="372" y="720"/>
      <point x="412" y="706" type="curve"/>
      <point x="412" y="640" type="line"/>
      <point x="378" y="653"/>
      <point x="338" y="660"/>
      <point x="302" y="660" type="curve" smooth="yes"/>
      <point x="243" y="660"/>
      <point x="192" y="640"/>
      <point x="192" y="590" type="curve" smooth="yes"/>
      <point x="192" y="554"/>
      <point x="226" y="529"/>
      <point x="306" y="492" type="curve" smooth="yes"/>
      <point x="385" y="454"/>
      <point x="444" y="422"/>
      <point x="444" y="352" type="curve" smooth="yes"/>
      <point x="444" y="300"/>
      <point x="403" y="256"/>
      <point x="357" y="227" type="curve"/>
      <point x="404" y="202"/>
      <point x="439" y="168"/>
      <point x="439" y="113" type="curve" smooth="yes"/>
      <point x="439" y="12"/>
      <point x="353" y="-37"/>
    </contour>
  </outline>
</glyph>
<glyph name="dieresis" format="1">
  <advance width="362"/>
  <unicode hex="00A8"/>
  <outline>
    <contour>
      <point x="181" y="501" type="move" name="_top"/>
    </contour>
    <contour>
      <point x="234" y="577" type="line"/>
      <point x="234" y="669" type="line"/>
      <point x="325" y="669" type="line"/>
      <point x="325" y="577" type="line"/>
    </contour>
    <contour>
      <point x="38" y="577" type="line"/>
      <point x="38" y="669" type="line"/>
      <point x="129" y="669" type="line"/>
      <point x="129" y="577" type="line"/>
    </contour>
  </outline>
</glyph>
<glyph name="copyright" format="1">
  <advance width="843"/>
  <unicode hex="00A9"/>
  <outline>
    <contour>
      <point x="421" y="-12" type="curve" smooth="yes"/>
      <point x="218" y="-12"/>
      <point x="53" y="152"/>
      <point x="53" y="355" type="curve" smooth="yes"/>
      <point x="53" y="558"/>
      <point x="218" y="724"/>
      <point x="421" y="724" type="curve" smooth="yes"/>
      <point x="625" y="724"/>
      <point x="792" y="558"/>
      <point x="792" y="355" type="curve" smooth="yes"/>
      <point x="792" y="152"/>
      <point x="625" y="-12"/>
    </contour>
    <contour>
      <point x="422" y="37" type="curve" smooth="yes"/>
      <point x="594" y="37"/>
      <point x="734" y="181"/>
      <point x="734" y="354" type="curve" smooth="yes"/>
      <point x="734" y="527"/>
      <point x="594" y="674"/>
      <point x="422" y="674" type="curve" smooth="yes"/>
      <point x="249" y="674"/>
      <point x="110" y="527"/>
      <point x="110" y="354" type="curve" smooth="yes"/>
      <point x="110" y="181"/>
      <point x="249" y="37"/>
    </contour>
    <contour>
      <point x="433" y="140" type="curve" smooth="yes"/>
      <point x="313" y="140"/>
      <point x="221" y="225"/>
      <point x="221" y="351" type="curve" smooth="yes"/>
      <point x="221" y="485"/>
      <point x="308" y="573"/>
      <point x="434" y="573" type="curve" smooth="yes"/>
      <point x="488" y="573"/>
      <point x="536" y="555"/>
      <point x="568" y="523" type="curve"/>
      <point x="542" y="474" type="line"/>
      <point x="517" y="495"/>
      <point x="479" y="511"/>
      <point x="438" y="511" type="curve" smooth="yes"/>
      <point x="364" y="511"/>
      <point x="298" y="463"/>
      <point x="298" y="351" type="curve" smooth="yes"/>
      <point x="298" y="254"/>
      <point x="357" y="201"/>
      <point x="436" y="201" type="curve" smooth="yes"/>
      <point x="478" y="201"/>
      <point x="519" y="216"/>
      <point x="549" y="239" type="curve"/>
      <point x="573" y="186" type="line"/>
      <point x="533" y="156"/>
      <point x="486" y="140"/>
    </contour>
  </outline>
</glyph>
<glyph name="ordfeminine" format="1">
  <advance width="386"/>
  <unicode hex="00AA"/>
  <outline>
    <contour>
      <point x="170" y="423" type="curve" smooth="yes"/>
      <point x="228" y="423"/>
      <point x="267" y="463"/>
      <point x="267" y="521" type="curve" smooth="yes"/>
      <point x="267" y="532" type="line"/>
      <point x="160" y="532"/>
      <point x="112" y="532"/>
      <point x="112" y="476" type="curve" smooth="yes"/>
      <point x="112" y="442"/>
      <point x="136" y="423"/>
    </contour>
    <contour>
      <point x="163" y="371" type="curve" smooth="yes"/>
      <point x="96" y="371"/>
      <point x="44" y="410"/>
      <point x="44" y="473" type="curve" smooth="yes"/>
      <point x="44" y="536"/>
      <point x="90" y="575"/>
      <point x="182" y="575" type="curve" smooth="yes"/>
      <point x="267" y="575" type="line"/>
      <point x="267" y="593" type="line" smooth="yes"/>
      <point x="267" y="647"/>
      <point x="246" y="667"/>
      <point x="197" y="667" type="curve" smooth="yes"/>
      <point x="139" y="667"/>
      <point x="83" y="641"/>
      <point x="83" y="641" type="curve"/>
      <point x="62" y="690" type="line"/>
      <point x="62" y="690"/>
      <point x="121" y="723"/>
      <point x="202" y="723" type="curve" smooth="yes"/>
      <point x="276" y="723"/>
      <point x="338" y="690"/>
      <point x="339" y="600" type="curve" smooth="yes"/>
      <point x="339" y="596"/>
      <point x="338" y="448"/>
      <point x="338" y="448" type="curve" smooth="yes"/>
      <point x="338" y="428"/>
      <point x="340" y="414"/>
      <point x="342" y="382" type="curve"/>
      <point x="273" y="382" type="line"/>
      <point x="269" y="429" type="line"/>
      <point x="253" y="398"/>
      <point x="215" y="371"/>
    </contour>
  </outline>
</glyph>
<glyph name="guillemotleft" format="1">
  <advance width="545"/>
  <unicode hex="00AB"/>
  <outline>
    <contour>
      <point x="406" y="83" type="line"/>
      <point x="274" y="265" type="line"/>
      <point x="409" y="448" type="line"/>
      <point x="489" y="448" type="line"/>
      <point x="367" y="265" type="line"/>
      <point x="485" y="83" type="line"/>
    </contour>
    <contour>
      <point x="197" y="83" type="line"/>
      <point x="64" y="265" type="line"/>
      <point x="199" y="448" type="line"/>
      <point x="278" y="448" type="line"/>
      <point x="158" y="265" type="line"/>
      <point x="274" y="83" type="line"/>
    </contour>
  </outline>
</glyph>
<glyph name="logicalnot" format="1">
  <advance width="714"/>
  <unicode hex="00AC"/>
  <outline>
    <contour>
      <point x="527" y="114" type="line"/>
      <point x="527" y="315" type="line"/>
      <point x="96" y="315" type="line"/>
      <point x="96" y="392" type="line"/>
      <point x="610" y="392" type="line"/>
      <point x="610" y="114" type="line"/>
    </contour>
  </outline>
</glyph>
<glyph name="uni00AD" format="1">
  <advance width="331"/>
  <unicode hex="00AD"/>
  <outline>
    <contour>
      <point x="30" y="238" type="line"/>
      <point x="30" y="307" type="line"/>
      <point x="301" y="307" type="line"/>
      <point x="301" y="238" type="line"/>
    </contour>
  </outline>
</glyph>
<glyph name="registered" format="1">
  <advance width="843"/>
  <unicode hex="00AE"/>
  <outline>
    <contour>
      <point x="421" y="-12" type="curve" smooth="yes"/>
      <point x="218" y="-12"/>
      <point x="53" y="152"/>
      <point x="53" y="355" type="curve" smooth="yes"/>
      <point x="53" y="558"/>
      <point x="218" y="724"/>
      <point x="421" y="724" type="curve" smooth="yes"/>
      <point x="625" y="724"/>
      <point x="792" y="558"/>
      <point x="792" y="355" type="curve" smooth="yes"/>
      <point x="792" y="152"/>
      <point x="625" y="-12"/>
    </contour>
    <contour>
      <point x="422" y="37" type="curve" smooth="yes"/>
      <point x="594" y="37"/>
      <point x="734" y="181"/>
      <point x="734" y="354" type="curve" smooth="yes"/>
      <point x="734" y="527"/>
      <point x="594" y="674"/>
      <point x="422" y="674" type="curve" smooth="yes"/>
      <point x="249" y="674"/>
      <point x="110" y="527"/>
      <point x="110" y="354" type="curve" smooth="yes"/>
      <point x="110" y="181"/>
      <point x="249" y="37"/>
    </contour>
    <contour>
      <point x="345" y="379" type="line"/>
      <point x="402" y="379" type="line" smooth="yes"/>
      <point x="480" y="379"/>
      <point x="519" y="391"/>
      <point x="519" y="446" type="curve" smooth="yes"/>
      <point x="519" y="507"/>
      <point x="495" y="515"/>
      <point x="401" y="515" type="curve" smooth="yes"/>
      <point x="345" y="515" type="line"/>
    </contour>
    <contour>
      <point x="266" y="136" type="line"/>
      <point x="266" y="580" type="line"/>
      <point x="404" y="580" type="line" smooth="yes"/>
      <point x="546" y="580"/>
      <point x="602" y="534"/>
      <point x="602" y="453" type="curve" smooth="yes"/>
      <point x="602" y="396"/>
      <point x="581" y="350"/>
      <point x="500" y="333" type="curve"/>
      <point x="603" y="136" type="line"/>
      <point x="513" y="136" type="line"/>
      <point x="423" y="322" type="line"/>
      <point x="346" y="322" type="line"/>
      <point x="346" y="136" type="line"/>
    </contour>
  </outline>
</glyph>
<glyph name="macron" format="1">
  <advance width="351"/>
  <unicode hex="00AF"/>
  <outline>
    <contour>
      <point x="33" y="606" type="line"/>
      <point x="33" y="667" type="line"/>
      <point x="318" y="667" type="line"/>
      <point x="318" y="606" type="line"/>
    </contour>
    <contour>
      <point x="167" y="501" type="move" name="_top"/>
    </contour>
  </outline>
</glyph>
<glyph name="degree" format="1">
  <advance width="416"/>
  <unicode hex="00B0"/>
  <outline>
    <contour>
      <point x="208" y="417" type="curve" smooth="yes"/>
      <point x="124" y="417"/>
      <point x="60" y="482"/>
      <point x="60" y="562" type="curve" smooth="yes"/>
      <point x="60" y="643"/>
      <point x="124" y="708"/>
      <point x="208" y="708" type="curve" smooth="yes"/>
      <point x="292" y="708"/>
      <point x="357" y="643"/>
      <point x="357" y="562" type="curve" smooth="yes"/>
      <point x="357" y="482"/>
      <point x="292" y="417"/>
    </contour>
    <contour>
      <point x="208" y="473" type="curve" smooth="yes"/>
      <point x="263" y="473"/>
      <point x="296" y="514"/>
      <point x="296" y="563" type="curve" smooth="yes"/>
      <point x="296" y="612"/>
      <point x="262" y="652"/>
      <point x="208" y="652" type="curve" smooth="yes"/>
      <point x="154" y="652"/>
      <point x="121" y="612"/>
      <point x="121" y="563" type="curve" smooth="yes"/>
      <point x="121" y="514"/>
      <point x="153" y="473"/>
    </contour>
  </outline>
</glyph>
<glyph name="plusminus" format="1">
  <advance width="601"/>
  <unicode hex="00B1"/>
  <outline>
    <contour>
      <point x="90" y="0" type="line"/>
      <point x="90" y="64" type="line"/>
      <point x="516" y="64" type="line"/>
      <point x="516" y="0" type="line"/>
    </contour>
    <contour>
      <point x="260" y="125" type="line"/>
      <point x="260" y="290" type="line"/>
      <point x="95" y="290" type="line"/>
      <point x="95" y="366" type="line"/>
      <point x="259" y="366" type="line"/>
      <point x="259" y="532" type="line"/>
      <point x="342" y="532" type="line"/>
      <point x="342" y="366" type="line"/>
      <point x="505" y="366" type="line"/>
      <point x="505" y="290" type="line"/>
      <point x="344" y="290" type="line"/>
      <point x="344" y="125" type="line"/>
    </contour>
  </outline>
</glyph>
<glyph name="twosuperior" format="1">
  <advance width="543"/>
  <unicode hex="00B2"/>
  <outline>
    <contour>
      <point x="151" y="302" type="line"/>
      <point x="151" y="351" type="line"/>
      <point x="285" y="481" type="line" smooth="yes"/>
      <point x="335" y="529"/>
      <point x="354" y="565"/>
      <point x="354" y="598" type="curve" smooth="yes"/>
      <point x="354" y="631"/>
      <point x="330" y="652"/>
      <point x="287" y="652" type="curve" smooth="yes"/>
      <point x="248" y="652"/>
      <point x="212" y="632"/>
      <point x="191" y="592" type="curve"/>
      <point x="153" y="632" type="line"/>
      <point x="178" y="682"/>
      <point x="230" y="711"/>
      <point x="291" y="711" type="curve" smooth="yes"/>
      <point x="367" y="711"/>
      <point x="421" y="669"/>
      <point x="421" y="599" type="curve" smooth="yes"/>
      <point x="421" y="543"/>
      <point x="383" y="493"/>
      <point x="323" y="437" type="curve" smooth="yes"/>
      <point x="236" y="355" type="line"/>
      <point x="419" y="355" type="line"/>
      <point x="419" y="302" type="line"/>
    </contour>
  </outline>
</glyph>
<glyph name="uni00B3" format="1">
  <advance width="519"/>
  <unicode hex="00B3"/>
  <outline>
    <contour>
      <point x="264" y="293" type="curve" smooth="yes"/>
      <point x="216" y="293"/>
      <point x="167" y="310"/>
      <point x="134" y="340" type="curve"/>
      <point x="162" y="387" type="line"/>
      <point x="192" y="362"/>
      <point x="229" y="349"/>
      <point x="260" y="349" type="curve" smooth="yes"/>
      <point x="306" y="349"/>
      <point x="338" y="375"/>
      <point x="338" y="417" type="curve" smooth="yes"/>
      <point x="338" y="460"/>
      <point x="303" y="483"/>
      <point x="242" y="483" type="curve" smooth="yes"/>
      <point x="206" y="483" type="line"/>
      <point x="206" y="538" type="line"/>
      <point x="239" y="538" type="line" smooth="yes"/>
      <point x="292" y="538"/>
      <point x="327" y="557"/>
      <point x="327" y="597" type="curve" smooth="yes"/>
      <point x="327" y="636"/>
      <point x="301" y="655"/>
      <point x="260" y="655" type="curve" smooth="yes"/>
      <point x="226" y="655"/>
      <point x="190" y="642"/>
      <point x="161" y="618" type="curve"/>
      <point x="134" y="663" type="line"/>
      <point x="166" y="693"/>
      <point x="216" y="711"/>
      <point x="264" y="711" type="curve" smooth="yes"/>
      <point x="335" y="711"/>
      <point x="393" y="672"/>
      <point x="393" y="601" type="curve" smooth="yes"/>
      <point x="393" y="564"/>
      <point x="374" y="527"/>
      <point x="320" y="513" type="curve"/>
      <point x="376" y="499"/>
      <point x="403" y="461"/>
      <point x="403" y="416" type="curve" smooth="yes"/>
      <point x="403" y="338"/>
      <point x="342" y="293"/>
    </contour>
  </outline>
</glyph>
<glyph name="acute" format="1">
  <advance width="296"/>
  <unicode hex="00B4"/>
  <outline>
    <contour>
      <point x="69" y="501" type="move" name="_top"/>
    </contour>
    <contour>
      <point x="36" y="572" type="line"/>
      <point x="151" y="748" type="line"/>
      <point x="267" y="748" type="line"/>
      <point x="111" y="572" type="line"/>
    </contour>
  </outline>
</glyph>
<glyph name="paragraph" format="1">
  <advance width="590"/>
  <unicode hex="00B6"/>
  <outline>
    <contour>
      <point x="236" y="-87" type="line"/>
      <point x="236" y="397" type="line"/>
      <point x="143" y="399"/>
      <point x="63" y="453"/>
      <point x="63" y="553" type="curve" smooth="yes"/>
      <point x="63" y="677"/>
      <point x="156" y="711"/>
      <point x="292" y="711" type="curve" smooth="yes"/>
      <point x="512" y="711" type="line"/>
      <point x="512" y="642" type="line"/>
      <point x="461" y="642" type="line"/>
      <point x="461" y="-87" type="line"/>
      <point x="396" y="-87" type="line"/>
      <point x="396" y="642" type="line"/>
      <point x="302" y="642" type="line"/>
      <point x="302" y="-87" type="line"/>
    </contour>
  </outline>
</glyph>
<glyph name="periodcentered" format="1">
  <advance width="248"/>
  <unicode hex="00B7"/>
  <outline>
    <contour>
      <point x="138" y="252" type="line"/>
      <point x="138" y="350" type="line"/>
      <point x="235" y="350" type="line"/>
      <point x="235" y="252" type="line"/>
    </contour>
  </outline>
</glyph>
<glyph name="cedilla" format="1">
  <advance width="258"/>
  <unicode hex="00B8"/>
  <outline>
    <contour>
      <point x="108" y="-218" type="line" smooth="yes"/>
      <point x="76" y="-218"/>
      <point x="38" y="-210"/>
      <point x="22" y="-205" type="curve"/>
      <point x="28" y="-157" type="line"/>
      <point x="40" y="-162"/>
      <point x="76" y="-170"/>
      <point x="104" y="-170" type="curve" smooth="yes"/>
      <point x="105" y="-170" type="line" smooth="yes"/>
      <point x="138" y="-170"/>
      <point x="158" y="-157"/>
      <point x="158" y="-134" type="curve" smooth="yes"/>
      <point x="158" y="-115"/>
      <point x="139" y="-91"/>
      <point x="80" y="-91" type="curve" smooth="yes"/>
      <point x="69" y="-91" type="line"/>
      <point x="84" y="4" type="line"/>
      <point x="132" y="4" type="line"/>
      <point x="122" y="-58" type="line"/>
      <point x="189" y="-64"/>
      <point x="233" y="-92"/>
      <point x="233" y="-136" type="curve" smooth="yes"/>
      <point x="233" y="-190"/>
      <point x="179" y="-218"/>
      <point x="110" y="-218" type="curve" smooth="yes"/>
    </contour>
  </outline>
</glyph>
<glyph name="onesuperior" format="1">
  <advance width="515"/>
  <unicode hex="00B9"/>
  <outline>
    <contour>
      <point x="160" y="302" type="line"/>
      <point x="160" y="359" type="line"/>
      <point x="233" y="359" type="line"/>
      <point x="233" y="630" type="line"/>
      <point x="222" y="624"/>
      <point x="164" y="603"/>
      <point x="151" y="598" type="curve"/>
      <point x="151" y="660" type="line"/>
      <point x="169" y="666"/>
      <point x="231" y="693"/>
      <point x="243" y="700" type="curve"/>
      <point x="297" y="704" type="line"/>
      <point x="297" y="358" type="line"/>
      <point x="365" y="358" type="line"/>
      <point x="365" y="302" type="line"/>
    </contour>
  </outline>
</glyph>
<glyph name="ordmasculine" format="1">
  <advance width="432"/>
  <unicode hex="00BA"/>
  <outline>
    <contour>
      <point x="218" y="367" type="curve" smooth="yes"/>
      <point x="99" y="367"/>
      <point x="38" y="443"/>
      <point x="38" y="542" type="curve" smooth="yes"/>
      <point x="38" y="639"/>
      <point x="103" y="716"/>
      <point x="217" y="716" type="curve" smooth="yes"/>
      <point x="333" y="716"/>
      <point x="396" y="639"/>
      <point x="396" y="541" type="curve" smooth="yes"/>
      <point x="396" y="446"/>
      <point x="332" y="367"/>
    </contour>
    <contour>
      <point x="218" y="429" type="curve" smooth="yes"/>
      <point x="281" y="429"/>
      <point x="321" y="473"/>
      <point x="321" y="540" type="curve" smooth="yes"/>
      <point x="321" y="610"/>
      <point x="281" y="652"/>
      <point x="217" y="652" type="curve" smooth="yes"/>
      <point x="155" y="652"/>
      <point x="114" y="610"/>
      <point x="114" y="542" type="curve" smooth="yes"/>
      <point x="114" y="472"/>
      <point x="151" y="429"/>
    </contour>
  </outline>
</glyph>
<glyph name="guillemotright" format="1">
  <advance width="545"/>
  <unicode hex="00BB"/>
  <outline>
    <contour>
      <point x="276" y="82" type="line"/>
      <point x="396" y="265" type="line"/>
      <point x="280" y="447" type="line"/>
      <point x="357" y="447" type="line"/>
      <point x="490" y="265" type="line"/>
      <point x="355" y="82" type="line"/>
    </contour>
    <contour>
      <point x="66" y="82" type="line"/>
      <point x="187" y="265" type="line"/>
      <point x="70" y="447" type="line"/>
      <point x="148" y="447" type="line"/>
      <point x="280" y="265" type="line"/>
      <point x="145" y="82" type="line"/>
    </contour>
  </outline>
</glyph>
<glyph name="onequarter" format="1">
  <advance width="961"/>
  <unicode hex="00BC"/>
  <outline>
    <contour>
      <point x="624" y="146" type="line"/>
      <point x="743" y="146" type="line"/>
      <point x="743" y="314" type="line"/>
    </contour>
    <contour>
      <point x="240" y="0" type="line"/>
      <point x="681" y="711" type="line"/>
      <point x="758" y="711" type="line"/>
      <point x="319" y="0" type="line"/>
    </contour>
    <contour>
      <point x="744" y="0" type="line"/>
      <point x="744" y="93" type="line"/>
      <point x="560" y="93" type="line"/>
      <point x="560" y="139" type="line"/>
      <point x="740" y="391" type="line"/>
      <point x="811" y="391" type="line"/>
      <point x="811" y="146" type="line"/>
      <point x="865" y="146" type="line"/>
      <point x="865" y="93" type="line"/>
      <point x="810" y="93" type="line"/>
      <point x="810" y="0" type="line"/>
    </contour>
    <contour>
      <point x="104" y="308" type="line"/>
      <point x="104" y="363" type="line"/>
      <point x="185" y="363" type="line"/>
      <point x="185" y="643" type="line"/>
      <point x="96" y="612" type="line"/>
      <point x="97" y="669" type="line"/>
      <point x="109" y="672"/>
      <point x="188" y="706"/>
      <point x="196" y="711" type="curve"/>
      <point x="254" y="711" type="line"/>
      <point x="254" y="362" type="line"/>
      <point x="327" y="362" type="line"/>
      <point x="327" y="308" type="line"/>
    </contour>
  </outline>
</glyph>
<glyph name="onehalf" format="1">
  <advance width="1038"/>
  <unicode hex="00BD"/>
  <outline>
    <contour>
      <point x="103" y="308" type="line"/>
      <point x="103" y="363" type="line"/>
      <point x="184" y="363" type="line"/>
      <point x="184" y="643" type="line"/>
      <point x="96" y="612" type="line"/>
      <point x="96" y="669" type="line"/>
      <point x="108" y="672"/>
      <point x="188" y="706"/>
      <point x="196" y="711" type="curve"/>
      <point x="253" y="711" type="line"/>
      <point x="253" y="362" type="line"/>
      <point x="327" y="362" type="line"/>
      <point x="327" y="308" type="line"/>
    </contour>
    <contour>
      <point x="225" y="0" type="line"/>
      <point x="666" y="711" type="line"/>
      <point x="743" y="711" type="line"/>
      <point x="304" y="0" type="line"/>
    </contour>
    <contour>
      <point x="768" y="410" type="curve" smooth="yes"/>
      <point x="846" y="410"/>
      <point x="901" y="366"/>
      <point x="901" y="289" type="curve" smooth="yes"/>
      <point x="901" y="223"/>
      <point x="864" y="188"/>
      <point x="801" y="133" type="curve"/>
      <point x="720" y="61" type="line"/>
      <point x="899" y="61" type="line"/>
      <point x="899" y="0" type="line"/>
      <point x="626" y="0" type="line"/>
      <point x="626" y="62" type="line"/>
      <point x="759" y="184" type="line" smooth="yes"/>
      <point x="810" y="231"/>
      <point x="828" y="255"/>
      <point x="828" y="288" type="curve" smooth="yes"/>
      <point x="828" y="325"/>
      <point x="808" y="349"/>
      <point x="764" y="349" type="curve" smooth="yes"/>
      <point x="726" y="349"/>
      <point x="687" y="328"/>
      <point x="663" y="292" type="curve"/>
      <point x="627" y="338" type="line"/>
      <point x="656" y="384"/>
      <point x="709" y="410"/>
    </contour>
  </outline>
</glyph>
<glyph name="threequarters" format="1">
  <advance width="1038"/>
  <unicode hex="00BE"/>
  <outline>
    <contour>
      <point x="629" y="146" type="line"/>
      <point x="749" y="146" type="line"/>
      <point x="749" y="314" type="line"/>
    </contour>
    <contour>
      <point x="258" y="0" type="line"/>
      <point x="699" y="711" type="line"/>
      <point x="776" y="711" type="line"/>
      <point x="337" y="0" type="line"/>
    </contour>
    <contour>
      <point x="750" y="0" type="line"/>
      <point x="750" y="93" type="line"/>
      <point x="565" y="93" type="line"/>
      <point x="565" y="139" type="line"/>
      <point x="745" y="391" type="line"/>
      <point x="816" y="391" type="line"/>
      <point x="816" y="146" type="line"/>
      <point x="870" y="146" type="line"/>
      <point x="870" y="93" type="line"/>
      <point x="815" y="93" type="line"/>
      <point x="815" y="0" type="line"/>
    </contour>
    <contour>
      <point x="231" y="294" type="curve" smooth="yes"/>
      <point x="183" y="294"/>
      <point x="136" y="310"/>
      <point x="101" y="340" type="curve"/>
      <point x="129" y="387" type="line"/>
      <point x="162" y="362"/>
      <point x="197" y="349"/>
      <point x="228" y="349" type="curve" smooth="yes"/>
      <point x="273" y="349"/>
      <point x="305" y="378"/>
      <point x="305" y="419" type="curve" smooth="yes"/>
      <point x="305" y="460"/>
      <point x="271" y="483"/>
      <point x="213" y="483" type="curve" smooth="yes"/>
      <point x="174" y="483" type="line"/>
      <point x="174" y="537" type="line"/>
      <point x="211" y="537" type="line" smooth="yes"/>
      <point x="261" y="537"/>
      <point x="294" y="561"/>
      <point x="294" y="598" type="curve" smooth="yes"/>
      <point x="294" y="636"/>
      <point x="267" y="659"/>
      <point x="226" y="659" type="curve" smooth="yes"/>
      <point x="193" y="659"/>
      <point x="158" y="646"/>
      <point x="127" y="622" type="curve"/>
      <point x="100" y="665" type="line"/>
      <point x="135" y="694"/>
      <point x="185" y="712"/>
      <point x="233" y="712" type="curve" smooth="yes"/>
      <point x="304" y="712"/>
      <point x="363" y="675"/>
      <point x="363" y="604" type="curve" smooth="yes"/>
      <point x="363" y="568"/>
      <point x="341" y="533"/>
      <point x="292" y="516" type="curve"/>
      <point x="347" y="500"/>
      <point x="374" y="461"/>
      <point x="374" y="418" type="curve" smooth="yes"/>
      <point x="374" y="337"/>
      <point x="309" y="294"/>
    </contour>
  </outline>
</glyph>
<glyph name="AE" format="1">
  <advance width="1006"/>
  <unicode hex="00C6"/>
  <outline>
    <contour>
      <point x="659" y="711" type="move" name="top"/>
    </contour>
    <contour>
      <point x="267" y="268" type="line"/>
      <point x="522" y="268" type="line"/>
      <point x="495" y="630" type="line"/>
      <point x="472" y="630" type="line"/>
    </contour>
    <contour>
      <point x="12" y="0" type="line"/>
      <point x="424" y="711" type="line"/>
      <point x="921" y="711" type="line"/>
      <point x="921" y="630" type="line"/>
      <point x="585" y="630" type="line"/>
      <point x="604" y="405" type="line"/>
      <point x="906" y="405" type="line"/>
      <point x="906" y="328" type="line"/>
      <point x="612" y="328" type="line"/>
      <point x="634" y="80" type="line"/>
      <point x="934" y="80" type="line"/>
      <point x="934" y="0" type="line"/>
      <point x="546" y="0" type="line"/>
      <point x="529" y="196" type="line"/>
      <point x="230" y="196" type="line"/>
      <point x="119" y="0" type="line"/>
    </contour>
  </outline>
</glyph>
<glyph name="multiply" format="1">
  <advance width="601"/>
  <unicode hex="00D7"/>
  <outline>
    <contour>
      <point x="164" y="71" type="line"/>
      <point x="106" y="128" type="line"/>
      <point x="248" y="270" type="line"/>
      <point x="106" y="411" type="line"/>
      <point x="164" y="469" type="line"/>
      <point x="305" y="327" type="line"/>
      <point x="446" y="469" type="line"/>
      <point x="504" y="411" type="line"/>
      <point x="362" y="270" type="line"/>
      <point x="504" y="128" type="line"/>
      <point x="446" y="71" type="line"/>
      <point x="305" y="211" type="line"/>
    </contour>
  </outline>
</glyph>
<glyph name="Oslash" format="1">
  <advance width="793"/>
  <unicode hex="00D8"/>
  <outline>
    <contour>
      <point x="398" y="-11" type="curve" smooth="yes"/>
      <point x="613" y="-11"/>
      <point x="742" y="133"/>
      <point x="742" y="356" type="curve" smooth="yes"/>
      <point x="742" y="494"/>
      <point x="689" y="604"/>
      <point x="597" y="667" type="curve"/>
      <point x="639" y="745" type="line"/>
      <point x="594" y="768" type="line"/>
      <point x="553" y="692" type="line"/>
      <point x="508" y="713"/>
      <point x="457" y="724"/>
      <point x="399" y="724" type="curve" smooth="yes"/>
      <point x="181" y="724"/>
      <point x="52" y="574"/>
      <point x="52" y="356" type="curve" smooth="yes"/>
      <point x="52" y="211"/>
      <point x="107" y="100"/>
      <point x="204" y="40" type="curve"/>
      <point x="161" y="-41" type="line"/>
      <point x="207" y="-64" type="line"/>
      <point x="250" y="17" type="line"/>
      <point x="293" y="-1"/>
      <point x="342" y="-11"/>
    </contour>
    <contour>
      <point x="556" y="590" type="line"/>
      <point x="612" y="539"/>
      <point x="641" y="456"/>
      <point x="641" y="356" type="curve" smooth="yes"/>
      <point x="641" y="182"/>
      <point x="559" y="68"/>
      <point x="397" y="68" type="curve" smooth="yes"/>
      <point x="356" y="68"/>
      <point x="320" y="75"/>
      <point x="289" y="89" type="curve"/>
    </contour>
    <contour>
      <point x="514" y="619" type="curve"/>
      <point x="245" y="116" type="line"/>
      <point x="184" y="165"/>
      <point x="152" y="249"/>
      <point x="152" y="356" type="curve" smooth="yes"/>
      <point x="152" y="525"/>
      <point x="238" y="645"/>
      <point x="398" y="645" type="curve" smooth="yes"/>
      <point x="443" y="645"/>
      <point x="482" y="636"/>
    </contour>
  </outline>
</glyph>
<glyph name="Thorn" format="1">
  <advance width="625"/>
  <unicode hex="00DE"/>
  <outline>
    <contour>
      <point x="191" y="248" type="line"/>
      <point x="317" y="248" type="line" smooth="yes"/>
      <point x="419" y="248"/>
      <point x="488" y="288"/>
      <point x="488" y="379" type="curve" smooth="yes"/>
      <point x="488" y="487"/>
      <point x="416" y="513"/>
      <point x="298" y="513" type="curve" smooth="yes"/>
      <point x="191" y="513" type="line"/>
    </contour>
    <contour>
      <point x="98" y="0" type="line"/>
      <point x="98" y="711" type="line"/>
      <point x="191" y="711" type="line"/>
      <point x="191" y="592" type="line"/>
      <point x="292" y="592" type="line" smooth="yes"/>
      <point x="458" y="592"/>
      <point x="588" y="556"/>
      <point x="588" y="379" type="curve" smooth="yes"/>
      <point x="588" y="230"/>
      <point x="468" y="169"/>
      <point x="313" y="169" type="curve" smooth="yes"/>
      <point x="191" y="169" type="line"/>
      <point x="191" y="0" type="line"/>
    </contour>
  </outline>
</glyph>
<glyph name="germandbls" format="1">
  <advance width="610"/>
  <unicode hex="00DF"/>
  <outline>
    <contour>
      <point x="372" y="61" type="curve" smooth="yes"/>
      <point x="434" y="61"/>
      <point x="479" y="95"/>
      <point x="479" y="162" type="curve" smooth="yes"/>
      <point x="479" y="255"/>
      <point x="406" y="310"/>
      <point x="271" y="367" type="curve"/>
      <point x="271" y="435" type="line"/>
      <point x="368" y="469"/>
      <point x="402" y="511"/>
      <point x="402" y="573" type="curve" smooth="yes"/>
      <point x="402" y="627"/>
      <point x="359" y="662"/>
      <point x="294" y="662" type="curve" smooth="yes"/>
      <point x="213" y="662"/>
      <point x="170" y="599"/>
      <point x="170" y="502" type="curve" smooth="yes"/>
      <point x="170" y="0" type="line"/>
      <point x="82" y="0" type="line"/>
      <point x="81" y="501" type="line" smooth="yes"/>
      <point x="81" y="653"/>
      <point x="161" y="734"/>
      <point x="294" y="734" type="curve" smooth="yes"/>
      <point x="417" y="734"/>
      <point x="496" y="671"/>
      <point x="496" y="577" type="curve" smooth="yes"/>
      <point x="496" y="500"/>
      <point x="456" y="451"/>
      <point x="375" y="417" type="curve" smooth="yes"/>
      <point x="368" y="413"/>
      <point x="351" y="406"/>
      <point x="343" y="404" type="curve"/>
      <point x="351" y="402"/>
      <point x="368" y="396"/>
      <point x="376" y="393" type="curve" smooth="yes"/>
      <point x="477" y="356"/>
      <point x="575" y="290"/>
      <point x="575" y="167" type="curve" smooth="yes"/>
      <point x="575" y="57"/>
      <point x="492" y="-12"/>
      <point x="390" y="-12" type="curve" smooth="yes"/>
      <point x="310" y="-12"/>
      <point x="243" y="14"/>
      <point x="233" y="18" type="curve"/>
      <point x="247" y="89" type="line"/>
      <point x="256" y="85"/>
      <point x="318" y="61"/>
    </contour>
  </outline>
</glyph>
<glyph name="ae" format="1">
  <advance width="874"/>
  <unicode hex="00E6"/>
  <outline>
    <contour>
      <point x="440" y="501" type="move" name="top"/>
    </contour>
    <contour>
      <point x="478" y="299" type="curve"/>
      <point x="748" y="299" type="line"/>
      <point x="747" y="307" type="line"/>
      <point x="740" y="384"/>
      <point x="693" y="442"/>
      <point x="616" y="442" type="curve" smooth="yes"/>
      <point x="532" y="442"/>
      <point x="487" y="374"/>
    </contour>
    <contour>
      <point x="235" y="62" type="curve" smooth="yes"/>
      <point x="343" y="62"/>
      <point x="385" y="148"/>
      <point x="386" y="237" type="curve"/>
      <point x="312" y="237" type="line" smooth="yes"/>
      <point x="210" y="237"/>
      <point x="131" y="218"/>
      <point x="131" y="144" type="curve" smooth="yes"/>
      <point x="131" y="84"/>
      <point x="180" y="62"/>
    </contour>
    <contour>
      <point x="627" y="-11" type="curve" smooth="yes"/>
      <point x="535" y="-11"/>
      <point x="464" y="36"/>
      <point x="430" y="110" type="curve"/>
      <point x="398" y="41"/>
      <point x="326" y="-12"/>
      <point x="229" y="-12" type="curve" smooth="yes"/>
      <point x="119" y="-12"/>
      <point x="42" y="44"/>
      <point x="42" y="139" type="curve" smooth="yes"/>
      <point x="42" y="279"/>
      <point x="164" y="300"/>
      <point x="352" y="300" type="curve" smooth="yes"/>
      <point x="385" y="300" type="line"/>
      <point x="385" y="383"/>
      <point x="342" y="441"/>
      <point x="259" y="441" type="curve" smooth="yes"/>
      <point x="196" y="441"/>
      <point x="134" y="416"/>
      <point x="102" y="401" type="curve"/>
      <point x="75" y="465" type="line"/>
      <point x="88" y="472"/>
      <point x="163" y="514"/>
      <point x="272" y="514" type="curve" smooth="yes"/>
      <point x="339" y="514"/>
      <point x="413" y="478"/>
      <point x="438" y="410" type="curve"/>
      <point x="474" y="473"/>
      <point x="536" y="514"/>
      <point x="614" y="514" type="curve" smooth="yes"/>
      <point x="753" y="514"/>
      <point x="827" y="407"/>
      <point x="827" y="255" type="curve" smooth="yes"/>
      <point x="827" y="250"/>
      <point x="826" y="237"/>
      <point x="826" y="237" type="curve"/>
      <point x="477" y="237" type="line"/>
      <point x="477" y="224" type="line"/>
      <point x="481" y="128"/>
      <point x="527" y="62"/>
      <point x="631" y="62" type="curve" smooth="yes"/>
      <point x="721" y="62"/>
      <point x="785" y="117"/>
      <point x="785" y="117" type="curve"/>
      <point x="812" y="51" type="line"/>
      <point x="812" y="51"/>
      <point x="744" y="-11"/>
    </contour>
  </outline>
</glyph>
<glyph name="eth" format="1">
  <advance width="597"/>
  <unicode hex="00F0"/>
  <outline>
    <contour>
      <point x="293" y="67" type="curve" smooth="yes"/>
      <point x="384" y="67"/>
      <point x="441" y="134"/>
      <point x="441" y="232" type="curve" smooth="yes"/>
      <point x="441" y="314"/>
      <point x="369" y="367"/>
      <point x="291" y="367" type="curve" smooth="yes"/>
      <point x="206" y="367"/>
      <point x="146" y="313"/>
      <point x="146" y="221" type="curve" smooth="yes"/>
      <point x="146" y="126"/>
      <point x="209" y="67"/>
    </contour>
    <contour>
      <point x="292" y="-11" type="curve" smooth="yes"/>
      <point x="145" y="-11"/>
      <point x="52" y="92"/>
      <point x="52" y="222" type="curve" smooth="yes"/>
      <point x="52" y="352"/>
      <point x="151" y="442"/>
      <point x="289" y="442" type="curve" smooth="yes"/>
      <point x="371" y="442"/>
      <point x="430" y="396"/>
      <point x="453" y="354" type="curve"/>
      <point x="452" y="400"/>
      <point x="414" y="521"/>
      <point x="333" y="591" type="curve"/>
      <point x="225" y="522" type="line"/>
      <point x="193" y="572" type="line"/>
      <point x="284" y="630" type="line"/>
      <point x="239" y="660"/>
      <point x="188" y="683"/>
      <point x="131" y="697" type="curve"/>
      <point x="166" y="758" type="line"/>
      <point x="229" y="744"/>
      <point x="293" y="714"/>
      <point x="351" y="672" type="curve"/>
      <point x="456" y="740" type="line"/>
      <point x="488" y="690" type="line"/>
      <point x="398" y="633" type="line"/>
      <point x="481" y="555"/>
      <point x="540" y="445"/>
      <point x="540" y="304" type="curve" smooth="yes"/>
      <point x="540" y="101"/>
      <point x="450" y="-11"/>
    </contour>
  </outline>
</glyph>
<glyph name="divide" format="1">
  <advance width="627"/>
  <unicode hex="00F7"/>
  <outline>
    <contour>
      <point x="256" y="422" type="line"/>
      <point x="256" y="532" type="line"/>
      <point x="372" y="532" type="line"/>
      <point x="372" y="422" type="line"/>
    </contour>
    <contour>
      <point x="77" y="232" type="line"/>
      <point x="77" y="309" type="line"/>
      <point x="548" y="309" type="line"/>
      <point x="548" y="232" type="line"/>
    </contour>
    <contour>
      <point x="256" y="5" type="line"/>
      <point x="256" y="116" type="line"/>
      <point x="372" y="116" type="line"/>
      <point x="372" y="5" type="line"/>
    </contour>
  </outline>
</glyph>
<glyph name="oslash" format="1">
  <advance width="612"/>
  <unicode hex="00F8"/>
  <outline>
    <contour>
      <point x="308" y="-11" type="curve" smooth="yes"/>
      <point x="472" y="-11"/>
      <point x="565" y="99"/>
      <point x="565" y="250" type="curve" smooth="yes"/>
      <point x="565" y="358"/>
      <point x="520" y="444"/>
      <point x="437" y="486" type="curve"/>
      <point x="480" y="581" type="line"/>
      <point x="438" y="599" type="line"/>
      <point x="394" y="503" type="line"/>
      <point x="368" y="510"/>
      <point x="340" y="514"/>
      <point x="309" y="514" type="curve" smooth="yes"/>
      <point x="144" y="514"/>
      <point x="49" y="404"/>
      <point x="49" y="250" type="curve" smooth="yes"/>
      <point x="49" y="146"/>
      <point x="93" y="61"/>
      <point x="175" y="19" type="curve"/>
      <point x="127" y="-86" type="line"/>
      <point x="170" y="-104" type="line"/>
      <point x="218" y="2" type="line"/>
      <point x="245" y="-6"/>
      <point x="275" y="-11"/>
    </contour>
    <contour>
      <point x="404" y="412" type="line"/>
      <point x="448" y="379"/>
      <point x="471" y="321"/>
      <point x="471" y="250" type="curve" smooth="yes"/>
      <point x="471" y="141"/>
      <point x="417" y="62"/>
      <point x="308" y="62" type="curve" smooth="yes"/>
      <point x="286" y="62"/>
      <point x="267" y="65"/>
      <point x="250" y="71" type="curve"/>
    </contour>
    <contour>
      <point x="362" y="433" type="curve"/>
      <point x="208" y="93" type="line"/>
      <point x="165" y="125"/>
      <point x="144" y="181"/>
      <point x="144" y="250" type="curve" smooth="yes"/>
      <point x="144" y="362"/>
      <point x="200" y="440"/>
      <point x="308" y="440" type="curve" smooth="yes"/>
      <point x="328" y="440"/>
      <point x="346" y="438"/>
    </contour>
  </outline>
</glyph>
<glyph name="thorn" format="1">
  <advance width="603"/>
  <unicode hex="00FE"/>
  <outline>
    <contour>
      <point x="312" y="62" type="curve" smooth="yes"/>
      <point x="412" y="62"/>
      <point x="459" y="148"/>
      <point x="459" y="253" type="curve" smooth="yes"/>
      <point x="459" y="355"/>
      <point x="418" y="439"/>
      <point x="314" y="439" type="curve" smooth="yes"/>
      <point x="201" y="439"/>
      <point x="164" y="345"/>
      <point x="164" y="243" type="curve" smooth="yes"/>
      <point x="164" y="138"/>
      <point x="215" y="62"/>
    </contour>
    <contour>
      <point x="75" y="-205" type="line"/>
      <point x="75" y="712" type="line"/>
      <point x="165" y="712" type="line"/>
      <point x="165" y="429" type="line"/>
      <point x="195" y="482"/>
      <point x="257" y="513"/>
      <point x="325" y="513" type="curve" smooth="yes"/>
      <point x="478" y="513"/>
      <point x="555" y="400"/>
      <point x="555" y="255" type="curve" smooth="yes"/>
      <point x="555" y="111"/>
      <point x="478" y="-11"/>
      <point x="325" y="-11" type="curve" smooth="yes"/>
      <point x="260" y="-11"/>
      <point x="197" y="15"/>
      <point x="165" y="67" type="curve"/>
      <point x="165" y="-205" type="line"/>
    </contour>
  </outline>
</glyph>
<glyph name="dotlessi" format="1">
  <advance width="260"/>
  <unicode hex="0131"/>
  <outline>
    <contour>
      <point x="86" y="0" type="line"/>
      <point x="86" y="501" type="line"/>
      <point x="176" y="501" type="line"/>
      <point x="177" y="0" type="line"/>
    </contour>
    <contour>
      <point x="131" y="501" type="move" name="top"/>
    </contour>
  </outline>
</glyph>
<glyph name="kgreenlandic" format="1">
  <advance width="528"/>
  <unicode hex="0138"/>
  <outline>
    <contour>
      <point x="83" y="0" type="line"/>
      <point x="83" y="501" type="line"/>
      <point x="173" y="501" type="line"/>
      <point x="173" y="279" type="line"/>
      <point x="388" y="501" type="line"/>
      <point x="507" y="501" type="line"/>
      <point x="252" y="252" type="line"/>
      <point x="525" y="0" type="line"/>
      <point x="409" y="0" type="line"/>
      <point x="173" y="222" type="line"/>
      <point x="173" y="0" type="line"/>
    </contour>
  </outline>
</glyph>
<glyph name="Lslash" format="1">
  <advance width="552"/>
  <unicode hex="0141"/>
  <outline>
    <component base="L"/>
    <contour>
      <point x="25" y="230" type="line"/>
      <point x="25" y="308" type="line"/>
      <point x="336" y="507" type="line"/>
      <point x="336" y="429" type="line"/>
    </contour>
  </outline>
</glyph>
<glyph name="lslash" format="1">
  <advance width="245"/>
  <unicode hex="0142"/>
  <outline>
    <contour>
      <point x="76" y="0" type="line"/>
      <point x="76" y="341" type="line"/>
      <point x="0" y="292" type="line"/>
      <point x="0" y="369" type="line"/>
      <point x="76" y="418" type="line"/>
      <point x="76" y="724" type="line"/>
      <point x="167" y="724" type="line"/>
      <point x="167" y="477" type="line"/>
      <point x="242" y="526" type="line"/>
      <point x="242" y="449" type="line"/>
      <point x="167" y="399" type="line"/>
      <point x="167" y="0" type="line"/>
    </contour>
  </outline>
</glyph>
<glyph name="Eng" format="1">
  <advance width="766"/>
  <unicode hex="014A"/>
  <outline>
    <contour>
      <point x="679" y="711" type="line"/>
      <point x="679" y="27" type="line"/>
      <point x="679" y="-127"/>
      <point x="616" y="-213"/>
      <point x="451" y="-213" type="curve"/>
      <point x="451" y="-141" type="line"/>
      <point x="538" y="-141"/>
      <point x="588" y="-105"/>
      <point x="588" y="-14" type="curve" smooth="yes"/>
      <point x="588" y="27" type="line"/>
      <point x="237" y="510" type="line"/>
      <point x="188" y="586" type="line"/>
      <point x="188" y="0" type="line"/>
      <point x="98" y="0" type="line"/>
      <point x="98" y="711" type="line"/>
      <point x="199" y="711" type="line"/>
      <point x="536" y="238" type="line"/>
      <point x="588" y="160" type="line"/>
      <point x="588" y="711" type="line"/>
    </contour>
  </outline>
</glyph>
<glyph name="eng" format="1">
  <advance width="603"/>
  <unicode hex="014B"/>
  <outline>
    <contour>
      <point x="294" y="-199" type="curve"/>
      <point x="294" y="-131" type="line"/>
      <point x="407" y="-131"/>
      <point x="437" y="-71"/>
      <point x="437" y="49" type="curve" smooth="yes"/>
      <point x="437" y="268" type="line" smooth="yes"/>
      <point x="437" y="375"/>
      <point x="422" y="439"/>
      <point x="326" y="439" type="curve" smooth="yes"/>
      <point x="242" y="439"/>
      <point x="176" y="366"/>
      <point x="176" y="314" type="curve"/>
      <point x="176" y="0" type="line"/>
      <point x="86" y="0" type="line"/>
      <point x="86" y="362" type="line" smooth="yes"/>
      <point x="86" y="437"/>
      <point x="81" y="501"/>
      <point x="81" y="501" type="curve"/>
      <point x="175" y="501" type="line"/>
      <point x="175" y="431" type="line"/>
      <point x="212" y="486"/>
      <point x="275" y="513"/>
      <point x="343" y="513" type="curve" smooth="yes"/>
      <point x="480" y="513"/>
      <point x="528" y="424"/>
      <point x="528" y="273" type="curve" smooth="yes"/>
      <point x="528" y="63" type="line" smooth="yes"/>
      <point x="528" y="-103"/>
      <point x="464" y="-199"/>
    </contour>
  </outline>
</glyph>
<glyph name="OE" format="1">
  <advance width="1000"/>
  <unicode hex="0152"/>
  <outline>
    <contour>
      <point x="397" y="64" type="curve" smooth="yes"/>
      <point x="483" y="64"/>
      <point x="532" y="99"/>
      <point x="552" y="124" type="curve"/>
      <point x="552" y="592" type="line"/>
      <point x="526" y="618"/>
      <point x="478" y="644"/>
      <point x="405" y="644" type="curve" smooth="yes"/>
      <point x="244" y="644"/>
      <point x="152" y="525"/>
      <point x="152" y="354" type="curve" smooth="yes"/>
      <point x="152" y="188"/>
      <point x="233" y="64"/>
    </contour>
    <contour>
      <point x="552" y="46" type="line"/>
      <point x="531" y="23"/>
      <point x="469" y="-11"/>
      <point x="385" y="-11" type="curve" smooth="yes"/>
      <point x="181" y="-11"/>
      <point x="53" y="128"/>
      <point x="53" y="356" type="curve" smooth="yes"/>
      <point x="53" y="575"/>
      <point x="189" y="724"/>
      <point x="393" y="724" type="curve" smooth="yes"/>
      <point x="477" y="724"/>
      <point x="531" y="694"/>
      <point x="552" y="674" type="curve"/>
      <point x="552" y="711" type="line"/>
      <point x="948" y="711" type="line"/>
      <point x="948" y="630" type="line"/>
      <point x="646" y="630" type="line"/>
      <point x="646" y="405" type="line"/>
      <point x="929" y="405" type="line"/>
      <point x="929" y="324" type="line"/>
      <point x="646" y="324" type="line"/>
      <point x="646" y="81" type="line"/>
      <point x="962" y="81" type="line"/>
      <point x="962" y="0" type="line"/>
      <point x="552" y="0" type="line"/>
    </contour>
  </outline>
</glyph>
<glyph name="oe" format="1">
  <advance width="965"/>
  <unicode hex="0153"/>
  <outline>
    <contour>
      <point x="544" y="300" type="curve"/>
      <point x="826" y="300" type="line"/>
      <point x="826" y="312" type="line"/>
      <point x="817" y="386"/>
      <point x="766" y="440"/>
      <point x="690" y="440" type="curve" smooth="yes"/>
      <point x="608" y="440"/>
      <point x="551" y="376"/>
    </contour>
    <contour>
      <point x="305" y="62" type="curve" smooth="yes"/>
      <point x="406" y="62"/>
      <point x="455" y="147"/>
      <point x="455" y="250" type="curve" smooth="yes"/>
      <point x="455" y="360"/>
      <point x="407" y="440"/>
      <point x="303" y="440" type="curve" smooth="yes"/>
      <point x="199" y="440"/>
      <point x="141" y="358"/>
      <point x="141" y="247" type="curve" smooth="yes"/>
      <point x="141" y="143"/>
      <point x="195" y="62"/>
    </contour>
    <contour>
      <point x="303" y="-11" type="curve" smooth="yes"/>
      <point x="141" y="-11"/>
      <point x="46" y="100"/>
      <point x="46" y="249" type="curve" smooth="yes"/>
      <point x="46" y="399"/>
      <point x="138" y="514"/>
      <point x="303" y="514" type="curve" smooth="yes"/>
      <point x="398" y="514"/>
      <point x="464" y="469"/>
      <point x="500" y="402" type="curve"/>
      <point x="534" y="472"/>
      <point x="596" y="515"/>
      <point x="689" y="515" type="curve" smooth="yes"/>
      <point x="830" y="515"/>
      <point x="910" y="410"/>
      <point x="910" y="256" type="curve" smooth="yes"/>
      <point x="910" y="230" type="line"/>
      <point x="543" y="230" type="line"/>
      <point x="543" y="229"/>
      <point x="544" y="216"/>
      <point x="544" y="215" type="curve" smooth="yes"/>
      <point x="549" y="124"/>
      <point x="612" y="62"/>
      <point x="710" y="62" type="curve" smooth="yes"/>
      <point x="798" y="62"/>
      <point x="858" y="108"/>
      <point x="868" y="115" type="curve"/>
      <point x="895" y="49" type="line"/>
      <point x="885" y="41"/>
      <point x="819" y="-11"/>
      <point x="701" y="-11" type="curve" smooth="yes"/>
      <point x="616" y="-11"/>
      <point x="533" y="33"/>
      <point x="499" y="102" type="curve"/>
      <point x="467" y="33"/>
      <point x="389" y="-11"/>
    </contour>
  </outline>
</glyph>
<glyph name="florin" format="1">
  <advance width="522"/>
  <unicode hex="0192"/>
  <outline>
    <contour>
      <point x="98" y="-146" type="curve" smooth="yes"/>
      <point x="88" y="-146"/>
      <point x="68" y="-144"/>
      <point x="47" y="-138" type="curve"/>
      <point x="54" y="-77" type="line"/>
      <point x="63" y="-79"/>
      <point x="76" y="-82"/>
      <point x="88" y="-82" type="curve" smooth="yes"/>
      <point x="130" y="-82"/>
      <point x="162" y="-55"/>
      <point x="175" y="17" type="curve" smooth="yes"/>
      <point x="244" y="398" type="line"/>
      <point x="169" y="398" type="line"/>
      <point x="180" y="457" type="line"/>
      <point x="254" y="457" type="line"/>
      <point x="271" y="550" type="line"/>
      <point x="285" y="632"/>
      <point x="317" y="717"/>
      <point x="435" y="717" type="curve" smooth="yes"/>
      <point x="478" y="717"/>
      <point x="513" y="701"/>
      <point x="513" y="701" type="curve"/>
      <point x="505" y="641" type="line"/>
      <point x="487" y="646"/>
      <point x="467" y="651"/>
      <point x="448" y="651" type="curve" smooth="yes"/>
      <point x="397" y="651"/>
      <point x="372" y="624"/>
      <point x="360" y="565" type="curve" smooth="yes"/>
      <point x="338" y="457" type="line"/>
      <point x="443" y="457" type="line"/>
      <point x="432" y="398" type="line"/>
      <point x="328" y="398" type="line"/>
      <point x="264" y="42" type="line"/>
      <point x="243" y="-80"/>
      <point x="213" y="-146"/>
    </contour>
  </outline>
</glyph>
<glyph name="uni0237" format="1">
  <advance width="245"/>
  <unicode hex="0237"/>
  <outline>
    <contour>
      <point x="126" y="501" type="move" name="top"/>
    </contour>
    <contour>
      <point x="10" y="-207" type="curve" smooth="yes"/>
      <point x="-9" y="-207"/>
      <point x="-29" y="-205"/>
      <point x="-52" y="-201" type="curve"/>
      <point x="-52" y="-127" type="line"/>
      <point x="-33" y="-131"/>
      <point x="-19" y="-133"/>
      <point x="-9" y="-133" type="curve" smooth="yes"/>
      <point x="52" y="-133"/>
      <point x="83" y="-86"/>
      <point x="83" y="18" type="curve" smooth="yes"/>
      <point x="83" y="501" type="line"/>
      <point x="167" y="501" type="line"/>
      <point x="167" y="51" type="line" smooth="yes"/>
      <point x="167" y="-62"/>
      <point x="153" y="-207"/>
    </contour>
  </outline>
</glyph>
<glyph name="circumflex" format="1">
  <advance width="341"/>
  <unicode hex="02C6"/>
  <outline>
    <contour>
      <point x="17" y="563" type="line"/>
      <point x="131" y="733" type="line"/>
      <point x="210" y="733" type="line"/>
      <point x="325" y="563" type="line"/>
      <point x="249" y="563" type="line"/>
      <point x="170" y="670" type="line"/>
      <point x="90" y="563" type="line"/>
    </contour>
    <contour>
      <point x="169" y="501" type="move" name="_top"/>
    </contour>
  </outline>
</glyph>
<glyph name="caron" format="1">
  <advance width="341"/>
  <unicode hex="02C7"/>
  <outline>
    <contour>
      <point x="170" y="501" type="move" name="_top"/>
    </contour>
    <contour>
      <point x="131" y="563" type="line"/>
      <point x="10" y="735" type="line"/>
      <point x="90" y="735" type="line"/>
      <point x="169" y="623" type="line"/>
      <point x="249" y="735" type="line"/>
      <point x="331" y="735" type="line"/>
      <point x="211" y="563" type="line"/>
    </contour>
  </outline>
</glyph>
<glyph name="firsttonechinese" format="1">
  <advance width="292"/>
  <unicode hex="02C9"/>
  <outline>
    <contour>
      <point x="-4" y="643" type="line"/>
      <point x="294" y="643" type="line"/>
      <point x="294" y="707" type="line"/>
      <point x="-4" y="707" type="line"/>
    </contour>
    <contour>
      <point x="150" y="521" type="move" name="_top"/>
    </contour>
  </outline>
</glyph>
<glyph name="uni02C9" format="1">
  <advance width="292"/>
  <unicode hex="02C9"/>
  <outline>
    <contour>
      <point x="150" y="521" type="move" name="_top"/>
    </contour>
    <contour>
      <point x="-4" y="643" type="line"/>
      <point x="294" y="643" type="line"/>
      <point x="294" y="707" type="line"/>
      <point x="-4" y="707" type="line"/>
    </contour>
  </outline>
</glyph>
<glyph name="breve" format="1">
  <advance width="300"/>
  <unicode hex="02D8"/>
  <outline>
    <contour>
      <point x="154" y="501" type="move" name="_top"/>
    </contour>
    <contour>
      <point x="151" y="576" type="curve" smooth="yes"/>
      <point x="68" y="576"/>
      <point x="22" y="615"/>
      <point x="16" y="703" type="curve"/>
      <point x="80" y="703" type="line"/>
      <point x="83" y="655"/>
      <point x="110" y="641"/>
      <point x="151" y="641" type="curve" smooth="yes"/>
      <point x="192" y="641"/>
      <point x="217" y="657"/>
      <point x="222" y="703" type="curve"/>
      <point x="285" y="703" type="line"/>
      <point x="279" y="616"/>
      <point x="232" y="576"/>
    </contour>
  </outline>
</glyph>
<glyph name="dotaccent" format="1">
  <advance width="255"/>
  <unicode hex="02D9"/>
  <outline>
    <contour>
      <point x="82" y="613" type="line"/>
      <point x="82" y="702" type="line"/>
      <point x="174" y="702" type="line"/>
      <point x="174" y="613" type="line"/>
    </contour>
    <contour>
      <point x="129" y="501" type="move" name="_top"/>
    </contour>
  </outline>
</glyph>
<glyph name="ring" format="1">
  <advance width="306"/>
  <unicode hex="02DA"/>
  <outline>
    <contour>
      <point x="154" y="726" type="move" name="top"/>
    </contour>
    <contour>
      <point x="154" y="501" type="move" name="_top"/>
    </contour>
    <contour>
      <point x="154" y="555" type="curve" smooth="yes"/>
      <point x="99" y="555"/>
      <point x="56" y="595"/>
      <point x="56" y="650" type="curve" smooth="yes"/>
      <point x="56" y="705"/>
      <point x="99" y="746"/>
      <point x="154" y="746" type="curve" smooth="yes"/>
      <point x="209" y="746"/>
      <point x="252" y="705"/>
      <point x="252" y="650" type="curve" smooth="yes"/>
      <point x="252" y="595"/>
      <point x="209" y="555"/>
    </contour>
    <contour>
      <point x="153" y="597" type="curve" smooth="yes"/>
      <point x="182" y="597"/>
      <point x="205" y="620"/>
      <point x="205" y="650" type="curve" smooth="yes"/>
      <point x="205" y="680"/>
      <point x="182" y="704"/>
      <point x="153" y="704" type="curve" smooth="yes"/>
      <point x="124" y="704"/>
      <point x="102" y="680"/>
      <point x="102" y="650" type="curve" smooth="yes"/>
      <point x="102" y="620"/>
      <point x="124" y="597"/>
    </contour>
  </outline>
</glyph>
<glyph name="ogonek" format="1">
  <advance width="248"/>
  <unicode hex="02DB"/>
  <outline>
    <contour>
      <point x="137" y="-207" type="curve" smooth="yes"/>
      <point x="75" y="-207"/>
      <point x="23" y="-179"/>
      <point x="23" y="-122" type="curve" smooth="yes"/>
      <point x="23" y="-66"/>
      <point x="81" y="-18"/>
      <point x="129" y="7" type="curve"/>
      <point x="180" y="5" type="line"/>
      <point x="135" y="-25"/>
      <point x="101" y="-75"/>
      <point x="101" y="-108" type="curve" smooth="yes"/>
      <point x="101" y="-134"/>
      <point x="119" y="-150"/>
      <point x="157" y="-150" type="curve" smooth="yes"/>
      <point x="178" y="-150"/>
      <point x="204" y="-144"/>
      <point x="222" y="-139" type="curve"/>
      <point x="222" y="-193" type="line"/>
      <point x="194" y="-202"/>
      <point x="165" y="-207"/>
    </contour>
  </outline>
</glyph>
<glyph name="tilde" format="1">
  <advance width="325"/>
  <unicode hex="02DC"/>
  <outline>
    <contour>
      <point x="238" y="574" type="curve" smooth="yes"/>
      <point x="193" y="574"/>
      <point x="130" y="623"/>
      <point x="95" y="623" type="curve" smooth="yes"/>
      <point x="75" y="623"/>
      <point x="64" y="609"/>
      <point x="61" y="578" type="curve"/>
      <point x="3" y="578" type="line"/>
      <point x="3" y="646"/>
      <point x="37" y="691"/>
      <point x="91" y="691" type="curve" smooth="yes"/>
      <point x="142" y="691"/>
      <point x="200" y="642"/>
      <point x="234" y="642" type="curve" smooth="yes"/>
      <point x="254" y="642"/>
      <point x="262" y="654"/>
      <point x="263" y="690" type="curve"/>
      <point x="322" y="690" type="line"/>
      <point x="322" y="618"/>
      <point x="293" y="574"/>
    </contour>
    <contour>
      <point x="162" y="501" type="move" name="_top"/>
    </contour>
  </outline>
</glyph>
<glyph name="hungarumlaut" format="1">
  <advance width="473"/>
  <unicode hex="02DD"/>
  <outline>
    <contour>
      <point x="137" y="501" type="move" name="_top"/>
    </contour>
    <contour>
      <point x="199" y="566" type="line"/>
      <point x="316" y="748" type="line"/>
      <point x="418" y="748" type="line"/>
      <point x="266" y="566" type="line"/>
    </contour>
    <contour>
      <point x="41" y="566" type="line"/>
      <point x="144" y="748" type="line"/>
      <point x="241" y="748" type="line"/>
      <point x="105" y="566" type="line"/>
    </contour>
  </outline>
</glyph>
<glyph name="uni0307" format="1">
  <advance width="255"/>
  <unicode hex="0307"/>
  <outline>
    <contour>
      <point x="83" y="619" type="line"/>
      <point x="83" y="707" type="line"/>
      <point x="172" y="707" type="line"/>
      <point x="172" y="619" type="line"/>
    </contour>
    <contour>
      <point x="127" y="501" type="move" name="_top"/>
    </contour>
  </outline>
</glyph>
<glyph name="uni030F" format="1">
  <advance width="473"/>
  <unicode hex="030F"/>
  <outline>
    <contour>
      <point x="289" y="501" type="move" name="_top"/>
    </contour>
    <contour>
      <point x="351" y="573" type="line"/>
      <point x="212" y="765" type="line"/>
      <point x="300" y="765" type="line"/>
      <point x="410" y="573" type="line"/>
    </contour>
    <contour>
      <point x="184" y="573" type="line"/>
      <point x="33" y="765" type="line"/>
      <point x="121" y="765" type="line"/>
      <point x="244" y="573" type="line"/>
    </contour>
  </outline>
</glyph>
<glyph name="uni0311" format="1">
  <advance width="300"/>
  <unicode hex="0311"/>
  <outline>
    <contour>
      <point x="149" y="703" type="curve" smooth="yes"/>
      <point x="232" y="703"/>
      <point x="279" y="664"/>
      <point x="285" y="576" type="curve"/>
      <point x="221" y="576" type="line"/>
      <point x="218" y="624"/>
      <point x="190" y="639"/>
      <point x="149" y="639" type="curve" smooth="yes"/>
      <point x="108" y="639"/>
      <point x="84" y="622"/>
      <point x="79" y="576" type="curve"/>
      <point x="16" y="576" type="line"/>
      <point x="22" y="663"/>
      <point x="68" y="703"/>
    </contour>
    <contour>
      <point x="154" y="501" type="move" name="_top"/>
    </contour>
  </outline>
</glyph>
<glyph name="uni0312" format="1">
  <advance width="292"/>
  <unicode hex="0312"/>
  <outline>
    <contour>
      <point x="245" y="821" type="line"/>
      <point x="192" y="582" type="line"/>
      <point x="90" y="582" type="line"/>
      <point x="171" y="821" type="line"/>
    </contour>
    <contour>
      <point x="142" y="501" type="move" name="_top"/>
    </contour>
  </outline>
</glyph>
<glyph name="uni0326" format="1">
  <advance width="263"/>
  <unicode hex="0326"/>
  <outline>
    <contour>
      <point x="54" y="-296" type="line"/>
      <point x="107" y="-65" type="line"/>
      <point x="209" y="-65" type="line"/>
      <point x="127" y="-296" type="line"/>
    </contour>
  </outline>
</glyph>
<glyph name="uni0358" format="1">
  <advance width="255"/>
  <unicode hex="0358"/>
  <outline>
    <contour>
      <point x="127" y="501" type="move" name="_top"/>
    </contour>
    <contour>
      <point x="83" y="619" type="line"/>
      <point x="83" y="707" type="line"/>
      <point x="172" y="707" type="line"/>
      <point x="172" y="619" type="line"/>
    </contour>
  </outline>
</glyph>
<glyph name="Delta" format="1">
  <advance width="639"/>
  <unicode hex="0394"/>
  <outline>
    <contour>
      <point x="124" y="69" type="line"/>
      <point x="511" y="69" type="line"/>
      <point x="321" y="604" type="line"/>
    </contour>
    <contour>
      <point x="27" y="0" type="line"/>
      <point x="27" y="41" type="line"/>
      <point x="285" y="710" type="line"/>
      <point x="360" y="710" type="line"/>
      <point x="610" y="41" type="line"/>
      <point x="610" y="0" type="line"/>
    </contour>
  </outline>
</glyph>
<glyph name="uni0394" format="1">
  <advance width="637"/>
  <unicode hex="0394"/>
  <outline>
    <contour>
      <point x="124" y="69" type="line"/>
      <point x="511" y="69" type="line"/>
      <point x="321" y="604" type="line"/>
    </contour>
    <contour>
      <point x="27" y="0" type="line"/>
      <point x="27" y="41" type="line"/>
      <point x="285" y="710" type="line"/>
      <point x="360" y="710" type="line"/>
      <point x="610" y="41" type="line"/>
      <point x="610" y="0" type="line"/>
    </contour>
  </outline>
</glyph>
<glyph name="Omega" format="1">
  <advance width="782"/>
  <unicode hex="03A9"/>
  <outline>
    <contour>
      <point x="50" y="0" type="line"/>
      <point x="40" y="70" type="line"/>
      <point x="202" y="70" type="line"/>
      <point x="115" y="139"/>
      <point x="52" y="260"/>
      <point x="52" y="390" type="curve" smooth="yes"/>
      <point x="52" y="590"/>
      <point x="198" y="718"/>
      <point x="392" y="718" type="curve" smooth="yes"/>
      <point x="594" y="718"/>
      <point x="721" y="575"/>
      <point x="721" y="387" type="curve" smooth="yes"/>
      <point x="721" y="253"/>
      <point x="646" y="135"/>
      <point x="568" y="70" type="curve"/>
      <point x="721" y="70" type="line"/>
      <point x="713" y="0" type="line"/>
      <point x="454" y="0" type="line"/>
      <point x="454" y="65" type="line"/>
      <point x="552" y="131"/>
      <point x="624" y="251"/>
      <point x="624" y="379" type="curve" smooth="yes"/>
      <point x="624" y="519"/>
      <point x="545" y="639"/>
      <point x="390" y="639" type="curve" smooth="yes"/>
      <point x="248" y="639"/>
      <point x="149" y="535"/>
      <point x="149" y="381" type="curve" smooth="yes"/>
      <point x="149" y="253"/>
      <point x="217" y="130"/>
      <point x="317" y="65" type="curve"/>
      <point x="317" y="0" type="line"/>
    </contour>
  </outline>
</glyph>
<glyph name="pi" format="1">
  <advance width="705"/>
  <unicode hex="03C0"/>
  <outline>
    <contour>
      <point x="558" y="-6" type="curve" smooth="yes"/>
      <point x="597" y="-6"/>
      <point x="629" y="5"/>
      <point x="646" y="22" type="curve"/>
      <point x="646" y="86" type="line"/>
      <point x="632" y="81"/>
      <point x="605" y="69"/>
      <point x="584" y="69" type="curve" smooth="yes"/>
      <point x="545" y="69"/>
      <point x="524" y="114"/>
      <point x="524" y="212" type="curve" smooth="yes"/>
      <point x="524" y="268"/>
      <point x="530" y="350"/>
      <point x="542" y="442" type="curve"/>
      <point x="659" y="442" type="line"/>
      <point x="659" y="528" type="line"/>
      <point x="215" y="528" type="line" smooth="yes"/>
      <point x="96" y="528"/>
      <point x="60" y="484"/>
      <point x="60" y="376" type="curve"/>
      <point x="108" y="376" type="line"/>
      <point x="114" y="414"/>
      <point x="133" y="442"/>
      <point x="173" y="442" type="curve" smooth="yes"/>
      <point x="234" y="442" type="line"/>
      <point x="203" y="194" type="line" smooth="yes"/>
      <point x="189" y="86"/>
      <point x="126" y="56"/>
      <point x="66" y="56" type="curve"/>
      <point x="66" y="2" type="line"/>
      <point x="239" y="2"/>
      <point x="274" y="53"/>
      <point x="279" y="162" type="curve" smooth="yes"/>
      <point x="292" y="442" type="line"/>
      <point x="477" y="442" type="line"/>
      <point x="461" y="329"/>
      <point x="441" y="216"/>
      <point x="441" y="137" type="curve" smooth="yes"/>
      <point x="441" y="47"/>
      <point x="471" y="-6"/>
    </contour>
  </outline>
</glyph>
<glyph name="endash" format="1">
  <advance width="538"/>
  <unicode hex="2013"/>
  <outline>
    <contour>
      <point x="1" y="238" type="line"/>
      <point x="1" y="310" type="line"/>
      <point x="536" y="310" type="line"/>
      <point x="536" y="238" type="line"/>
    </contour>
  </outline>
</glyph>
<glyph name="emdash" format="1">
  <advance width="1060"/>
  <unicode hex="2014"/>
  <outline>
    <contour>
      <point x="8" y="234" type="line"/>
      <point x="8" y="310" type="line"/>
      <point x="1049" y="310" type="line"/>
      <point x="1049" y="234" type="line"/>
    </contour>
  </outline>
</glyph>
<glyph name="uni2015" format="1">
  <advance width="2000"/>
  <unicode hex="2015"/>
  <outline>
    <contour>
      <point x="30" y="234" type="line"/>
      <point x="30" y="308" type="line"/>
      <point x="1970" y="308" type="line"/>
      <point x="1970" y="234" type="line"/>
    </contour>
  </outline>
</glyph>
<glyph name="quoteleft" format="1">
  <advance width="258"/>
  <unicode hex="2018"/>
  <outline>
    <contour>
      <point x="201" y="711" type="line"/>
      <point x="167" y="431" type="line"/>
      <point x="60" y="431" type="line"/>
      <point x="135" y="711" type="line"/>
    </contour>
  </outline>
</glyph>
<glyph name="quotesinglbase" format="1">
  <advance width="286"/>
  <unicode hex="201A"/>
  <outline>
    <contour>
      <point x="76" y="-160" type="line"/>
      <point x="116" y="105" type="line"/>
      <point x="212" y="105" type="line"/>
      <point x="150" y="-160" type="line"/>
    </contour>
  </outline>
</glyph>
<glyph name="quotedblleft" format="1">
  <advance width="500"/>
  <unicode hex="201C"/>
  <outline>
    <contour>
      <point x="272" y="431" type="line"/>
      <point x="345" y="711" type="line"/>
      <point x="418" y="711" type="line"/>
      <point x="373" y="431" type="line"/>
    </contour>
    <contour>
      <point x="81" y="431" type="line"/>
      <point x="157" y="711" type="line"/>
      <point x="229" y="711" type="line"/>
      <point x="184" y="431" type="line"/>
    </contour>
  </outline>
</glyph>
<glyph name="quotedblright" format="1">
  <advance width="500"/>
  <unicode hex="201D"/>
  <outline>
    <contour>
      <point x="274" y="431" type="line"/>
      <point x="319" y="711" type="line"/>
      <point x="419" y="711" type="line"/>
      <point x="348" y="431" type="line"/>
    </contour>
    <contour>
      <point x="96" y="431" type="line"/>
      <point x="140" y="711" type="line"/>
      <point x="241" y="711" type="line"/>
      <point x="169" y="431" type="line"/>
    </contour>
  </outline>
</glyph>
<glyph name="quotedblbase" format="1">
  <advance width="468"/>
  <unicode hex="201E"/>
  <outline>
    <contour>
      <point x="247" y="-160" type="line"/>
      <point x="287" y="105" type="line"/>
      <point x="383" y="105" type="line"/>
      <point x="321" y="-160" type="line"/>
    </contour>
    <contour>
      <point x="76" y="-160" type="line"/>
      <point x="116" y="105" type="line"/>
      <point x="212" y="105" type="line"/>
      <point x="150" y="-160" type="line"/>
    </contour>
  </outline>
</glyph>
<glyph name="dagger" format="1">
  <advance width="499"/>
  <unicode hex="2020"/>
  <outline>
    <contour>
      <point x="217" y="0" type="line"/>
      <point x="217" y="441" type="line"/>
      <point x="57" y="441" type="line"/>
      <point x="57" y="505" type="line"/>
      <point x="217" y="505" type="line"/>
      <point x="217" y="712" type="line"/>
      <point x="294" y="712" type="line"/>
      <point x="294" y="505" type="line"/>
      <point x="458" y="505" type="line"/>
      <point x="458" y="441" type="line"/>
      <point x="292" y="441" type="line"/>
      <point x="292" y="0" type="line"/>
    </contour>
  </outline>
</glyph>
<glyph name="daggerdbl" format="1">
  <advance width="530"/>
  <unicode hex="2021"/>
  <outline>
    <contour>
      <point x="62" y="505" type="line"/>
      <point x="226" y="505" type="line"/>
      <point x="226" y="712" type="line"/>
      <point x="306" y="712" type="line"/>
      <point x="306" y="505" type="line"/>
      <point x="469" y="505" type="line"/>
      <point x="469" y="449" type="line"/>
      <point x="306" y="449" type="line"/>
      <point x="306" y="249" type="line"/>
      <point x="466" y="249" type="line"/>
      <point x="466" y="195" type="line"/>
      <point x="306" y="195" type="line"/>
      <point x="306" y="0" type="line"/>
      <point x="226" y="0" type="line"/>
      <point x="226" y="195" type="line"/>
      <point x="60" y="195" type="line"/>
      <point x="60" y="249" type="line"/>
      <point x="226" y="249" type="line"/>
      <point x="226" y="449" type="line"/>
      <point x="62" y="449" type="line"/>
    </contour>
  </outline>
</glyph>
<glyph name="bullet" format="1">
  <advance width="482"/>
  <unicode hex="2022"/>
  <outline>
    <contour>
      <point x="245" y="185" type="curve" smooth="yes"/>
      <point x="152" y="185"/>
      <point x="86" y="254"/>
      <point x="86" y="337" type="curve" smooth="yes"/>
      <point x="86" y="421"/>
      <point x="155" y="493"/>
      <point x="245" y="493" type="curve" smooth="yes"/>
      <point x="337" y="493"/>
      <point x="406" y="420"/>
      <point x="406" y="337" type="curve" smooth="yes"/>
      <point x="406" y="253"/>
      <point x="336" y="185"/>
    </contour>
  </outline>
</glyph>
<glyph name="ellipsis" format="1">
  <advance width="791"/>
  <unicode hex="2026"/>
  <outline>
    <contour>
      <point x="595" y="-5" type="line"/>
      <point x="595" y="104" type="line"/>
      <point x="711" y="104" type="line"/>
      <point x="711" y="-5" type="line"/>
    </contour>
    <contour>
      <point x="334" y="-5" type="line"/>
      <point x="334" y="104" type="line"/>
      <point x="450" y="104" type="line"/>
      <point x="450" y="-5" type="line"/>
    </contour>
    <contour>
      <point x="72" y="-5" type="line"/>
      <point x="72" y="104" type="line"/>
      <point x="188" y="104" type="line"/>
      <point x="188" y="-5" type="line"/>
    </contour>
  </outline>
</glyph>
<glyph name="perthousand" format="1">
  <advance width="1318"/>
  <unicode hex="2030"/>
  <outline>
    <component base="percent"/>
    <contour>
      <point x="1097" y="-9" type="curve" smooth="yes"/>
      <point x="989" y="-9"/>
      <point x="928" y="69"/>
      <point x="928" y="181" type="curve" smooth="yes"/>
      <point x="928" y="292"/>
      <point x="990" y="374"/>
      <point x="1098" y="374" type="curve" smooth="yes"/>
      <point x="1206" y="374"/>
      <point x="1266" y="293"/>
      <point x="1266" y="182" type="curve" smooth="yes"/>
      <point x="1266" y="70"/>
      <point x="1204" y="-9"/>
    </contour>
    <contour>
      <point x="1098" y="51" type="curve" smooth="yes"/>
      <point x="1161" y="51"/>
      <point x="1188" y="100"/>
      <point x="1188" y="182" type="curve" smooth="yes"/>
      <point x="1188" y="265"/>
      <point x="1162" y="314"/>
      <point x="1098" y="314" type="curve" smooth="yes"/>
      <point x="1032" y="314"/>
      <point x="1006" y="262"/>
      <point x="1006" y="181" type="curve" smooth="yes"/>
      <point x="1006" y="98"/>
      <point x="1034" y="51"/>
    </contour>
  </outline>
</glyph>
<glyph name="guilsinglleft" format="1">
  <advance width="334"/>
  <unicode hex="2039"/>
  <outline>
    <contour>
      <point x="200" y="82" type="line"/>
      <point x="67" y="264" type="line"/>
      <point x="203" y="447" type="line"/>
      <point x="282" y="447" type="line"/>
      <point x="161" y="264" type="line"/>
      <point x="278" y="82" type="line"/>
    </contour>
  </outline>
</glyph>
<glyph name="guilsinglright" format="1">
  <advance width="334"/>
  <unicode hex="203A"/>
  <outline>
    <contour>
      <point x="65" y="82" type="line"/>
      <point x="186" y="265" type="line"/>
      <point x="69" y="447" type="line"/>
      <point x="146" y="447" type="line"/>
      <point x="279" y="265" type="line"/>
      <point x="144" y="82" type="line"/>
    </contour>
  </outline>
</glyph>
<glyph name="foursuperior" format="1">
  <advance width="569"/>
  <unicode hex="2074"/>
  <outline>
    <contour>
      <point x="209" y="465" type="line"/>
      <point x="326" y="465" type="line"/>
      <point x="326" y="630" type="line"/>
    </contour>
    <contour>
      <point x="327" y="321" type="line"/>
      <point x="327" y="413" type="line"/>
      <point x="142" y="413" type="line"/>
      <point x="142" y="458" type="line"/>
      <point x="321" y="711" type="line"/>
      <point x="389" y="711" type="line"/>
      <point x="389" y="465" type="line"/>
      <point x="441" y="465" type="line"/>
      <point x="440" y="413" type="line"/>
      <point x="388" y="413" type="line"/>
      <point x="388" y="321" type="line"/>
    </contour>
  </outline>
</glyph>
<glyph name="Euro" format="1">
  <advance width="722"/>
  <unicode hex="20AC"/>
  <outline>
    <contour>
      <point x="447" y="-11" type="curve" smooth="yes"/>
      <point x="531" y="-11"/>
      <point x="613" y="12"/>
      <point x="684" y="64" type="curve"/>
      <point x="653" y="138" type="line"/>
      <point x="588" y="89"/>
      <point x="520" y="68"/>
      <point x="452" y="68" type="curve" smooth="yes"/>
      <point x="332" y="68"/>
      <point x="239" y="137"/>
      <point x="207" y="255" type="curve"/>
      <point x="442" y="255" type="line"/>
      <point x="445" y="306" type="line"/>
      <point x="198" y="306" type="line"/>
      <point x="196" y="320"/>
      <point x="195" y="336"/>
      <point x="195" y="351" type="curve" smooth="yes"/>
      <point x="195" y="371"/>
      <point x="197" y="390"/>
      <point x="200" y="409" type="curve"/>
      <point x="459" y="409" type="line"/>
      <point x="463" y="463" type="line"/>
      <point x="212" y="463" type="line"/>
      <point x="247" y="571"/>
      <point x="333" y="645"/>
      <point x="451" y="645" type="curve" smooth="yes"/>
      <point x="514" y="645"/>
      <point x="574" y="629"/>
      <point x="630" y="587" type="curve"/>
      <point x="667" y="650" type="line"/>
      <point x="603" y="703"/>
      <point x="528" y="724"/>
      <point x="444" y="724" type="curve" smooth="yes"/>
      <point x="282" y="724"/>
      <point x="152" y="624"/>
      <point x="111" y="463" type="curve"/>
      <point x="17" y="463" type="line"/>
      <point x="14" y="409" type="line"/>
      <point x="101" y="409" type="line"/>
      <point x="99" y="390"/>
      <point x="97" y="371"/>
      <point x="97" y="350" type="curve" smooth="yes"/>
      <point x="97" y="335"/>
      <point x="98" y="320"/>
      <point x="99" y="306" type="curve"/>
      <point x="17" y="306" type="line"/>
      <point x="15" y="255" type="line"/>
      <point x="107" y="255" type="line"/>
      <point x="145" y="81"/>
      <point x="287" y="-11"/>
    </contour>
  </outline>
</glyph>
<glyph name="trademark" format="1">
  <advance width="912"/>
  <unicode hex="2122"/>
  <outline>
    <contour>
      <point x="157" y="337" type="line"/>
      <point x="157" y="655" type="line"/>
      <point x="35" y="655" type="line"/>
      <point x="35" y="713" type="line"/>
      <point x="346" y="713" type="line"/>
      <point x="346" y="655" type="line"/>
      <point x="225" y="655" type="line"/>
      <point x="225" y="337" type="line"/>
    </contour>
    <contour>
      <point x="404" y="337" type="line"/>
      <point x="404" y="713" type="line"/>
      <point x="483" y="713" type="line"/>
      <point x="610" y="428" type="line"/>
      <point x="741" y="713" type="line"/>
      <point x="816" y="713" type="line"/>
      <point x="816" y="337" type="line"/>
      <point x="755" y="337" type="line"/>
      <point x="755" y="617" type="line"/>
      <point x="630" y="337" type="line"/>
      <point x="587" y="337" type="line"/>
      <point x="464" y="615" type="line"/>
      <point x="464" y="337" type="line"/>
    </contour>
  </outline>
</glyph>
<glyph name="estimated" format="1">
  <advance width="588"/>
  <unicode hex="212E"/>
  <outline>
    <contour>
      <point x="154" y="348" type="curve"/>
      <point x="433" y="348" type="line"/>
      <point x="433" y="506"/>
      <point x="365" y="557"/>
      <point x="297" y="557" type="curve" smooth="yes"/>
      <point x="231" y="557"/>
      <point x="155" y="506"/>
    </contour>
    <contour>
      <point x="306" y="56" type="curve" smooth="yes"/>
      <point x="167" y="56"/>
      <point x="52" y="143"/>
      <point x="52" y="318" type="curve" smooth="yes"/>
      <point x="52" y="512"/>
      <point x="176" y="585"/>
      <point x="298" y="585" type="curve" smooth="yes"/>
      <point x="413" y="585"/>
      <point x="520" y="525"/>
      <point x="520" y="342" type="curve" smooth="yes"/>
      <point x="520" y="337"/>
      <point x="519" y="328"/>
      <point x="517" y="320" type="curve"/>
      <point x="154" y="320" type="line"/>
      <point x="154" y="317" type="line" smooth="yes"/>
      <point x="154" y="157"/>
      <point x="233" y="86"/>
      <point x="330" y="86" type="curve" smooth="yes"/>
      <point x="380" y="86"/>
      <point x="441" y="106"/>
      <point x="502" y="146" type="curve"/>
      <point x="516" y="121" type="line"/>
      <point x="450" y="78"/>
      <point x="375" y="56"/>
    </contour>
  </outline>
</glyph>
<glyph name="partialdiff" format="1">
  <advance width="568"/>
  <unicode hex="2202"/>
  <outline>
    <contour>
      <point x="239" y="62" type="curve" smooth="yes"/>
      <point x="343" y="62"/>
      <point x="401" y="164"/>
      <point x="420" y="318" type="curve"/>
      <point x="401" y="369"/>
      <point x="356" y="417"/>
      <point x="294" y="417" type="curve" smooth="yes"/>
      <point x="201" y="417"/>
      <point x="128" y="318"/>
      <point x="128" y="204" type="curve" smooth="yes"/>
      <point x="128" y="119"/>
      <point x="171" y="62"/>
    </contour>
    <contour>
      <point x="429" y="439" type="line" smooth="yes"/>
      <point x="429" y="580"/>
      <point x="373" y="670"/>
      <point x="273" y="670" type="curve" smooth="yes"/>
      <point x="220" y="670"/>
      <point x="170" y="650"/>
      <point x="136" y="628" type="curve"/>
      <point x="130" y="698" type="line"/>
      <point x="170" y="725"/>
      <point x="226" y="744"/>
      <point x="284" y="744" type="curve" smooth="yes"/>
      <point x="432" y="744"/>
      <point x="523" y="642"/>
      <point x="523" y="413" type="curve" smooth="yes"/>
      <point x="523" y="203"/>
      <point x="428" y="-12"/>
      <point x="238" y="-12" type="curve" smooth="yes"/>
      <point x="105" y="-12"/>
      <point x="36" y="83"/>
      <point x="36" y="206" type="curve" smooth="yes"/>
      <point x="36" y="365"/>
      <point x="147" y="489"/>
      <point x="284" y="489" type="curve" smooth="yes"/>
      <point x="365" y="489"/>
      <point x="413" y="441"/>
      <point x="429" y="407" type="curve"/>
    </contour>
  </outline>
</glyph>
<glyph name="product" format="1">
  <advance width="761"/>
  <unicode hex="220F"/>
  <outline>
    <contour>
      <point x="135" y="-43" type="line"/>
      <point x="135" y="635" type="line"/>
      <point x="54" y="635" type="line"/>
      <point x="54" y="711" type="line"/>
      <point x="697" y="711" type="line"/>
      <point x="697" y="635" type="line"/>
      <point x="625" y="635" type="line"/>
      <point x="625" y="-43" type="line"/>
      <point x="529" y="-43" type="line"/>
      <point x="529" y="635" type="line"/>
      <point x="228" y="635" type="line"/>
      <point x="228" y="-43" type="line"/>
    </contour>
  </outline>
</glyph>
<glyph name="summation" format="1">
  <advance width="582"/>
  <unicode hex="2211"/>
  <outline>
    <contour>
      <point x="64" y="-54" type="line"/>
      <point x="64" y="-7" type="line"/>
      <point x="307" y="333" type="line"/>
      <point x="74" y="663" type="line"/>
      <point x="74" y="710" type="line"/>
      <point x="514" y="710" type="line"/>
      <point x="514" y="639" type="line"/>
      <point x="186" y="639" type="line"/>
      <point x="403" y="336" type="line"/>
      <point x="173" y="20" type="line"/>
      <point x="535" y="20" type="line"/>
      <point x="535" y="-54" type="line"/>
    </contour>
  </outline>
</glyph>
<glyph name="minus" format="1">
  <advance width="628"/>
  <unicode hex="2212"/>
  <outline>
    <contour>
      <point x="85" y="216" type="line"/>
      <point x="85" y="291" type="line"/>
      <point x="543" y="291" type="line"/>
      <point x="543" y="216" type="line"/>
    </contour>
  </outline>
</glyph>
<glyph name="radical" format="1">
  <advance width="641"/>
  <unicode hex="221A"/>
  <outline>
    <contour>
      <point x="328" y="-73" type="line"/>
      <point x="169" y="330" type="line" smooth="yes"/>
      <point x="86" y="316" type="line"/>
      <point x="73" y="379" type="line"/>
      <point x="227" y="405" type="line"/>
      <point x="359" y="48" type="line"/>
      <point x="553" y="774" type="line"/>
      <point x="628" y="774" type="line"/>
      <point x="402" y="-73" type="line"/>
    </contour>
  </outline>
</glyph>
<glyph name="infinity" format="1">
  <advance width="843"/>
  <unicode hex="221E"/>
  <outline>
    <contour>
      <point x="619" y="177" type="curve" smooth="yes"/>
      <point x="691" y="177"/>
      <point x="724" y="232"/>
      <point x="724" y="303" type="curve" smooth="yes"/>
      <point x="724" y="357"/>
      <point x="680" y="403"/>
      <point x="617" y="403" type="curve" smooth="yes"/>
      <point x="553" y="403"/>
      <point x="497" y="349"/>
      <point x="457" y="291" type="curve"/>
      <point x="515" y="217"/>
      <point x="559" y="177"/>
    </contour>
    <contour>
      <point x="229" y="177" type="curve" smooth="yes"/>
      <point x="291" y="177"/>
      <point x="343" y="228"/>
      <point x="388" y="289" type="curve"/>
      <point x="343" y="354"/>
      <point x="291" y="403"/>
      <point x="224" y="403" type="curve" smooth="yes"/>
      <point x="155" y="403"/>
      <point x="115" y="352"/>
      <point x="115" y="291" type="curve" smooth="yes"/>
      <point x="115" y="233"/>
      <point x="160" y="177"/>
    </contour>
    <contour>
      <point x="225" y="115" type="curve" smooth="yes"/>
      <point x="119" y="115"/>
      <point x="47" y="200"/>
      <point x="47" y="301" type="curve" smooth="yes"/>
      <point x="47" y="392"/>
      <point x="130" y="465"/>
      <point x="223" y="465" type="curve" smooth="yes"/>
      <point x="304" y="465"/>
      <point x="365" y="416"/>
      <point x="422" y="341" type="curve"/>
      <point x="476" y="414"/>
      <point x="536" y="465"/>
      <point x="619" y="465" type="curve" smooth="yes"/>
      <point x="726" y="465"/>
      <point x="794" y="393"/>
      <point x="794" y="292" type="curve" smooth="yes"/>
      <point x="794" y="188"/>
      <point x="713" y="115"/>
      <point x="618" y="115" type="curve" smooth="yes"/>
      <point x="546" y="115"/>
      <point x="486" y="155"/>
      <point x="421" y="238" type="curve"/>
      <point x="365" y="165"/>
      <point x="304" y="115"/>
    </contour>
  </outline>
</glyph>
<glyph name="integral" format="1">
  <advance width="365"/>
  <unicode hex="222B"/>
  <outline>
    <contour>
      <point x="88" y="-149" type="curve" smooth="yes"/>
      <point x="44" y="-149"/>
      <point x="18" y="-138"/>
      <point x="18" y="-138" type="curve"/>
      <point x="18" y="-68" type="line"/>
      <point x="18" y="-68"/>
      <point x="57" y="-75"/>
      <point x="83" y="-75" type="curve" smooth="yes"/>
      <point x="144" y="-75"/>
      <point x="154" y="-41"/>
      <point x="154" y="24" type="curve" smooth="yes"/>
      <point x="154" y="581" type="line" smooth="yes"/>
      <point x="154" y="687"/>
      <point x="182" y="765"/>
      <point x="293" y="765" type="curve" smooth="yes"/>
      <point x="336" y="765"/>
      <point x="361" y="754"/>
      <point x="361" y="754" type="curve"/>
      <point x="361" y="683" type="line"/>
      <point x="361" y="683"/>
      <point x="336" y="691"/>
      <point x="308" y="691" type="curve" smooth="yes"/>
      <point x="247" y="691"/>
      <point x="237" y="657"/>
      <point x="237" y="592" type="curve" smooth="yes"/>
      <point x="237" y="36" type="line" smooth="yes"/>
      <point x="237" y="-70"/>
      <point x="199" y="-149"/>
    </contour>
  </outline>
</glyph>
<glyph name="approxequal" format="1">
  <advance width="659"/>
  <unicode hex="2248"/>
  <outline>
    <contour>
      <point x="151" y="123" type="curve"/>
      <point x="85" y="141" type="line"/>
      <point x="105" y="222"/>
      <point x="159" y="271"/>
      <point x="235" y="271" type="curve" smooth="yes"/>
      <point x="280" y="271"/>
      <point x="322" y="250"/>
      <point x="361" y="229" type="curve" smooth="yes"/>
      <point x="397" y="211"/>
      <point x="428" y="191"/>
      <point x="452" y="191" type="curve" smooth="yes"/>
      <point x="490" y="191"/>
      <point x="512" y="221"/>
      <point x="531" y="272" type="curve"/>
      <point x="595" y="256" type="line"/>
      <point x="577" y="178"/>
      <point x="531" y="125"/>
      <point x="449" y="125" type="curve" smooth="yes"/>
      <point x="409" y="125"/>
      <point x="370" y="142"/>
      <point x="318" y="173" type="curve" smooth="yes"/>
      <point x="287" y="191"/>
      <point x="259" y="204"/>
      <point x="234" y="204" type="curve" smooth="yes"/>
      <point x="191" y="204"/>
      <point x="165" y="172"/>
    </contour>
    <contour>
      <point x="151" y="322" type="curve"/>
      <point x="84" y="337" type="line"/>
      <point x="102" y="418"/>
      <point x="156" y="468"/>
      <point x="234" y="468" type="curve" smooth="yes"/>
      <point x="276" y="468"/>
      <point x="313" y="452"/>
      <point x="357" y="426" type="curve" smooth="yes"/>
      <point x="398" y="402"/>
      <point x="428" y="389"/>
      <point x="451" y="389" type="curve" smooth="yes"/>
      <point x="488" y="389"/>
      <point x="512" y="418"/>
      <point x="530" y="470" type="curve"/>
      <point x="594" y="454" type="line"/>
      <point x="577" y="375"/>
      <point x="530" y="324"/>
      <point x="448" y="324" type="curve" smooth="yes"/>
      <point x="406" y="324"/>
      <point x="369" y="339"/>
      <point x="316" y="370" type="curve" smooth="yes"/>
      <point x="285" y="389"/>
      <point x="257" y="403"/>
      <point x="232" y="403" type="curve" smooth="yes"/>
      <point x="190" y="403"/>
      <point x="165" y="370"/>
    </contour>
  </outline>
</glyph>
<glyph name="notequal" format="1">
  <advance width="664"/>
  <unicode hex="2260"/>
  <outline>
    <contour>
      <point x="235" y="21" type="line"/>
      <point x="167" y="31" type="line"/>
      <point x="228" y="156" type="line"/>
      <point x="84" y="156" type="line"/>
      <point x="84" y="223" type="line"/>
      <point x="261" y="223" type="line"/>
      <point x="327" y="349" type="line"/>
      <point x="84" y="349" type="line"/>
      <point x="84" y="416" type="line"/>
      <point x="359" y="416" type="line"/>
      <point x="424" y="548" type="line"/>
      <point x="494" y="538" type="line"/>
      <point x="434" y="416" type="line"/>
      <point x="588" y="416" type="line"/>
      <point x="588" y="349" type="line"/>
      <point x="402" y="349" type="line"/>
      <point x="335" y="223" type="line"/>
      <point x="588" y="223" type="line"/>
      <point x="588" y="156" type="line"/>
      <point x="302" y="156" type="line"/>
    </contour>
  </outline>
</glyph>
<glyph name="lessequal" format="1">
  <advance width="659"/>
  <unicode hex="2264"/>
  <outline>
    <contour>
      <point x="82" y="0" type="line"/>
      <point x="82" y="63" type="line"/>
      <point x="558" y="63" type="line"/>
      <point x="558" y="0" type="line"/>
    </contour>
    <contour>
      <point x="548" y="105" type="line"/>
      <point x="92" y="332" type="line"/>
      <point x="92" y="379" type="line"/>
      <point x="550" y="596" type="line"/>
      <point x="550" y="511" type="line"/>
      <point x="206" y="354" type="line"/>
      <point x="548" y="188" type="line"/>
    </contour>
  </outline>
</glyph>
<glyph name="greaterequal" format="1">
  <advance width="659"/>
  <unicode hex="2265"/>
  <outline>
    <contour>
      <point x="92" y="0" type="line"/>
      <point x="92" y="63" type="line"/>
      <point x="568" y="63" type="line"/>
      <point x="568" y="0" type="line"/>
    </contour>
    <contour>
      <point x="97" y="104" type="line"/>
      <point x="97" y="189" type="line"/>
      <point x="441" y="346" type="line"/>
      <point x="99" y="512" type="line"/>
      <point x="99" y="596" type="line"/>
      <point x="554" y="368" type="line"/>
      <point x="554" y="321" type="line"/>
    </contour>
  </outline>
</glyph>
<glyph name="lozenge" format="1">
  <advance width="609"/>
  <unicode hex="25CA"/>
  <outline>
    <contour>
      <point x="298" y="64" type="line"/>
      <point x="466" y="347" type="line"/>
      <point x="302" y="626" type="line"/>
      <point x="134" y="347" type="line"/>
    </contour>
    <contour>
      <point x="269" y="-21" type="line"/>
      <point x="50" y="347" type="line"/>
      <point x="272" y="714" type="line"/>
      <point x="331" y="714" type="line"/>
      <point x="551" y="347" type="line"/>
      <point x="327" y="-21" type="line"/>
    </contour>
  </outline>
</glyph>
<glyph name="fi" format="1">
  <advance width="597"/>
  <unicode hex="FB01"/>
  <outline>
    <contour>
      <point x="122" y="0" type="line"/>
      <point x="122" y="445" type="line"/>
      <point x="34" y="445" type="line"/>
      <point x="34" y="501" type="line"/>
      <point x="122" y="501" type="line"/>
      <point x="122" y="544" type="line" smooth="yes"/>
      <point x="122" y="669"/>
      <point x="144" y="725"/>
      <point x="311" y="725" type="curve" smooth="yes"/>
      <point x="334" y="725" type="line"/>
      <point x="333" y="659" type="line"/>
      <point x="215" y="659"/>
      <point x="207" y="635"/>
      <point x="207" y="554" type="curve" smooth="yes"/>
      <point x="207" y="501" type="line"/>
      <point x="446" y="501" type="line"/>
      <point x="446" y="445" type="line"/>
      <point x="207" y="445" type="line"/>
      <point x="207" y="0" type="line"/>
    </contour>
    <component base="i" xOffset="344"/>
  </outline>
</glyph>
<glyph name="uniFB01" format="1">
  <advance width="597"/>
  <unicode hex="FB01"/>
  <outline>
    <component base="i" xOffset="344"/>
    <contour>
      <point x="122" y="0" type="line"/>
      <point x="122" y="445" type="line"/>
      <point x="34" y="445" type="line"/>
      <point x="34" y="501" type="line"/>
      <point x="122" y="501" type="line"/>
      <point x="122" y="544" type="line" smooth="yes"/>
      <point x="122" y="669"/>
      <point x="144" y="725"/>
      <point x="311" y="725" type="curve" smooth="yes"/>
      <point x="334" y="725" type="line"/>
      <point x="333" y="659" type="line"/>
      <point x="215" y="659"/>
      <point x="207" y="635"/>
      <point x="207" y="554" type="curve" smooth="yes"/>
      <point x="207" y="501" type="line"/>
      <point x="446" y="501" type="line"/>
      <point x="446" y="445" type="line"/>
      <point x="207" y="445" type="line"/>
      <point x="207" y="0" type="line"/>
    </contour>
  </outline>
</glyph>
<glyph name="fl" format="1">
  <advance width="617"/>
  <unicode hex="FB02"/>
  <outline>
    <contour>
      <point x="131" y="0" type="line"/>
      <point x="131" y="446" type="line"/>
      <point x="34" y="446" type="line"/>
      <point x="34" y="501" type="line"/>
      <point x="131" y="501" type="line"/>
      <point x="131" y="540" type="line" smooth="yes"/>
      <point x="131" y="666"/>
      <point x="174" y="716"/>
      <point x="359" y="716" type="curve" smooth="yes"/>
      <point x="534" y="716" type="line"/>
      <point x="534" y="0" type="line"/>
      <point x="449" y="0" type="line"/>
      <point x="449" y="650" type="line"/>
      <point x="362" y="650" type="line" smooth="yes"/>
      <point x="237" y="650"/>
      <point x="215" y="628"/>
      <point x="215" y="553" type="curve" smooth="yes"/>
      <point x="215" y="501" type="line"/>
      <point x="336" y="501" type="line"/>
      <point x="336" y="446" type="line"/>
      <point x="215" y="446" type="line"/>
      <point x="215" y="0" type="line"/>
    </contour>
  </outline>
</glyph>
<glyph name="uniFB02" format="1">
  <advance width="617"/>
  <unicode hex="FB02"/>
  <outline>
    <contour>
      <point x="131" y="0" type="line"/>
      <point x="131" y="446" type="line"/>
      <point x="34" y="446" type="line"/>
      <point x="34" y="501" type="line"/>
      <point x="131" y="501" type="line"/>
      <point x="131" y="540" type="line" smooth="yes"/>
      <point x="131" y="666"/>
      <point x="174" y="716"/>
      <point x="359" y="716" type="curve" smooth="yes"/>
      <point x="534" y="716" type="line"/>
      <point x="534" y="0" type="line"/>
      <point x="449" y="0" type="line"/>
      <point x="449" y="650" type="line"/>
      <point x="362" y="650" type="line" smooth="yes"/>
      <point x="237" y="650"/>
      <point x="215" y="628"/>
      <point x="215" y="553" type="curve" smooth="yes"/>
      <point x="215" y="501" type="line"/>
      <point x="336" y="501" type="line"/>
      <point x="336" y="446" type="line"/>
      <point x="215" y="446" type="line"/>
      <point x="215" y="0" type="line"/>
    </contour>
  </outline>
</glyph>
<glyph name="caron.alt" format="1">
  <advance width="292"/>
  <outline>
    <contour>
      <point x="23" y="501" type="move" name="_caron.alt"/>
    </contour>
    <contour>
      <point x="159" y="485" type="line"/>
      <point x="212" y="717" type="line"/>
      <point x="314" y="717" type="line"/>
      <point x="232" y="485" type="line"/>
    </contour>
  </outline>
</glyph>
<glyph name="f_f" format="1">
  <advance width="658"/>
  <outline>
    <contour>
      <point x="519" y="446" type="line"/>
      <point x="519" y="0" type="line"/>
      <point x="436" y="0" type="line"/>
      <point x="436" y="446" type="line"/>
      <point x="205" y="446" type="line"/>
      <point x="205" y="0" type="line"/>
      <point x="122" y="0" type="line"/>
      <point x="122" y="446" type="line"/>
      <point x="33" y="446" type="line"/>
      <point x="33" y="501" type="line"/>
      <point x="122" y="501" type="line"/>
      <point x="122" y="544" type="line" smooth="yes"/>
      <point x="122" y="669"/>
      <point x="144" y="725"/>
      <point x="310" y="725" type="curve" smooth="yes"/>
      <point x="333" y="725" type="line"/>
      <point x="333" y="660" type="line"/>
      <point x="214" y="660"/>
      <point x="205" y="636"/>
      <point x="205" y="555" type="curve" smooth="yes"/>
      <point x="205" y="501" type="line"/>
      <point x="436" y="501" type="line"/>
      <point x="436" y="544" type="line" smooth="yes"/>
      <point x="436" y="669"/>
      <point x="458" y="725"/>
      <point x="624" y="725" type="curve" smooth="yes"/>
      <point x="646" y="725" type="line"/>
      <point x="646" y="660" type="line"/>
      <point x="527" y="660"/>
      <point x="519" y="636"/>
      <point x="519" y="555" type="curve" smooth="yes"/>
      <point x="519" y="501" type="line"/>
      <point x="640" y="501" type="line"/>
      <point x="640" y="446" type="line"/>
    </contour>
  </outline>
</glyph>
